<?xml version="1.0" encoding="UTF-8" standalone="no"?>
<!-- Created with Inkscape (http://www.inkscape.org/) -->

<svg
   version="1.1"
   id="svg1"
   width="732"
   height="732"
   viewBox="0 0 732 732"
   sodipodi:docname="bricks.svg"
   inkscape:version="1.4.2 (f4327f4, 2025-05-13)"
   xmlns:inkscape="http://www.inkscape.org/namespaces/inkscape"
   xmlns:sodipodi="http://sodipodi.sourceforge.net/DTD/sodipodi-0.dtd"
   xmlns="http://www.w3.org/2000/svg"
   xmlns:svg="http://www.w3.org/2000/svg">
  <defs
     id="defs1" />
  <sodipodi:namedview
     id="namedview1"
     pagecolor="#ffffff"
     bordercolor="#000000"
     borderopacity="0.25"
     inkscape:showpageshadow="2"
     inkscape:pageopacity="0.0"
     inkscape:pagecheckerboard="0"
     inkscape:deskcolor="#d1d1d1"
     showgrid="false"
     inkscape:zoom="0.79713115"
     inkscape:cx="379.48586"
     inkscape:cy="255.29049"
     inkscape:window-width="2560"
     inkscape:window-height="1369"
     inkscape:window-x="-8"
     inkscape:window-y="-8"
     inkscape:window-maximized="1"
     inkscape:current-layer="g1" />
  <g
     inkscape:groupmode="layer"
     inkscape:label="Image"
     id="g1">
    <path
       style="fill:#000000"
       d="m 14.944333,715.75 c -0.08597,-25.09725 -1.451336,-49.45105 -2.868111,-51.15816 -0.676451,-0.81507 -3.6703309,-1.98858 -6.6530664,-2.60779 L 0,660.8582 l 0,-4.35714 0,-4.35715 5.25,-0.60495 c 9.685231,-1.11603 28.118271,-1.02254 44.232934,0.22435 C 58.273547,652.44349 77.879372,653 93.051432,653 c 43.751788,0 44.345048,-0.40068 45.899808,-31 0.43316,-8.525 1.37167,-18.24133 2.08557,-21.59184 1.11126,-5.2154 1.06038,-7.62802 -0.35366,-16.7692 -1.16367,-7.52265 -2.30086,-11.55545 -3.84893,-13.64932 l -2.19726,-2.97195 -25.06848,0.62356 C 93.85106,568.03222 80.023753,567.84866 72.5,567.14918 65.9,566.53558 46.8875,565.72871 30.25,565.35613 L 0,564.67873 0,560.54025 c 0,-3.77635 0.28950857,-4.24316 3.3086209,-5.33489 1.8197415,-0.65802 4.6322415,-2.57786 6.25,-4.2663 L 12.5,547.86917 v -30.85582 c 0,-29.73277 -0.07609,-30.95878 -2.09059,-33.68458 -1.1498241,-1.55583 -3.9623241,-3.48989 -6.2499997,-4.29794 L 0,477.56167 l 0,-6.12132 0,-6.12132 22.661607,-0.65951 c 12.463884,-0.36274 40.251384,-0.70438 61.75,-0.7592 C 105.91022,463.8455 124.625,463.48897 126,463.10803 c 4.60191,-1.27493 5.05241,-4.03276 6.10414,-37.36781 0.5421,-17.18212 0.73279,-32.24901 0.42376,-33.48198 -0.35414,-1.41297 -2.42252,-3.18463 -5.59469,-4.79208 l -5.03282,-2.55033 -60.950195,-0.62 L 0,383.67583 V 376.83791 370 l 2.8450124,0 c 1.5812446,0 3.6543233,-0.89428 4.6669447,-2.01321 1.6886154,-1.8659 1.8280096,-4.66478 1.9049875,-38.25 C 9.5088486,289.63937 9.3974075,288.84623 3.2716424,286 0.40706692,284.66902 0.0408461,284.03641 0.02164242,280.38592 L 0,276.27185 4.6395713,275.63592 C 7.1913355,275.28617 25.359759,275 45.013845,275 c 30.119549,0 36.422279,-0.24922 40.110428,-1.58601 4.830443,-1.75083 11.50977,-2.03834 22.875727,-0.98469 6.21949,0.57657 8.09757,0.38585 11,-1.11701 6.62155,-3.42862 6.9967,-5.38058 6.99845,-36.41441 0.002,-26.97713 -0.0494,-27.67715 -2.24845,-30.916 -1.74659,-2.57243 -3.80382,-3.83608 -9.19479,-5.64788 -6.51702,-2.19024 -8.45726,-2.33541 -31.499997,-2.35691 C 65.390884,195.96062 5.929753,193.8485 0.25,193.03577 0.1125,193.0161 0,190.94595 0,188.43544 c 0,-3.81464 0.47896357,-4.96758 2.9153121,-7.01763 1.6034216,-1.34919 4.0171396,-4.35764 5.3638176,-6.68544 2.3825453,-4.11835 2.4670603,-4.97796 3.1372883,-31.90947 L 12.105202,115.1458 6.0526008,112.93891 0,110.73202 0,105.86601 0,101 l 55.25,0.005 55.25,0.005 7.78184,-3.130611 c 4.49488,-1.808276 8.23977,-3.986262 8.86598,-5.156346 0.59628,-1.114152 1.47355,-9.945295 1.9495,-19.624762 C 129.57326,63.419564 130.63004,52.8 131.44572,49.5 134.65773,36.505027 133.24304,33.133384 123.21355,29.880273 116.88866,27.828761 113.86594,27.658721 71,26.943053 45.975,26.525248 19.7625,26.14214 12.75,26.091704 L 0,26 V 20.131669 14.263338 L 4.1375829,13.708372 C 9.5220342,12.986165 11.2838,11.082003 11.952753,5.2615332 L 12.5,0.5 18.25,0.20009614 24,-0.09980771 l 0,5.10244311 0,5.1024436 6.75,3.171882 6.75,3.171882 37,0.381914 c 35.01159,0.361389 52.54837,-0.293137 77,-2.873872 5.5,-0.580495 29.125,-1.412313 52.5,-1.848483 36.55164,-0.682044 43.05494,-1.030479 46.46495,-2.4895075 4.59519,-1.9661219 5.4987,-3.0904731 5.51974,-6.8688945 0.0144,-2.57897312 0.28763,-2.75 4.39399,-2.75 3.88273,0 4.51391,0.32648542 5.57266,2.8825201 2.18679,5.279394 6.16637,8.0827889 13.13364,9.2519359 7.04232,1.181742 36.01955,0.483045 46.91502,-1.131212 3.76136,-0.557277 42.31302,-0.973077 91.5,-0.986875 82.52151,-0.02315 85.09335,-0.080764 88.20145,-1.9758845 1.7608,-1.0736217 3.90986,-3.3219395 4.77568,-4.996262 C 512.00179,0.09585128 512.26974,0 518.98714,0 l 6.93577,0 1.07781,4.0026738 c 1.86385,6.9218152 1.27842,6.8253842 41.49928,6.8356232 19.8,0.005 46.8,0.47414 60,1.042443 13.2,0.568303 41.8875,1.34572 63.75,1.727593 l 39.75,0.694314 3.8e-4,5.598677 3.8e-4,5.598676 -38.25038,-0.306583 c -43.33965,-0.347374 -49.25799,4.54e-4 -53.96498,3.171586 L 636.5,30.578401 636.19665,56.5392 c -0.38677,33.100139 0.0326,37.513361 3.99335,42.024415 L 643.20718,102 687.60359,102 732,102 v 4.34102 4.34102 l -22.75,0.63989 c -12.5125,0.35194 -28.8288,1.12854 -36.25843,1.72577 -7.42964,0.59723 -18.67964,0.8583 -25,0.58016 -6.32037,-0.27815 -37.35349,-1.02374 -68.9625,-1.65687 l -57.47094,-1.15115 -3.79334,4.06666 -3.79335,4.06667 0.26428,31.26032 0.26428,31.26032 3,1.5131 c 2.61131,1.31705 16.70133,1.54834 108.75,1.78519 l 105.75,0.27211 0,3.87091 c 0,2.60727 -0.51637,4.06905 -1.58179,4.47789 C 729.54823,193.72686 710.04075,194 687.06825,194 h -41.76817 l -4.0502,2.93395 c -2.22761,1.61367 -4.27269,3.30117 -4.54461,3.75 -1.17418,1.93807 -1.57359,20.55178 -0.91528,42.65492 0.81301,27.29709 0.48292,26.39161 10.4424,28.64506 2.89719,0.65552 6.68562,1.82731 8.41874,2.60397 2.53084,1.13413 10.45387,1.4121 40.25,1.4121 L 732,276 v 4.3746 l 0,4.3746 -74.25,0.63017 c -40.8375,0.3466 -87.50255,0.90792 -103.70012,1.24739 -27.77173,0.58204 -29.63839,0.7385 -32.75355,2.74523 -2.09305,1.34831 -3.66649,3.41041 -4.2943,5.62801 -1.25016,4.41586 -1.27597,58.10724 -0.0305,63.5 1.25088,5.41627 4.63505,8.10291 11.18702,8.88118 9.74457,1.15751 82.904,2.79642 110.84148,2.48307 27.8308,-0.31216 92.24742,0.12484 92.80073,0.62955 0.1654,0.15088 0.1654,2.92979 0,6.17537 l -0.30073,5.90104 -14,-2.3073 c -12.13366,-1.99972 -16.79952,-2.26545 -35,-1.99327 -19.23384,0.28764 -21.62755,0.52341 -28.46171,2.80334 -7.26355,2.42319 -7.48513,2.59469 -8.34362,6.45816 -0.48506,2.18287 -0.6547,17.13623 -0.37697,33.22969 0.50284,29.13886 0.51558,29.27897 3.0554,33.61285 1.45848,2.4887 3.74423,4.80821 5.33868,5.41751 1.53352,0.58603 11.11322,1.35585 21.28822,1.71071 10.175,0.35487 26.375,1.28107 36,2.05822 9.625,0.77716 18.2875,1.41906 19.25,1.42645 1.47073,0.0113 1.75,0.97093 1.75,6.01343 0,3.78556 -0.41612,6 -1.12747,6 -0.6201,0 -11.0826,-0.8908 -23.25,-1.97955 -34.72451,-3.1072 -53.18978,-4.0163 -80.12253,-3.94465 -25.41408,0.0676 -30.70289,0.40892 -52,3.35591 -18.00825,2.4919 -28.23284,3.52232 -36,3.62803 -8.68742,0.11823 -16.54547,2.71313 -18.23526,6.02167 -0.88968,1.74196 -1.23938,10.03278 -1.25,29.63526 L 520,540.93333 l 3.38005,3.38005 c 6.71533,6.71533 6.20993,6.67612 99.61995,7.72826 45.925,0.51728 88.45,1.39299 94.5,1.94602 6.05,0.55303 11.7875,1.00704 12.75,1.00892 1.40869,0.003 1.75,0.88716 1.75,4.53454 l 0,4.53113 -30.90949,-0.68802 c -27.76815,-0.61809 -31.2998,-0.51654 -34.75,0.99918 -7.45289,3.27416 -8.81845,4.212 -11.14237,7.6523 l -2.34687,3.47429 0.32437,34 c 0.23601,24.73962 0.66272,34.59101 1.56668,36.16991 1.71364,2.99315 7.496,4.68851 13.77927,4.04002 6.15084,-0.63483 55.49026,0.89908 60.22841,1.87243 3.05452,0.62748 3.25,0.92426 3.25,4.93423 0,3.77331 -0.30408,4.34291 -2.63007,4.9267 -1.44654,0.36306 -5.83404,0.14618 -9.75,-0.48195 -3.98187,-0.6387 -10.86624,-0.88092 -15.61993,-0.54957 -4.675,0.32586 -45.64483,0.92902 -91.04407,1.34036 -95.19037,0.86245 -87.84604,0.0271 -88.10342,10.02092 -0.0811,3.14982 -0.0267,17.98945 0.12102,32.97695 l 0.26851,27.25 h -5.55122 -5.55121 l 0.9302,-3.2434 c 1.05198,-3.66805 1.10303,-32.708 0.0811,-46.10472 -0.55959,-7.33547 -1.03921,-9.14305 -2.80551,-10.57331 -1.17179,-0.94886 -7.91636,-3.00042 -14.98794,-4.55903 L 484.5,664.68571 l -30,1.21562 c -16.5,0.6686 -33.15,1.62459 -37,2.12443 -8.88532,1.15357 -31.4515,1.13139 -38,-0.0374 -6.70169,-1.19609 -93.99499,-3.49823 -98.74606,-2.60418 -2.06033,0.38771 -4.93328,1.72614 -6.38435,2.97429 -2.60326,2.23923 -2.65693,2.55404 -4.04211,23.70543 -0.77209,11.78983 -1.72414,25.48606 -2.11565,30.43606 l -0.71183,9 -4.65426,0.30088 -4.65425,0.30088 -0.0181,-21.80088 c -0.019,-22.856 -1.1496,-33.8497 -3.98069,-38.70559 -1.17166,-2.00961 -3.38823,-3.5227 -7.19312,-4.9102 -5.12337,-1.8683 -8.06496,-2.01049 -42.9996,-2.07853 -20.625,-0.0402 -45.825,0.067 -56,0.23812 -10.175,0.17113 -22.775,-0.19219 -28,-0.80739 -26.480276,-3.11782 -87.095841,-2.14819 -92.660758,1.48224 -4.829335,3.15055 -5.309621,8.91065 -3.854764,46.23047 L 24.273893,732 H 19.636947 15 Z M 375.29749,653.74733 c 5.40593,-2.49915 5.9969,-3.11996 8.75,-9.19179 L 387,638.04391 l -0.0239,-30.27195 c -0.0218,-27.61413 -0.60593,-36.73537 -2.4722,-38.60118 -0.36901,-0.36893 -50.92086,-0.67093 -112.33744,-0.67112 -88.22052,-2.6e-4 -112.24192,0.26656 -114.40708,1.27081 -4.94172,2.29209 -6.0955,5.41572 -6.87351,18.60871 -0.39314,6.66645 -1.24925,14.22867 -1.90247,16.80493 -0.7671,3.02534 -1.06299,10.70195 -0.83556,21.67769 0.31673,15.2857 0.55933,17.27103 2.41391,19.75411 3.74347,5.0121 6.77034,6.5189 15.04733,7.49067 9.71672,1.14079 116.59676,2.74125 166.89088,2.49908 l 37,-0.17817 z M 433,654.93691 c 10.175,-0.58406 60.125,-1.1463 111,-1.24942 86.04981,-0.17442 92.7235,-0.30969 95.70515,-1.93998 2.27038,-1.24138 3.38492,-2.71071 3.82153,-5.03801 0.339,-1.80704 0.4697,-18.79342 0.29045,-37.74751 -0.32285,-34.13832 -0.34935,-34.51774 -2.82152,-40.39744 -2.04069,-4.85348 -3.04247,-6.08108 -5.49561,-6.73435 -4.33202,-1.15363 -196.50094,-2.96176 -205.5,-1.93357 -4.125,0.47131 -10.2,1.38182 -13.5,2.02336 -3.3,0.64155 -8.33502,1.62312 -11.18894,2.18128 -2.85392,0.55816 -6.34142,1.92137 -7.75,3.02936 L 395,569.14516 l 0.0178,27.17742 c 0.0246,37.56186 1.77706,51.38289 7.28179,57.42742 2.43266,2.67121 3.87255,2.72688 30.70044,1.18691 z m -180.80501,-96.8272 c 1.48224,-0.75934 3.01259,-2.10716 3.40078,-2.99516 0.38818,-0.888 0.90057,-14.66455 1.13864,-30.61455 l 0.43285,-29 -2.83363,-7.96297 c -2.73905,-7.69719 -2.96994,-8.00221 -6.91752,-9.13842 -2.24614,-0.6465 -5.48222,-1.89855 -7.19128,-2.78235 -2.74426,-1.41911 -13.83609,-1.72382 -94.91611,-2.6075 -96.338097,-1.04997 -108.989193,-0.7429 -115.962622,2.81467 -7.153832,3.64962 -6.848756,1.94655 -6.821623,38.08134 0.02757,36.7205 0.380811,38.91349 6.689536,41.53012 4.730456,1.96202 70.64693,3.26967 79.785989,1.58279 8.54344,-1.57694 36.88725,-1.60575 44.38408,-0.0451 13.77042,2.86662 93.64068,3.7858 98.81091,1.13715 z M 357,554.99021 c 9.075,-0.55027 21.225,-1.65156 27,-2.44732 7.35577,-1.01357 25.47253,-1.63027 60.5,-2.05942 50.99744,-0.62481 55.8531,-1.00619 59.14669,-4.64556 5.89855,-6.51782 9.61945,-56.56787 4.61664,-62.09858 -0.87595,-0.96838 -4.55603,-2.75575 -8.17798,-3.97195 -6.44501,-2.16415 -8.04511,-2.2268 -75.08535,-2.93993 -37.675,-0.40077 -86.65716,-1.0227 -108.84925,-1.38208 -37.28158,-0.60373 -40.59652,-0.52025 -43.60154,1.09806 -1.78876,0.96331 -3.8376,2.68872 -4.55299,3.83424 -1.66796,2.67082 -3.35437,36.0154 -2.58553,51.12233 0.3079,6.05 0.56646,12.63794 0.57457,14.63987 0.0136,3.35483 0.38672,3.81612 4.76474,5.8904 4.44101,2.10412 6.57141,2.29552 32.75,2.94231 15.4,0.38049 30.025,0.76522 32.5,0.85496 2.475,0.0897 11.925,-0.28706 21,-0.83733 z m 19.05205,-89.09479 c 12.38339,-2.65576 13.98442,-8.04419 13.63666,-45.89542 -0.21643,-23.55659 -0.39551,-25.85245 -2.34981,-30.12464 -4.16816,-9.11177 -8.30933,-9.44036 -87.3389,-6.93014 -25.025,0.79487 -67.55,1.46987 -94.5,1.5 -51.37896,0.0574 -55.19383,0.34901 -58.95585,4.506 -4.30079,4.75231 -7.00528,29.71277 -5.63955,52.04878 0.52126,8.525 1.2754,16.34297 1.67586,17.37326 0.40047,1.0303 3.14652,2.9428 6.10234,4.25 l 5.37423,2.37674 44.22148,0.13582 c 24.32182,0.0747 62.22149,0.43867 84.22149,0.80883 67.64185,1.1381 88.06585,1.12735 93.55205,-0.0492 z M 468.5,464.08748 c 4.95,-0.43036 31.725,-0.35331 59.5,0.17122 37.06683,0.7 52.62803,0.65001 58.5,-0.18793 4.4,-0.62788 15.72074,-1.53793 25.15719,-2.02233 17.70997,-0.90909 21.07229,-1.76735 22.95094,-5.85843 0.42683,-0.92951 0.95489,-17.11 1.17348,-35.95664 l 0.39741,-34.26664 -4.34307,-1.92115 c -2.38869,-1.05663 -9.68726,-2.84914 -16.21904,-3.98336 -11.07029,-1.92232 -15.75106,-2.06077 -68.99644,-2.04082 -31.41626,0.0118 -63.64547,0.46044 -71.62047,0.99705 -7.975,0.5366 -26.74333,1.40551 -41.70741,1.93089 -29.11201,1.02212 -32.50006,1.65381 -33.60634,6.26575 -0.30145,1.2567 -0.86682,16.51278 -1.25638,33.9024 l -0.70829,31.61749 3.17694,4.61752 c 3.5608,5.17545 5.33468,6.36895 11.39802,7.66883 4.51137,0.96717 41.38491,0.35449 56.20346,-0.93385 z M 163,373.99267 c 15.47311,-1.07093 58.17059,-2.94145 74.64791,-3.27023 9.54992,-0.19055 11.46391,-0.50879 13.35238,-2.22008 5.40653,-4.89927 5.47501,-5.39909 5.82724,-42.52721 0.32644,-34.41126 0.32034,-34.53135 -1.85383,-36.5 -1.94433,-1.76052 -4.20751,-2.04688 -20.82753,-2.63524 C 223.89078,286.47686 186.7,286.13217 151.5,286.07392 108.52605,286.00281 80.599408,285.50932 66.495685,284.5718 52.86125,283.66547 41.927689,283.45561 35.334804,283.97369 24.700441,284.80935 23.895173,285.04154 20.25,288.32308 l -2.25,2.02555 0,37.42139 c 0,33.07816 0.192753,37.7477 1.660761,40.23284 2.001995,3.38911 4.527819,3.99439 16.714239,4.00534 5.01875,0.005 13.175,0.49339 18.125,1.08638 23.254423,2.7858 75.03327,3.21439 108.5,0.89809 z m 307.5,-3.60874 c 24.80905,-1.45288 28.45585,-1.88349 32,-3.77849 l 4,-2.13874 0.78857,-11.48335 c 0.43372,-6.31584 0.59528,-20.70835 0.35904,-31.98335 -0.60699,-28.96938 -1.13784,-29.99601 -16.50665,-31.92309 -4.49666,-0.56384 -9.09316,-1.51614 -10.21445,-2.11624 -1.32158,-0.70729 -5.6245,-0.87584 -12.23261,-0.47918 -5.60665,0.33655 -51.8189,0.92839 -102.6939,1.31521 -50.875,0.38681 -93.2605,1.07859 -94.19001,1.53727 -0.9295,0.45868 -2.5045,2.03368 -3.5,3.5 -1.6614,2.44716 -1.80999,5.5394 -1.80999,37.66603 0,19.25 0.34019,36.21408 0.75599,37.69795 0.6786,2.42178 1.29277,2.73552 6,3.06502 2.8842,0.20188 42.14401,0.45564 87.24401,0.56389 65.80856,0.15796 87.52878,-0.12695 110,-1.44293 z M 448,278.40135 c 6.325,-0.31644 46.6,-0.90885 89.5,-1.31646 58.88146,-0.55945 78.79001,-1.05003 81.22311,-2.00145 5.7793,-2.2599 7.34899,-6.36203 7.96616,-20.81821 0.88038,-20.62193 -1.69612,-42.94446 -6.03255,-52.26523 -0.64793,-1.39266 -3.37637,-3.60734 -6.15992,-5 L 609.5,194.5 h -47 c -40.80408,0 -48.51602,0.24256 -58.5,1.83998 -9.31466,1.49032 -20.05143,1.9662 -56.50047,2.50422 -44.93686,0.66331 -45.00507,0.66753 -48.25204,2.97957 -1.78836,1.27342 -3.71873,3.18823 -4.28971,4.25512 -2.11449,3.95096 -3.82868,64.42531 -1.9269,67.9788 0.56698,1.05942 2.70448,2.78635 4.75,3.83764 3.34935,1.72139 5.45902,1.87017 21.21912,1.4964 9.625,-0.22827 22.675,-0.67394 29,-0.99038 z m -72.36834,-1.56824 c 7.42035,-3.48798 7.63631,-4.52509 8.08631,-38.83311 0.30192,-23.01754 0.0988,-30.04027 -0.92441,-31.95862 -0.87285,-1.63646 -3.48197,-3.28592 -7.80246,-4.93264 l -6.4911,-2.47403 -61,0.21429 c -64.28819,0.22584 -152.00481,1.76486 -159.34234,2.79572 -7.0437,0.98958 -8.79808,3.35641 -11.12765,15.01236 C 135.38885,224.86859 135,230.7161 135,247.18458 c 0,23.30003 -0.0137,23.25458 8.25771,27.44601 l 5.11848,2.59373 90.0619,0.71764 c 49.53405,0.39471 99.62931,0.79423 111.32281,0.88784 19.91771,0.15945 21.55213,0.0333 25.87076,-1.99669 z M 495.5,187.73157 c 2.69773,-1.41492 4.56909,-4.16033 7.25,-10.63628 2.1192,-5.11907 2.25,-6.82595 2.25,-29.36079 0,-27.74956 0.0448,-27.6011 -9.77413,-32.42276 L 489.5,112.5 l -34,0.0945 c -31.71607,0.0882 -55.32666,1.31964 -66.88649,3.48862 C 385.92594,116.58741 359.51625,117 329.92531,117 l -53.80171,0 -4.427,2.75 -4.42701,2.75 -0.63479,8.90362 c -0.34914,4.897 -0.6348,18.43106 -0.6348,30.07569 0,20.68938 0.0513,21.21824 2.25,23.19761 3.93509,3.54254 5.00224,3.81051 17.75,4.45724 20.65504,1.04788 207.20917,-0.20108 209.5,-1.40259 z M 250.63626,186.2629 c 5.31263,-3.78952 6.46188,-8.44942 6.57818,-26.67279 0.075,-11.74812 -0.35093,-18.11402 -1.57828,-23.59011 -2.84703,-12.70265 -3.2055,-13.38502 -8.4002,-15.99053 -4.65289,-2.33375 -5.44635,-2.39059 -45.23596,-3.24068 -34.2733,-0.73224 -43.20634,-1.24221 -58.10268,-3.31703 C 127.2095,111.12742 123.79528,111 78.204484,111 c -46.697433,0 -48.190871,0.0594 -51.567518,2.05169 -2.038425,1.2027 -3.946006,3.37515 -4.609913,5.25 -1.279948,3.61453 -2.708853,50.84567 -1.664181,55.00797 0.366314,1.45951 2.076324,4.2599 3.800021,6.22308 6.36021,7.24388 2.588951,6.84613 70.504043,7.436 33.641814,0.29219 61.532744,0.89719 61.979834,1.34443 0.44709,0.44724 21.07197,0.67224 45.83306,0.5 44.76727,-0.31141 45.03779,-0.32574 48.15643,-2.55027 z m 124.9721,-80.81959 c 3.26245,-2.43604 6.38234,-8.058633 6.37798,-11.49423 -0.002,-1.346994 -0.33683,-15.532944 -0.74472,-31.524333 C 380.51269,33.847063 380.45837,33.288771 378.06731,29.801204 373.44566,23.060114 380.77597,23.548565 276,23 c -86.78299,-0.454361 -96.85687,-0.339598 -110.36531,1.257299 -13.81644,1.633307 -15.13959,1.974531 -18.75255,4.836044 -2.13797,1.69331 -4.06827,4.052525 -4.28954,5.242701 -3.81462,20.517836 -4.87251,32.375132 -4.22606,47.367581 0.7338,17.018532 1.35105,19.064735 6.56417,21.760545 7.88764,4.07885 14.91831,4.31593 123.74627,4.17282 103.46783,-0.13606 104.19573,-0.15099 106.93138,-2.19368 z M 526,102.49662 c 64.21232,-0.93137 91.73031,-1.66412 94.73557,-2.522619 3.63648,-1.038814 4.37827,-1.723675 5.24442,-4.841977 1.37079,-4.935051 1.32258,-60.502197 -0.0568,-65.469763 C 623.99471,22.717223 621.8259,22.292874 582,21.068247 541.14503,19.811977 496.18862,19.768483 446,20.93667 l -36.5,0.849571 -9,3.35688 -9,3.356879 -0.6511,5.5 c -0.99916,8.440043 -0.92592,41.430182 0.1139,51.313505 1.12024,10.647612 3.07036,14.419756 9.01167,17.431425 4.2027,2.13035 5.22222,2.2148 19.97712,1.65464 8.55163,-0.32466 56.27341,-1.18098 106.04841,-1.90295 z"
       id="path1" />
  </g>
</svg>
