<?xml version="1.0" encoding="UTF-8" standalone="no"?>
<!-- Created with Inkscape (http://www.inkscape.org/) -->

<svg
   version="1.1"
   id="svg1"
   width="764"
   height="511"
   viewBox="0 0 764 511"
   sodipodi:docname="dune.svg"
   inkscape:version="1.4.2 (f4327f4, 2025-05-13)"
   xml:space="preserve"
   xmlns:inkscape="http://www.inkscape.org/namespaces/inkscape"
   xmlns:sodipodi="http://sodipodi.sourceforge.net/DTD/sodipodi-0.dtd"
   xmlns="http://www.w3.org/2000/svg"
   xmlns:svg="http://www.w3.org/2000/svg"><defs
     id="defs1" /><sodipodi:namedview
     id="namedview1"
     pagecolor="#ffffff"
     bordercolor="#000000"
     borderopacity="0.25"
     inkscape:showpageshadow="2"
     inkscape:pageopacity="0.0"
     inkscape:pagecheckerboard="0"
     inkscape:deskcolor="#d1d1d1"
     inkscape:zoom="1.1418787"
     inkscape:cx="222.00257"
     inkscape:cy="229.88432"
     inkscape:window-width="2560"
     inkscape:window-height="1369"
     inkscape:window-x="-8"
     inkscape:window-y="-8"
     inkscape:window-maximized="1"
     inkscape:current-layer="g1" /><g
     inkscape:groupmode="layer"
     inkscape:label="Image"
     id="g1"><path
       style="fill:#000000"
       d="m 570.38946,398.80689 c -3.3,-0.16146 -20.35479,-0.79961 -37.89952,-1.4181 -17.54474,-0.6185 -33.06974,-1.26022 -34.5,-1.42605 -1.43027,-0.16583 -8.90048,-0.58911 -16.60048,-0.94062 -7.7,-0.35151 -16.475,-0.82982 -19.5,-1.0629 -3.025,-0.23308 -9.325,-0.67461 -14,-0.98119 -4.675,-0.30658 -11.425,-0.76171 -15,-1.0114 -6.86891,-0.47976 -15.47791,-1.01006 -33.5,-2.06357 -6.05,-0.35365 -13.25,-0.80526 -16,-1.00357 -2.75,-0.1983 -12.2,-0.82979 -21,-1.40331 -8.8,-0.57352 -18.475,-1.26428 -21.5,-1.53502 -3.025,-0.27075 -10.675,-0.74075 -17,-1.04446 -6.325,-0.3037 -18.25,-0.96957 -26.5,-1.47969 -8.25,-0.51013 -19.725,-1.17769 -25.5,-1.48347 -5.775,-0.30578 -12.3,-0.75641 -14.5,-1.0014 -2.2,-0.245 -12.55,-0.73463 -23,-1.08808 -10.45,-0.35345 -19.23825,-0.78193 -19.52944,-0.95218 -2.78864,-1.63046 -123.119591,-2.56833 -151.47056,-1.18058 -22.56839,1.1047 -49.4019,2.6576 -54.7499999,3.16846 -4.03143,0.3851 -4.75,0.18877 -4.75,-1.29779 0,-1.79162 13.2224699,-3.14551 45.4999999,-4.65889 5.5,-0.25787 15.4,-0.72245 22,-1.03239 14.885786,-0.69904 97.57923,-0.71686 110.5,-0.0238 17.57758,0.94283 40.47225,1.81052 44,1.66755 10.84045,-0.43934 40.77519,-5.93257 60.90613,-11.1767 15.90853,-4.14419 19.78506,-5.17372 26.09387,-6.93 3.575,-0.99523 9.425,-2.58478 13,-3.53234 14.53996,-3.85385 36.43576,-11.18299 62.25,-20.83684 3.7125,-1.38838 6.75,-2.30746 6.75,-2.04239 0,0.26507 0.9,2.7e-4 2,-0.58843 1.1,-0.5887 2,-0.70847 2,-0.26616 0,0.85462 -14.17153,7.43693 -25,11.61186 -8.64595,3.33346 -34.33781,11.57706 -53.5,17.16624 -3.3,0.96253 -8.00606,2.39254 -10.4579,3.17778 -11.59525,3.71358 -51.96809,12.91275 -59.35325,13.52396 -6.93737,0.57415 0.0405,1.57351 15.53117,2.22435 9.50399,0.39931 18.62998,0.86892 20.27998,1.04357 1.65,0.17465 9.975,0.59928 18.5,0.94361 18.50246,0.74733 21.34438,0.91698 76.5,4.56667 8.25,0.54591 25.8,1.6788 39,2.51753 13.2,0.83873 27.15,1.72858 31,1.97745 52.38134,3.38599 88.3731,3.94353 104.74919,1.62265 3.98794,-0.56519 10.62581,-1.30815 14.75081,-1.65102 9.03641,-0.7511 34.24671,-4.59748 52.90015,-8.07107 7.47992,-1.39288 15.84985,-2.93556 18.59985,-3.42817 2.75,-0.49261 8.6,-1.85362 13,-3.02447 4.4,-1.17085 9.8,-2.54716 12,-3.05847 2.2,-0.51131 4.675,-1.21025 5.5,-1.55321 0.825,-0.34296 2.34138,-0.78636 3.36974,-0.98533 1.02836,-0.19897 7.55336,-2.20972 14.5,-4.46832 6.94664,-2.2586 15.55526,-5.00988 19.13026,-6.11395 9.33035,-2.8815 22.95619,-7.61554 26.78393,-9.30557 1.80616,-0.79746 3.94366,-1.44993 4.75,-1.44993 11.9699,0 -50.10686,21.93917 -85.03393,30.05269 -4.95,1.14988 -11.7,2.72435 -15,3.49882 -21.12789,4.95846 -65.71831,12.14045 -78.38469,12.62508 -3.66957,0.1404 -3.18092,0.29408 2.38469,0.75 8.60324,0.70474 104.00905,0.42799 118.5,-0.34375 33.1447,-1.76516 75.22012,-4.92598 80.30932,-6.03304 1.37237,-0.29854 1.73461,0.12875 1.5,1.76935 -0.35449,2.47879 -2.84544,3.01056 -19.18773,4.09625 -5.43312,0.36094 -14.20812,1.05835 -19.5,1.54979 -5.29187,0.49144 -15.92159,1.18695 -23.62159,1.54559 -7.7,0.35864 -16.025,0.85357 -18.5,1.09985 -5.26626,0.52404 -105.67258,1.18043 -114.5,0.74853 z M 3.8897101,329.7315 c 2.3e-4,-1.65806 1.53301,-1.78135 21.7499999,-1.74938 11.96236,0.0189 24.67475,-0.27911 28.24975,-0.66228 3.575,-0.38317 11.675,-1.2263 18,-1.87363 6.325,-0.64733 15.325,-1.87322 20,-2.7242 4.675,-0.85099 9.4,-1.66672 10.5,-1.81274 19.05116,-2.52902 44.27797,-12.6805 45.77942,-18.42203 1.24867,-4.77494 -19.87005,-16.19354 -43.27942,-23.40058 -7.446527,-2.29256 -34.521611,-8.96172 -49,-12.06972 -4.125,-0.88549 -8.4,-2.04277 -9.5,-2.57172 -1.1,-0.52895 -3.8,-1.38553 -6,-1.9035 C 24.4936,258.79916 3.8894601,251.64466 3.8894601,249.8676 c 0,-1.00345 1.35274,-0.84232 5.7500001,0.68493 6.7182598,2.33337 27.5315798,8.21454 34.7499998,9.81923 2.75,0.61134 8.375,2.03564 12.5,3.1651 4.125,1.12947 9.975,2.66078 13,3.40292 3.025,0.74215 9.775,2.53425 15,3.98245 5.225,1.4482 11.3,3.02789 13.5,3.51043 33.65958,7.38278 58.05536,23.0973 50.84652,32.75276 -5.85947,7.84813 -39.02675,17.56468 -70.84652,20.75491 -28.01171,2.80843 -36.52639,3.35077 -54.25,3.45539 -18.8098399,0.11104 -20.2499799,-0.007 -20.2497499,-1.66422 z M 261.88946,257.17107 c -0.275,-0.2624 -9.275,-0.76492 -20,-1.11672 -10.725,-0.3518 -21.3,-0.81759 -23.5,-1.0351 -2.2,-0.21751 -9.625,-0.69405 -16.5,-1.05899 -6.875,-0.36494 -13.88473,-0.824 -15.57718,-1.02014 -3.9181,-0.45407 -25.20288,-2.3923 -32.42282,-2.95248 -9.99036,-0.77513 -35.78745,-4.1537 -57,-7.46512 -14.540911,-2.26993 -43.84186,-8.91416 -66.5,-15.07943 -1.65,-0.44896 -6.40498,-1.74116 -10.56661,-2.87156 -13.9970399,-3.80191 -15.4055299,-4.42843 -15.7713899,-7.01538 -0.26299,-1.85957 0.0216,-2.25193 1.28252,-1.76808 2.78845,1.07003 15.3670299,4.80897 16.9697299,5.0442 0.84032,0.12333 1.72836,0.42476 1.97342,0.66985 0.49939,0.49945 20.13821,-0.54738 28.61233,-1.52515 11.367932,-1.31167 41.943234,-6.78224 53.66849,-9.60244 6.69268,-1.60974 12.88018,-2.9268 13.75,-2.9268 0.86983,0 1.5815,-0.3375 1.58149,-0.75 -10e-6,-0.64808 -29.082288,-0.69248 -93.02964,-0.14204 -19.3071998,0.1662 -24.9703399,-0.51069 -24.9703399,-2.98456 0,-1.51389 0.79678,-1.61809 7.2499999,-0.94817 9.02601,0.93702 26.02437,0.83273 32.42791,-0.19894 2.65215,-0.42729 8.87209,-1.31451 13.82209,-1.97162 13.066694,-1.73457 38.809813,-8.4132 53,-13.74998 4.4,-1.65479 11.375,-4.24875 15.5,-5.76435 4.125,-1.51559 7.99898,-3.14832 8.60885,-3.62828 3.37239,-2.65405 12.94193,-4.68697 24.97761,-5.30615 34.28058,-1.76358 61.16509,-5.8634 95.41354,-14.55033 9.23401,-2.34215 13.66747,-2.91903 22.5,-2.9277 23.43613,-0.023 50.49353,-6.25529 75.85874,-17.47299 3.14466,-1.39072 7.28037,-2.82176 9.19046,-3.1801 1.91009,-0.35833 3.71948,-1.0505 4.02086,-1.53815 2.14651,-3.47312 25.69553,1.05401 78.42994,15.07758 53.8112,14.30993 51.42648,13.88145 63,11.31954 13.71204,-3.0353 25.84571,-2.58815 46.5,1.7136 8.25,1.71826 16.8,3.35213 19,3.63081 2.2,0.27869 7.17337,1.13686 11.05193,1.90706 3.87856,0.7702 11.30356,1.87785 16.5,2.46145 14.26866,1.60247 17.13451,1.938 20.94807,2.45257 3.69864,0.49906 9.69807,1.0758 21.98541,2.11352 4.11698,0.3477 9.7381,0.98828 12.49137,1.42352 4.65752,0.73625 5.59821,0.49397 13.51459,-3.48073 20.00932,-10.04639 17.68615,-9.5871 47.80708,-9.45157 14.68585,0.0661 31.53905,0.0977 37.45155,0.0702 10.75,-0.0499 10.75,-0.0499 10.75,2.40964 0,2.45957 0,2.45957 -34.75,1.99698 -19.1125,-0.25442 -34.075,-0.084 -33.25,0.3788 8.93187,5.01011 38.68701,9.72948 63.25,10.03189 4.23551,0.0521 8.14358,5.98686 4,6.07431 -0.85697,0.0181 -21.00456,1.70495 -29.25,2.44897 -27.98954,2.5256 -89.46972,3.78107 -106,2.16459 -5.89422,-0.57639 -21.93736,-1.78542 -28.5,-2.14779 -14.98356,-0.82735 -40.25016,-4.39236 -50,-7.05478 -2.75,-0.75095 -6.575,-1.62699 -8.5,-1.94675 -7.15368,-1.18831 -18.60206,-3.61207 -21.72674,-4.59981 -1.77471,-0.56101 -4.52567,-1.1844 -6.11325,-1.38532 -1.58758,-0.20092 -6.21054,-1.27141 -10.27326,-2.37887 -4.06271,-1.10747 -10.76175,-2.88756 -14.88675,-3.95578 -4.125,-1.06821 -15.825,-4.2042 -26,-6.96887 -18.87073,-5.1274 -65.69815,-16.80732 -78.69741,-19.62907 -9.91346,-2.15193 -17.6103,-2.12496 -14.80259,0.0519 10.51806,8.15466 50.15148,20.82975 74.5,23.8257 2.475,0.30453 5.85,0.81629 7.5,1.13724 1.65,0.32095 7.95,1.47761 14,2.57035 18.50627,3.34258 19.62223,3.57562 32,6.6824 18.29443,4.59184 23.86053,6.3296 25.5,7.96122 1.33241,1.32603 1.2941,1.42062 -0.3429,0.84658 -1.0136,-0.35543 -2.8136,-0.83001 -4,-1.05462 -5.7438,-1.08741 -14.79465,-2.88972 -20.6571,-4.11348 -7.65493,-1.59792 -23.85194,-4.66857 -26,-4.9291 -0.825,-0.10007 -2.175,-0.45132 -3,-0.78057 -0.825,-0.32925 -3.96383,-0.88886 -6.97517,-1.2436 -9.97997,-1.17561 -35.52778,-6.18643 -47.02483,-9.2232 -9.33554,-2.46583 -15.39134,-4.09904 -18,-4.85446 -2.5,-0.72396 -2.5,-0.72396 0.18638,2.16868 6.33898,6.8257 5.13971,13.07676 -3.01668,15.72411 -4.6697,1.51566 -4.6697,1.51566 -1.20747,-1.4079 1.90422,-1.60796 3.7864,-2.92356 4.18261,-2.92356 7.24111,0 -2.23845,-11.91856 -15.05638,-18.93025 -4.72365,-2.58393 -11.03069,-6.2807 -14.01564,-8.21504 -5.42718,-3.51698 -5.42718,-3.51698 -16,1.1551 -14.60197,6.45254 -32.68008,11.77712 -47.57282,14.01171 -4.4,0.6602 -9.125,1.38574 -10.5,1.61231 -1.375,0.22658 -7,0.60766 -12.5,0.84684 -5.5,0.23919 -10.34906,0.45389 -10.77568,0.47711 -1.18092,0.0643 1.8436,5.31237 4.19692,7.28243 2.40729,2.01524 2.70887,3.75979 0.64996,3.75979 -2.58421,0 -8.5712,-6.54077 -8.5712,-9.364 0,-2.62785 0,-2.62785 -5.25,-0.60981 -4.64299,1.78472 -9.49242,3.0723 -26.75,7.10248 -16.53361,3.8611 -27.22502,9.43231 -23.5,12.24566 3.12873,2.36299 19.59409,7.82469 27.79351,9.21934 2.17182,0.3694 3.62738,1.12854 3.40488,1.77578 -0.47169,1.37212 -11.17695,1.19623 -14.15328,-0.23253 -1.12481,-0.53996 -5.23065,-1.90624 -9.1241,-3.03617 -11.14112,-3.23332 -15.23611,-8.70197 -10.40176,-13.89104 2.01925,-2.16741 2.01925,-2.16741 -0.75,-1.7179 -16.10876,2.61481 -26.32735,3.59793 -52.51925,5.05281 -6.4625,0.35897 -11.75,1.07428 -11.75,1.58957 0,1.25951 8.23219,4.7194 13.06938,5.49289 2.14108,0.34238 4.40646,1.24134 5.03419,1.99771 3.20355,3.86005 -14.74838,-0.21631 -19.62467,-4.45619 -2.6532,-2.30692 -2.6532,-2.30692 -6.92498,-0.29895 -18.30423,8.60401 -43.637046,16.96076 -64.05392,21.13002 -13,2.65469 -13,2.65469 23.5,2.46034 34.06223,-0.18138 44.77331,-0.73394 46,-2.37305 1.57151,-2.09986 31.45223,-10.96807 32.71185,-9.70844 1.34661,1.34661 -1.98548,3.07529 -13.9302,7.22692 -6.75491,2.34781 -11.60665,4.34627 -10.78165,4.44102 3.5887,0.41217 29.70368,0.56821 31.68104,0.18929 2.05783,-0.39434 1.98722,-0.58813 -1.25,-3.43044 -10.27724,-9.02354 -0.50905,-11.21946 28.41539,-6.38787 4.75946,0.79503 10.67857,1.78204 13.15357,2.19336 8.79085,1.46093 17.23186,0.2935 26.5,-3.66508 1.1,-0.46983 5.825,-2.18067 10.5,-3.80187 12.21669,-4.23651 31.24842,-11.69494 35.15432,-13.77678 1.84012,-0.98078 3.57068,-1.82751 3.84568,-1.88161 4.3737,-0.8605 7,-1.82282 7,-2.56492 0,-1.53125 1.83467,-1.05 5.98481,1.56987 2.67862,1.69094 3.76146,2.01196 3.37314,1 -0.79318,-2.06698 2.55652,-1.93781 11.16215,0.43044 17.56751,4.83454 51.5769,10.57556 69.8506,11.79126 13.41647,0.89256 22.78847,0.87645 49.1293,-0.0844 27.69664,-1.01036 39.6573,-0.92338 46,0.33452 7.15447,1.41888 36.811,5.24878 51,6.58622 3.3,0.31105 9.6,0.9801 14,1.48677 12.14406,1.39841 17.69572,1.81204 33.5,2.49591 7.975,0.34508 18.1,0.85516 22.5,1.1335 26.9489,1.70476 135.91123,0.96781 151.25,-1.02295 3.9173,-0.50841 4.79946,2.75637 1,3.70089 -9.77742,2.43061 -119.40185,3.27204 -154.75,1.1878 -4.675,-0.27565 -13.225,-0.75054 -19,-1.0553 -26.61675,-1.40464 -46.02707,-3.023 -59.01655,-4.92059 -1.9159,-0.27989 -5.50845,-0.7362 -7.98345,-1.01403 -2.475,-0.27783 -9.64639,-1.18808 -15.93642,-2.02277 -6.29003,-0.8347 -12.14003,-1.50395 -13,-1.48722 -7.78735,0.15145 30.51378,8.30986 44.43642,9.46528 4.4,0.36514 12.95,1.14327 19,1.72916 6.59563,0.63873 50.53922,1.21681 109.75,1.44376 86.23984,0.33056 98.75,0.56555 98.75,1.85495 0,1.28586 -8.55146,1.49183 -66.25,1.59564 -76.5057,0.13765 -75.61677,-0.2684 -17.25,7.87952 17.97823,2.50974 61.2482,5.14505 82.25,5.00936 0.6875,-0.004 1.25,0.96006 1.25,2.14333 0,2.15141 0,2.15141 -20.25,1.49625 -43.84389,-1.41851 -97.30033,-7.62146 -115.00839,-13.34529 -5.74239,-1.85613 -9.17369,-0.80362 -14.39181,4.4145 -9.68021,9.6802 0.18635,21.75609 24.23577,29.66268 24.12957,7.93294 65.12293,10.13605 103.91443,5.58469 9.35,-1.09703 17.89978,-2.10027 18.99952,-2.22942 1.35482,-0.15911 2.09467,0.4294 2.29466,1.82525 0.30355,2.11873 -9.45648,3.6672 -37.79418,5.99621 -45.68527,3.75476 -95.67969,-3.97856 -109.68691,-16.96678 -1.53596,-1.42423 -3.05189,-2.5895 -3.36873,-2.5895 -1.43299,0 -5.45117,-8.96021 -5.92224,-13.2061 -0.52212,-4.70616 -0.52212,-4.70616 -3.52212,-3.36488 -42.58161,19.03793 -96.71331,28.64405 -197.5,35.04802 -4.125,0.26211 -12.45,0.74336 -18.5,1.06946 -6.05,0.32611 -14.375,0.77617 -18.5,1.00014 -12.13007,0.65863 -108.45315,1.69843 -109,1.17665 z m 106,-4.31252 c 6.875,-0.31842 16.1,-0.73315 20.5,-0.92161 14.85319,-0.6362 48.12934,-2.88538 59,-3.98789 2.2,-0.22313 7.15,-0.6738 11,-1.00149 7.69124,-0.65464 11.51388,-1.0878 22,-2.49288 3.85,-0.51587 9.7,-1.19051 13,-1.49919 3.3,-0.30867 10.05,-1.2694 15,-2.13495 4.95,-0.86555 10.35,-1.78222 12,-2.03706 24.77409,-3.82628 62.24768,-13.667 76.5,-20.08921 29.96002,-13.50025 36.67093,-12.2261 -63.5,-12.0562 -47.3,0.0802 -84.2,0.29347 -82,0.47388 10.44861,0.85682 14.5,1.56628 14.5,2.53918 0,1.45729 -28.65119,0.30075 -41,-1.65502 -9.49059,-1.5031 -14.54261,-1.57738 -98,-1.44102 -28.59018,0.0467 -18.79576,2.65837 24,6.39955 3.575,0.31252 10.325,0.98828 15,1.50168 4.675,0.5134 11.65,1.21954 15.5,1.56919 3.85,0.34966 8.125,0.74226 9.5,0.87246 1.375,0.13019 3.85,0.32083 5.5,0.42364 2.7013,0.16833 2.8102,0.29713 1.09371,1.29368 -3.1805,1.84653 -28.53097,0.20818 -72.09371,-4.65926 -2.75,-0.30727 -9.275,-1.20923 -14.5,-2.00436 -5.225,-0.79512 -13.325,-1.89153 -18,-2.43645 -4.675,-0.54493 -12.325,-1.50421 -17,-2.13174 -8.06067,-1.082 -75.63116,-1.63792 -76.63855,-0.63053 -0.59797,0.59797 34.09545,15.11906 35.37805,14.80764 0.32953,-0.08 3.04889,0.8179 7.55464,2.49448 3.19131,1.18748 10.87037,3.20446 30.20586,7.93386 1.65,0.40359 4.32234,0.90242 5.93853,1.10852 1.61619,0.2061 4.54119,0.78773 6.5,1.29252 1.95881,0.50478 7.16147,1.23324 11.56147,1.6188 9.3702,0.82107 12.5,1.8065 12.5,3.93565 0,4.08842 -53.46706,10.94835 -70.5,9.04529 -9.22999,-1.03125 -6.32939,-2.08192 8,-2.89781 24.52109,-1.39618 52.39262,-5.72746 45,-6.99306 -2.2,-0.37664 -6.925,-1.19208 -10.5,-1.81209 -3.575,-0.62002 -11.45,-2.41504 -17.5,-3.98895 -6.05,-1.57391 -11.73069,-3.04727 -12.62377,-3.27413 -5.8061,-1.47492 -22.50323,-6.8062 -28.37623,-9.06034 -3.85,-1.47768 -8.8,-3.34871 -11,-4.15782 -2.2,-0.80912 -8.0022,-3.47423 -12.89377,-5.92248 -12.7703,-6.39155 -51.95012,-7.00884 -72.60623,-1.14392 -18.89703,5.36546 -32.407018,8.38256 -50,11.16619 -9.973119,1.57798 -12.940817,1.95732 -27.36819,3.49828 -11.2124,1.19757 -11.30563,1.36889 -1.89581,3.48394 4.2702,0.95981 9.114,2.13149 10.764,2.60373 13.899023,3.97798 68.41087,13.04245 93,15.46444 7.61425,0.75 26.44804,2.57383 30.5,2.95358 4.74393,0.4446 26.34211,2.22316 36.5,3.00569 3.3,0.25422 18.15,0.76012 33,1.12422 14.85,0.36411 27.19425,0.83673 27.43167,1.05028 0.57129,0.51386 74.09061,-0.49088 90.06833,-1.23091 z m -34.08333,-49.36261 c 3.52916,-0.0265 6.17817,-0.2867 5.88668,-0.57819 -0.29149,-0.29149 -10.60399,-0.56603 -22.91667,-0.61009 -22.05429,-0.0789 -33.44631,-1.02558 -35.36338,-2.93867 -0.63429,-0.63297 1.64446,-0.77418 6.5,-0.40279 4.11218,0.31453 17.47233,0.55225 29.6892,0.52826 21.28524,-0.0418 22.29393,0.0438 24.16309,2.0501 1.82848,1.96265 17.36157,3.1107 20.00268,1.4784 0.38054,-0.23518 3.3761,-0.7172 6.65681,-1.07114 3.28071,-0.35395 6.75242,-0.86749 7.71492,-1.1412 1.09498,-0.31139 1.75,0.049 1.75,0.96273 0,2.09816 1.57134,2.35539 10,1.637 4.125,-0.35158 6.375,-0.74643 5,-0.87744 -1.375,-0.13101 -3.175,-0.3893 -4,-0.57397 -0.825,-0.18467 -7.08183,-1.53153 -13.90406,-2.99303 -10.77071,-2.30735 -38.74139,-10.76418 -44.59594,-13.48341 -1.1,-0.51091 -5.15,-2.35622 -9,-4.10068 -3.85,-1.74447 -8.96628,-4.48936 -11.36952,-6.09975 -3.87502,-2.59664 -4.55403,-2.76283 -6,-1.46853 -3.2423,2.90221 -40.6688,18.29234 -53.60333,22.04219 -4.85525,1.40759 -8.9994,2.73092 -9.20921,2.94073 -0.20981,0.20981 3.79532,0.92395 8.90029,1.58698 5.10498,0.66303 11.08177,1.44011 13.28177,1.72684 10.01008,1.30464 23.61046,1.82197 43,1.63566 11.55,-0.11099 23.8875,-0.22349 27.41667,-0.25 z m 197.08333,-1.08155 c -3.025,-0.42116 -7.75,-1.02696 -10.5,-1.34623 -13.87063,-1.61036 -38.73066,-8.36555 -43.83918,-11.91238 -2.52324,-1.75188 -3.9142,-1.90314 -12.5,-1.35929 -39.98026,2.53246 -65.05081,2.60096 -82.66082,0.22586 -2.2,-0.29672 -6.025,-0.81412 -8.5,-1.14978 -6.69104,-0.90742 -26.99458,-4.94604 -39.5,-7.85703 -16.61665,-3.86798 -16.54717,-3.8586 -12.5,-1.68871 9.2901,4.98089 46.15707,16.45128 66,20.53453 4.125,0.84884 10.65,2.27419 14.5,3.16745 4.93384,1.14474 14.52672,1.81521 32.5,2.27152 32.35629,0.82147 104.52902,0.16229 97,-0.88594 z m 114.7909,-21.09235 c 7.20383,-2.28244 9.21749,-3.38882 6.44481,-3.54102 -0.95464,-0.0524 -3.53571,-0.34098 -5.73571,-0.64129 -2.2,-0.30032 -8.725,-0.83681 -14.5,-1.19221 -21.52461,-1.32466 -49.092,-5.33299 -83.34052,-12.11779 -15.75756,-3.12164 -23.28157,-3.96079 -16.48484,-1.83853 1.27895,0.39935 2.55036,1.00294 2.82536,1.34131 0.275,0.33837 3.425,1.90373 7,3.47858 14.18821,6.25016 15.54743,6.9819 13.73026,7.39174 -2.19428,0.4949 -14.78686,-3.32729 -17.34623,-5.26505 -1.03622,-0.78454 -2.55903,-1.44269 -3.38403,-1.46255 -0.825,-0.0199 -3.81105,-1.78832 -6.63567,-3.92992 -5.13567,-3.89381 -5.13567,-3.89381 -14,-2.20197 -8.86433,1.69183 -8.86433,1.69183 6.13567,5.39508 8.25,2.03679 19.95,5.06177 26,6.72218 9.72046,2.66777 14.10283,3.49946 28.5,5.40879 5.49548,0.72881 40.73866,3.55258 48.5,3.88595 3.85,0.16537 8.93091,0.38881 11.2909,0.49653 2.36,0.10772 7.31,-0.7607 11,-1.92983 z"
       id="path2" /></g></svg>
