<?xml version="1.0" encoding="UTF-8" standalone="no"?>
<!-- Created with Inkscape (http://www.inkscape.org/) -->

<svg
   version="1.1"
   id="svg1"
   width="1150"
   height="843"
   viewBox="0 0 1150 843"
   sodipodi:docname="ore.svg"
   xml:space="preserve"
   inkscape:version="1.4.2 (f4327f4, 2025-05-13)"
   xmlns:inkscape="http://www.inkscape.org/namespaces/inkscape"
   xmlns:sodipodi="http://sodipodi.sourceforge.net/DTD/sodipodi-0.dtd"
   xmlns="http://www.w3.org/2000/svg"
   xmlns:svg="http://www.w3.org/2000/svg"><defs
     id="defs1" /><sodipodi:namedview
     id="namedview1"
     pagecolor="#ffffff"
     bordercolor="#000000"
     borderopacity="0.25"
     inkscape:showpageshadow="2"
     inkscape:pageopacity="0.0"
     inkscape:pagecheckerboard="0"
     inkscape:deskcolor="#d1d1d1"
     inkscape:zoom="0.69217082"
     inkscape:cx="682.63496"
     inkscape:cy="600.28535"
     inkscape:window-width="2560"
     inkscape:window-height="1369"
     inkscape:window-x="-8"
     inkscape:window-y="-8"
     inkscape:window-maximized="1"
     inkscape:current-layer="g1" /><g
     inkscape:groupmode="layer"
     inkscape:label="Image"
     id="g1"><path
       style="fill:#000000"
       d="m 335.73519,720.10682 c -4.9083,-2.5587 -19.2741,-10.2658 -31.9241,-17.127 -12.65004,-6.8611 -26.37504,-14.2645 -30.50004,-16.4519 -4.125,-2.1873 -10.85836,-5.792 -14.96302,-8.01026 l -7.46303,-4.03327 -39.26768,-2.26922 -39.26768,-2.26922 -19.76929,-15.27835 C 75.984493,595.47186 34.634913,563.2526 33.561053,561.9287 c -0.6875,-0.84757 -1.25,-2.63713 -1.25,-3.9768 0,-2.82138 -0.59406,-1.72026 37.32377,-69.18198 15.92047,-28.325 34.120417,-60.725 40.444337,-72 6.32392,-11.275 12.81046,-22.82591 14.41453,-25.6687 1.60408,-2.84278 3.60687,-5.74164 4.45063,-6.44191 1.57251,-1.30506 90.38147,-8.25536 97.13855,-7.60217 l 3.27182,0.31627 10.8098,-19.05174 c 5.94539,-10.47846 14.75718,-26.12283 19.58175,-34.76526 4.82456,-8.64242 9.3638,-16.2047 10.08719,-16.80506 0.74628,-0.61936 15.5178,-2.11401 34.14646,-3.45509 l 32.8312,-2.36352 33.5,-18.92254 c 18.425,-10.4074 46.55,-26.2587 62.5,-35.2251 15.95,-8.96641 29.5661,-16.82008 30.258,-17.4526 0.7405,-0.67694 2.7186,-11.82785 4.8085,-27.10631 1.9528,-14.27595 4.1582,-26.8904 4.9009,-28.0321 1.3135,-2.01901 28.1978,-9.1868 123.7165,-32.98479 l 18.6839,-4.655 24.8161,11.06081 c 39.1431,17.44654 74.6791,33.58894 76.3161,34.66699 0.825,0.5433 6.7492,6.61282 13.165,13.48782 11.3194,12.1295 11.8635,12.55928 18.3598,14.5 l 6.6946,2 11.1403,24.90124 11.1403,24.90124 14.2295,11.43826 14.2295,11.43826 18.2705,-1.16024 18.2705,-1.16024 28.8337,13.07074 c 15.8585,7.18891 29.1676,13.07074 29.5757,13.07074 0.4081,0 1.7696,1.09384 3.0256,2.43076 l 2.2835,2.43077 -1.2181,31.62707 c -0.6699,17.39489 -0.9977,31.84744 -0.7283,32.11679 0.2693,0.26934 2.9621,-0.7229 5.984,-2.20498 l 5.4944,-2.69469 48.656,3.45613 c 44.20831,3.1402 48.83051,3.63355 50.56641,5.39714 1.0507,1.06755 7.1593,11.39101 13.5746,22.94101 6.4153,11.55 18.7726,33.6 27.4607,49 55.8466,98.99097 56.6397,100.51336 54.2265,104.08837 -0.4041,0.5986 -26.1597,20.80649 -57.2347,44.90642 -31.075,24.09993 -61.22501,47.49861 -67.00001,51.99706 -5.775,4.49846 -11.7023,8.95673 -13.1717,9.90729 -2.6753,1.73058 -17.1561,2.87989 -65.1149,5.16801 l -14.7866,0.70547 -3.9638,8.30491 c -2.1801,4.56767 -4.4034,8.57657 -4.9406,8.90857 -0.5373,0.3321 -5.8246,0.6482 -11.7496,0.7026 -21.6264,0.1984 -159.3876,-1.4144 -180.7728,-2.1163 l -22,-0.7221 -7,4.515 -7,4.515 -65.4851,6.1883 c -36.0167,3.4035 -66.1667,5.9703 -67,5.7039 -0.8332,-0.2664 -4.4399,-3.6018 -8.0149,-7.4121 l -6.5,-6.9277 -20.5,13.708 -20.5,13.7079 -50,2.2351 c -27.5,1.2294 -54.9842,2.4984 -61.0759,2.8202 l -11.0759,0.585 z m 79.0271,-4.3902 c 24.7232,-1.1087 45.1551,-2.2197 45.4042,-2.4688 0.4603,-0.4603 -10.4384,-24.3686 -11.72,-25.7098 -0.3846,-0.4026 -20.4702,1.9876 -44.6348,5.3114 -46.5231,6.3993 -47.8335,6.4449 -49.0144,1.7045 -0.313,-1.2562 2.8469,-20.23917 7.022,-42.18438 4.1751,-21.9452 7.2312,-40.22594 6.7914,-40.62385 -1.2726,-1.15141 -39.7556,-27.53543 -71.2996,-48.88319 -9.07504,-6.14159 -17.861,-12.73802 -19.5244,-14.65872 l -3.02436,-3.49219 -7.62695,5.27917 c -4.19482,2.90354 -22.2695,15.85416 -40.16595,28.77916 -37.75522,27.2672 -33.79621,21.26375 -30.32997,45.99239 l 2.17159,15.49239 33.5,18.04429 c 18.425,9.92435 35.75,19.32666 38.5,20.89401 2.75,1.56732 11.3,6.12462 19,10.12722 7.70004,4.0026 23.22504,12.2815 34.50004,18.3975 l 20.5,11.12 12.5,-0.5527 c 6.875,-0.3039 32.728,-1.4597 57.4512,-2.5684 z m 91.1857,-29.5572 c 36.5417,-24.32466 38.4469,-25.74305 37.9459,-28.25001 -0.2902,-1.45172 -2.3945,-13.66449 -4.6763,-27.13949 -2.2819,-13.475 -4.2653,-24.63353 -4.4077,-24.79674 -0.3197,-0.3663 -78.3207,24.71638 -80.7488,25.96629 -1.5944,0.82071 -1.75,3.07478 -1.75,25.3475 v 24.44665 l 4.1136,8.7682 c 2.2626,4.8224 5.4171,11.5806 7.01,15.0181 1.593,3.4375 3.1536,6.25 3.4681,6.25 0.3144,0 17.8848,-11.5247 39.0452,-25.6105 z m 49.3631,11.6278 c 50.9375,-4.6057 86.4206,-8.1046 86.8832,-8.5672 1.0965,-1.0965 2.0379,-0.4893 -61.8832,-39.92306 -14.025,-8.65221 -27.2379,-16.85002 -29.3619,-18.21735 -6.0203,-3.87564 -6.329,-2.59542 -3.4721,14.40036 1.3673,8.13447 2.2849,15.5848 2.0391,16.55627 -0.2458,0.97148 -3.9061,4.20409 -8.134,7.18358 l -7.6871,5.41725 -3.192,11.40415 c -4.0571,14.4949 -4.0562,14.7243 0.058,14.1465 1.7875,-0.251 12.925,-1.3313 24.75,-2.4005 z m -31.3525,-9.3402 c 1.1927,-4.4974 2.0726,-8.2769 1.9553,-8.3989 -0.2253,-0.2345 -10.4839,6.43 -11.9797,7.7826 -0.4823,0.4361 0.8188,2.8623 2.8913,5.3915 2.0724,2.5292 4.0373,4.3293 4.3664,4.0002 0.329,-0.329 1.5741,-4.278 2.7667,-8.7754 z m -120.1813,-1.2248 c 22.5686,-3.0513 41.6043,-5.7402 42.3016,-5.9755 0.9872,-0.333 1.2085,-5.80114 1,-24.70226 l -0.2678,-24.27454 -35,-8.70509 c -19.25,-4.7878 -35.48,-8.7253 -36.0666,-8.75 -0.5867,-0.0247 -1.8812,4.34259 -2.8768,9.70509 -0.9955,5.3625 -4.228,22.31787 -7.1834,37.67859 -2.9553,15.36073 -5.3732,28.52321 -5.3732,29.25001 0,0.7268 0.5473,1.3214 1.2162,1.3214 0.6689,0 19.6814,-2.4965 42.25,-5.5477 z m 252.3036,-0.8086 c 4.5913,-2.9002 75.5895,-49.74178 76.0915,-50.20184 0.3714,-0.34042 -6.9942,-56.64298 -7.4984,-57.31743 -0.1544,-0.20656 -1.5367,1.1302 -3.0718,2.97059 -14.2073,17.0326 -67.8107,77.71819 -69.6116,78.80874 -2.8758,1.74148 -7.2327,0.79964 -8.6629,-1.87266 -0.5726,-1.0699 -3.0726,-15.55159 -5.5555,-32.18151 -2.483,-16.62993 -4.6566,-30.37843 -4.8304,-30.55221 -0.365,-0.36497 -79.8778,27.67388 -80.6307,28.43303 -0.275,0.27729 0.175,0.927 1,1.44381 0.825,0.51682 21.75,13.48363 46.5,28.81514 30.9876,19.19546 45.6227,28.81874 47,30.90454 2.4268,3.6755 4.3872,3.8341 9.2698,0.7498 z m 214.7093,-3.61 c 0.3285,-0.5315 -2.0074,-2.3605 -5.1909,-4.06444 -6.525,-3.49244 -19.0247,-10.97064 -27.3537,-16.36482 -3.0611,-1.98244 -5.896,-3.60444 -6.2999,-3.60444 -0.4039,0 -9.0279,-4.92211 -19.1645,-10.93802 l -18.4301,-10.93802 -7.27,2.37739 c -3.9985,1.30757 -18.745,6.04619 -32.77,10.53026 -14.025,4.48407 -29.522,9.45218 -34.4377,11.04024 -8.1718,2.63993 -9.1839,2.76455 -11.8105,1.45423 -2.8192,-1.40641 -3.1467,-1.2522 -17.5623,8.27039 l -14.6895,9.70353 56,0.7558 c 54.8229,0.7399 136.3212,2.2701 137.6909,2.5852 0.3801,0.087 0.9598,-0.2758 1.2882,-0.8073 z m 11.2669,-6.94486 1.3364,-5.27458 -16.6921,-37.45622 c -10.1543,-22.78569 -17.1426,-37.28336 -17.8422,-37.0149 -0.6325,0.24272 -11.8271,8.67375 -24.8768,18.73561 -18.6196,14.3564 -23.4518,18.54423 -22.4491,19.45537 0.7028,0.63859 14.7778,9.19669 31.2778,19.01801 16.5,9.82132 31.8652,19.1149 34.145,20.65241 2.2798,1.5375 4.5298,2.81164 5,2.83142 0.4702,0.0198 2.205,1.1424 3.855,2.49474 1.65,1.3523 3.4297,2.3179 3.9548,2.1457 0.5252,-0.1721 1.5562,-2.68654 2.2912,-5.58756 z m -644.82937,-8.45547 c -0.22917,-0.20164 -9.41667,-5.19839 -20.41667,-11.10389 -11,-5.90549 -20.76183,-11.47801 -21.69296,-12.38337 -1.24885,-1.21428 -2.38894,-6.709 -4.34598,-20.94566 -1.45915,-10.61475 -2.38906,-20.28975 -2.06646,-21.5 0.3226,-1.21025 3.10577,-3.99561 6.18481,-6.18968 3.07905,-2.19408 5.79123,-4.30146 6.02707,-4.68306 0.23584,-0.3816 -8.01663,3.17216 -18.33884,7.89724 -21.20819,9.70825 -24.71544,10.60243 -27.87222,7.10604 -2.23766,-2.47838 -19.17051,-30.64086 -24.33265,-40.46972 -3.54701,-6.75362 -5.06112,-9.22954 -6.81277,-11.14047 -0.6875,-0.75001 -1.25,-1.95141 -1.25,-2.66978 0,-0.71837 -0.66132,-1.85498 -1.46961,-2.5258 -2.22724,-1.84844 -9.53039,-14.94036 -9.53039,-17.08455 0,-1.97427 1.67498,-5.93125 9.4991,-22.44067 2.60655,-5.5 6.18624,-13.15 7.95487,-17 4.53952,-9.88174 4.57444,-9.90019 17.31829,-9.15206 5.90026,0.34638 30.75274,1.77137 55.22774,3.16665 24.475,1.39529 45.3058,2.99055 46.29068,3.54502 0.98487,0.55448 2.24071,0.73 2.79076,0.39006 0.55005,-0.33995 7.72267,0.62887 15.93917,2.15294 8.21649,1.52407 15.2454,2.46472 15.61979,2.09032 0.84973,-0.84973 3.48324,-66.19779 3.12387,-77.51598 l -0.26427,-8.32306 -26.83707,-12.00654 c -14.76039,-6.6036 -26.96033,-11.85822 -27.11098,-11.67695 -0.15064,0.18128 1.25253,7.0796 3.11817,15.3296 1.86564,8.25 3.81766,17.475 4.33783,20.5 0.52016,3.025 3.27706,18.18328 6.12645,33.68507 4.95739,26.97011 5.10827,28.29563 3.5001,30.75 -1.23519,1.88515 -2.53584,2.56032 -4.90755,2.54755 -2.83114,-0.0153 -6.35471,-2.96878 -28.72695,-24.07952 -16.3426,-15.42109 -25.8436,-25.11091 -26.4568,-26.98261 -0.66388,-2.02641 -1.61574,-2.92049 -3.10921,-2.92049 -1.18382,0 -4.12827,-1.72267 -6.5432,-3.82816 -2.41493,-2.10549 -12.94079,-10.89446 -23.39079,-19.53104 -10.45,-8.63658 -19.73955,-17.05711 -20.64344,-18.7123 l -1.64343,-3.00942 -1.9827,3.29046 c -2.66159,4.41714 -47.699007,84.50354 -72.790617,129.43766 -11.1017,19.88096 -19.90477,36.55928 -19.56236,37.06293 0.56211,0.82683 22.95467,18.2702 108.616547,84.61019 26.68434,20.66543 28.2048,21.68387 32.5,21.76929 2.4783,0.0493 13.281,0.66142 24.006,1.3603 20.19541,1.316 34.64011,1.82002 33.91667,1.18346 z m 690.08337,-4.63337 c 17.875,-1.07851 34.3,-1.97364 36.5,-1.98918 3.6277,-0.0256 5.9547,-1.54577 25,-16.3312 11.55001,-8.96661 41.25001,-31.97934 66.00001,-51.1394 24.75,-19.16006 46.1867,-35.93031 47.637,-37.26722 l 2.6371,-2.43075 -23.2769,-41.67113 c -12.8023,-22.91911 -25.9485,-46.39612 -29.2138,-52.17112 -3.2653,-5.775 -13.2627,-23.55 -22.2165,-39.5 -8.9538,-15.95 -17.2005,-30.51438 -18.326,-32.36528 l -2.0465,-3.36529 -1.0972,2.50549 c -1.5061,3.43917 -47.38351,41.70792 -50.84721,42.41427 -1.7551,0.35793 -2.75,1.20224 -2.75,2.33386 0,0.97517 -6.6215,8.16651 -14.7145,15.98075 l -14.7145,14.20771 -4.7208,10.62564 c -2.5964,5.84411 -4.6287,10.71768 -4.5162,10.83016 0.1124,0.11247 20.578,-0.97199 45.4789,-2.40993 44.71021,-2.58184 45.29801,-2.59039 47.16071,-0.6859 2.4081,2.46213 22.0264,44.64358 22.0264,47.35915 0,2.19065 -3.1873,7.86016 -11.5638,20.56937 -2.9,4.4 -7.0766,11.40963 -9.2815,15.57695 -5.0336,9.51409 -20.82951,35.83528 -22.90841,38.17305 -0.856,0.9625 -2.6464,1.75 -3.9789,1.75 -1.3324,0 -21.5755,-8.56218 -44.9846,-19.02707 -23.4091,-10.46489 -42.7411,-18.84798 -42.96,-18.62908 -0.3948,0.39481 -6.2806,80.58891 -6.3083,85.9516 -0.01,1.5687 -1.0243,3.80529 -2.3157,5.0966 -1.8676,1.86761 -2.1345,2.80102 -1.4166,4.95454 1.0886,3.26606 -1.0331,3.23283 41.7178,0.65341 z m -175,-18.23942 c 20.625,-6.61126 38.0292,-12.52449 38.676,-13.14052 0.8304,-0.79084 1.2591,-9.05328 1.4586,-28.10984 l 0.2825,-26.98977 -3.546,-0.57639 c -1.9503,-0.31701 -4.9261,-1.55911 -6.613,-2.76022 -1.6868,-1.20111 -4.3474,-2.1777 -5.9125,-2.17019 -4.1868,0.0201 -45.2841,5.59151 -45.9175,6.22486 -0.2974,0.29741 1.2441,13.71072 3.4255,29.80736 2.1815,16.09664 3.6411,30.14589 3.2435,31.22057 -0.3975,1.07468 -6.7695,5.9855 -14.16,10.91294 -7.3904,4.92743 -12.3121,8.65358 -10.9371,8.28032 1.375,-0.37326 19.375,-6.08786 40,-12.69912 z m -67.9928,-28.32692 c 18.971,-21.76149 34.4928,-40.08286 34.4928,-40.71416 0,-0.71422 -2.4554,-1.26496 -6.5,-1.45792 -50.0944,-2.39001 -66.6174,-2.98305 -67.2158,-2.41253 -0.3937,0.37535 -2.0904,5.14834 -3.7706,10.60665 l -3.0549,9.92419 4.5264,30.56006 c 2.4896,16.80803 4.5238,31.12255 4.5207,31.81005 0,0.6875 0.5599,1.25 1.2514,1.25 0.6915,0 16.779,-17.80485 35.75,-39.56634 z m 199.4031,33.31634 c 1.348,-10.75012 6.6689,-94.00289 6.3962,-100.07617 l -0.3065,-6.82618 -7.4565,17.16599 c -4.4297,10.19786 -8.3866,17.89769 -9.748,18.96855 -1.9905,1.56572 -3.6741,1.73201 -12.813,1.26558 l -10.5215,-0.53698 2.7695,6.44657 c 12.2367,28.48373 29.8969,67.80951 30.4582,67.82439 0.3788,0.01 0.9285,-1.89425 1.2216,-4.23175 z m -59.9103,-41.57616 c 26.4368,-20.32923 24.2184,-17.82248 21.143,-23.89159 l -2.5288,-4.99037 -11.3071,-0.66176 c -6.2189,-0.36397 -16.1446,-0.94369 -22.0571,-1.28827 l -10.75,-0.6265 -0.01,14.39232 c 0,7.91578 -0.301,19.53781 -0.6634,25.82673 l -0.6588,11.4344 3.4134,-2.40774 c 1.8778,-1.32426 12.4138,-9.3285 23.4138,-17.78722 z m -376.1529,7.57616 c 1.1862,-19.6062 2.8476,-65.27221 2.5013,-68.75 l -0.3484,-3.5 -6.5,6.1293 c -3.575,3.37112 -9.2739,8.54612 -12.6641,11.5 -3.3902,2.95389 -15.7652,14.32231 -27.5,25.26316 -11.7348,10.94086 -21.9841,20.49264 -22.7764,21.22619 -0.7923,0.73355 -1.1508,1.62337 -0.7968,1.97738 0.7823,0.78235 62.3699,16.13752 65.3508,16.29343 1.9834,0.10373 2.1517,-0.52052 2.7336,-10.13946 z m 45.4005,-2.34755 c 20.4862,-6.54635 37.1013,-12.35245 36.9226,-12.90245 -0.482,-1.48309 -70.9601,-57.39317 -72.4202,-57.45073 -0.7843,-0.0309 -1.2551,1.34806 -1.2638,3.70073 -0.01,2.0625 -0.6746,18.15 -1.4823,35.75 -1.8484,40.2729 -1.8694,43.84686 -0.2539,43.25943 0.6875,-0.24999 18.0114,-5.81064 38.4976,-12.35698 z m 95.1716,-7.65043 c 22.2306,-7.84723 40.575,-14.73472 40.7653,-15.30551 0.4286,-1.28601 -42.4091,-49.44651 -43.9816,-49.44651 -1.88,0 -76.6531,33.44459 -76.4192,34.18086 0.1189,0.37447 7.0636,6.1201 15.4326,12.76806 16.4405,13.05964 16.212,12.7453 17.8469,24.55108 0.8928,6.44733 2.1022,8.74153 4.2477,8.05792 0.929,-0.29601 19.8777,-6.95866 42.1083,-14.8059 z m -197.3428,-15.39157 c 9.8579,-9.15175 21.5236,-19.81575 25.9236,-23.69777 9.3461,-8.24591 28.5891,-26.90688 28.174,-27.32194 -0.2806,-0.28065 -154.31858,5.39302 -160.17404,5.89968 -2.60094,0.22505 2.91945,4.33753 41.50004,30.91596 24.475,16.86101 44.9843,30.69851 45.5764,30.75 0.592,0.0515 9.142,-7.39418 19,-16.54593 z m -216.27078,5.78724 c 8.35688,-3.76878 23.06934,-10.36067 32.69434,-14.64866 13.0978,-5.83514 20.18907,-9.70849 28.18984,-15.39768 5.87941,-4.18074 10.82941,-8.05135 11,-8.60135 0.64196,-2.06977 -0.72198,-61.36779 -1.42776,-62.07243 -0.73792,-0.73674 -89.45876,-6.30026 -101.79682,-6.38349 l -6.53475,-0.0441 -9.71525,20.63176 c -5.34339,11.34748 -9.71526,21.30112 -9.71526,22.11921 0,0.81808 1.575,4.08016 3.5,7.24905 1.925,3.16889 3.5,6.17594 3.5,6.68233 0,0.50639 2.83639,5.22278 6.30308,10.48087 3.4667,5.25808 11.2292,17.94106 17.25,28.18439 6.02081,10.24334 11.08446,18.63058 11.25258,18.63833 0.16811,0.008 7.14311,-3.06946 15.5,-6.83823 z m 824.19438,-22.27436 c 8.25001,-13.77127 15.67021,-26.23897 16.48941,-27.706 0.8191,-1.46703 3.4066,-5.94579 5.75,-9.9528 2.3433,-4.00701 4.2299,-8.05701 4.1923,-9 -0.038,-0.94299 -4.4401,-10.92356 -9.7834,-22.17905 l -9.715,-20.46452 -4.4667,0.20148 c -17.81621,0.80368 -80.26211,4.39165 -83.59111,4.80291 l -4.1245,0.50955 -8.28,18.20755 -8.2801,18.20755 -0.7907,16 c -0.4652,9.41253 -0.4172,16.37549 0.1166,16.912 0.8319,0.83635 85.842,39.41499 86.9832,39.4741 0.275,0.0142 7.25,-11.2415 15.5,-25.01277 z m -361.5639,2.93868 c 4.0507,-11.95045 1.8512,-11.14889 28.2779,-10.30518 12.9009,0.41188 22.786,0.34805 22.786,-0.14714 0,-1.03191 -89.3154,-23.75457 -91.0711,-23.16933 -1.3808,0.46028 35.0922,41.88579 36.5072,41.46435 0.5149,-0.15335 2.0899,-3.68256 3.5,-7.8427 z m 233.196,-4.20274 c 0.8883,-1.94948 0.7144,-2.91845 -0.9418,-5.25 -2.1942,-3.08877 -1.8603,0.20917 -6.2597,-61.83794 -1.13,-15.93827 -2.1836,-29.10765 -2.3413,-29.2653 -0.1576,-0.15764 -19.5441,8.27026 -43.0811,18.72867 -23.537,10.45842 -43.8209,19.0153 -45.0753,19.0153 -1.2961,0 -3.2166,-1.18734 -4.4482,-2.75 -4.456,-5.6537 -42.9847,-71.59801 -42.9847,-73.57097 0,-2.68165 19.6254,-44.59293 22.0647,-47.1204 1.8544,-1.92147 2.3737,-1.91324 50.6544,0.80295 26.8295,1.50938 51.0309,2.97009 53.7809,3.24604 4.4729,0.44882 4.7671,0.3628 2.791,-0.81618 -1.2149,-0.72484 -13.461,-11.88694 -27.2136,-24.80466 -15.9463,-14.97837 -25.231,-24.41712 -25.6296,-26.05492 -0.4236,-1.74007 -1.6176,-2.86861 -3.7034,-3.5 -4.2481,-1.286 -49.5378,-39.2983 -50.3584,-42.2665 -0.5295,-1.91556 -0.867,-2.09506 -1.8801,-1 -0.6791,0.73405 -9.7976,16.63464 -20.2633,35.33464 -10.4657,18.7 -31.4869,56.20235 -46.7137,83.33856 -15.2268,27.1362 -27.5375,49.45397 -27.357,49.59503 1.8111,1.41571 99.4832,77.19845 115.8281,89.86978 l 21.5,16.66783 6,0.0969 c 3.3,0.0533 18.825,0.89547 34.5,1.87154 40.8184,2.54176 39.8199,2.54978 41.1321,-0.33032 z m -337.8666,-14.96017 c 16.3711,-7.34081 30.0193,-13.6006 30.3294,-13.91065 0.31,-0.31005 -2.0595,-1.08903 -5.2656,-1.73108 -14.1174,-2.82708 -14.956,-3.67292 -12.7395,-12.84983 0.7516,-3.11164 1.6601,-7.35253 2.0188,-9.42418 l 0.6523,-3.76665 -30.804,19.78722 c -16.9422,10.88297 -30.9323,20.22796 -31.0892,20.76664 -0.1569,0.53869 3.6337,4.00845 8.4235,7.71058 4.7898,3.70213 8.7088,6.73874 8.7088,6.74801 0,0.009 13.3945,-5.98925 29.7655,-13.33006 z m 221.4845,10.21544 c 9.4875,-1.23151 17.25,-2.55309 17.25,-2.93682 0,-0.38374 -1.1728,-1.46614 -2.6062,-2.40535 -2.5192,-1.65059 -3.2375,-1.55023 -21.5,3.00411 -18.3316,4.57156 -23.3777,6.3486 -14.6438,5.15702 2.3375,-0.31891 12.0125,-1.58744 21.5,-2.81896 z m -12.5,-6.46603 c 9.7625,-2.629 17.75,-5.09 17.75,-5.4689 0,-0.37889 -16.9875,-13.8716 -37.75,-29.98379 -20.7625,-16.11219 -40.5625,-31.5051 -44,-34.20646 -3.4375,-2.70136 -6.25,-4.70021 -6.25,-4.44188 0,0.25832 9.887,12.33457 21.9711,26.8361 12.0841,14.50153 21.9841,27.23099 22,28.28768 0.036,2.36998 -2.7418,5.57874 -4.8288,5.57874 -0.8513,0 -12.594,-3.19921 -26.095,-7.10935 -58.587,-16.96785 -75.2085,-21.87224 -76.1961,-22.48262 -1.1247,-0.69505 -49.8512,16.56495 -49.8512,17.65837 0,0.35787 3.3814,1.2291 7.5143,1.93606 7.3236,1.25274 7.6749,1.21715 13.8379,-1.40216 l 6.3235,-2.68754 62.3326,15.58933 c 34.2829,8.57412 63.0434,16.02495 63.9121,16.55739 2.6542,1.62673 10.7705,0.33691 29.3296,-4.66097 z m 158.1913,-54.17359 c 13.5073,-30.40129 24.5287,-55.82629 24.4919,-56.5 -0.037,-0.6737 -6.0314,-10.67492 -13.3216,-22.22492 l -13.2548,-21 -10.9284,-2.17619 c -6.0107,-1.1969 -13.3535,-2.49407 -16.3174,-2.88259 l -5.3891,-0.7064 0.6909,33.88259 c 0.3799,18.63542 1.7888,49.63259 3.1307,68.88259 1.3419,19.25 2.6882,39.05 2.9917,44 0.7287,11.88308 1.407,15.9597 2.4759,14.88025 0.4793,-0.48414 11.9229,-25.75403 25.4302,-56.15533 z m -637.59698,39.52508 c 8.46269,-6.11067 8.83398,-6.26495 16.65564,-6.92048 4.4,-0.36877 12.3875,-0.70627 17.75004,-0.75 5.3625,-0.0437 9.75,-0.34289 9.75,-0.66478 0,-0.3219 -5.1617,-8.78367 -11.4703,-18.80393 l -11.47036,-18.21867 -14.77969,-2.71839 c -8.12883,-1.49511 -15.34219,-2.70834 -16.02969,-2.69607 -0.8974,0.016 -1.24926,2.34946 -1.24737,8.27232 0.004,13.32611 1.2762,48.75 1.75045,48.75 0.2396,0 4.33068,-2.8125 9.09128,-6.25 z m 257.25848,-19.38837 c 26.7935,-17.22183 28.706,-18.64727 30.2325,-22.5333 0.8962,-2.28164 3.9503,-14.28309 6.7868,-26.66987 l 5.1572,-22.52142 -2.8897,-2.42706 c -1.5893,-1.33489 -5.748,-4.96572 -9.2416,-8.06852 -7.8917,-7.00898 -10.6017,-8.49539 -13.9544,-7.65393 -1.4349,0.36014 -8.028,3.26634 -14.6513,6.45823 -6.6233,3.19188 -20.4219,9.50356 -30.6637,14.02595 l -18.6214,8.22253 -17.8786,26.03892 c -18.9893,27.65656 -19.394,28.29901 -23.0963,36.66593 l -2.389,5.39908 12.5137,-0.69527 c 14.7906,-0.82178 13.7463,-1.21375 28.5736,10.72477 l 10.4807,8.43869 5.5193,-3.50994 c 3.0357,-1.93047 18.3907,-11.78312 34.1222,-21.89479 z m 160.3376,-20.82049 c -15.8458,-18.99763 -29.079,-34.54114 -29.407,-34.54114 -0.5432,0 -26.2591,27.38731 -35.3212,37.61699 l -3.7878,4.2758 7.2878,2.17777 c 24.978,7.46402 89.3507,25.68452 89.6633,25.37891 0.2065,-0.20195 -12.5893,-15.9107 -28.4351,-34.90833 z m -330.4404,30.48463 c 11.275,-0.50694 25.1203,-1.00073 30.7673,-1.0973 5.6471,-0.0966 10.4733,-0.50884 10.7251,-0.91615 0.404,-0.65379 -2.2127,-40.47329 -2.7723,-42.18607 -0.1944,-0.59504 -79.0995,34.2198 -80.3179,35.43823 -0.2655,0.26546 0.7729,2.55033 2.3075,5.07748 l 2.7903,4.59482 8,0.005 c 4.4,0.003 17.225,-0.40942 28.5,-0.91637 z m 69.3184,-2.8334 c 3.583,-0.64968 4.0076,-1.124 6.8859,-7.69237 1.6872,-3.85 8.2047,-18.65212 14.4835,-32.89359 6.2788,-14.24148 11.2017,-26.45198 10.9398,-27.13446 -0.9003,-2.34616 -25.8763,-41.97233 -26.8421,-42.58687 -0.5316,-0.33821 -6.6632,-1.60993 -13.626,-2.82605 -6.9627,-1.21613 -13.9486,-2.46848 -15.5241,-2.783 l -2.8646,-0.57187 0.6395,32.39792 c 0.5666,28.70054 3.1238,80.27148 4.1478,83.64792 0.4193,1.38273 14.9456,1.67804 21.7603,0.44237 z m 158.9986,-11.61828 24.5628,-8.92591 -1.2927,-3.07409 c -9.3577,-22.2535 -20.0661,-45.5811 -20.81,-45.33314 -0.7319,0.24398 -28.7771,65.13219 -28.7771,66.5817 0,0.18921 0.3947,0.19402 0.8771,0.0107 0.4825,-0.18333 11.9304,-4.34999 25.4399,-9.25924 z m -231.317,-17.89507 40.5,-18.20816 0.3159,-19.48543 c 0.1737,-10.71699 0.017,-26.29036 -0.3493,-34.60751 l -0.6652,-15.12208 -6.1507,-0.58255 c -12.0444,-1.14078 -87.57061,-5.08676 -88.05671,-4.60066 -0.27216,0.27217 -1.23437,19.71747 -2.13824,43.2118 l -1.64341,42.71695 7.66836,12.49931 c 4.2176,6.87462 8.1973,12.47393 8.8438,12.4429 0.6465,-0.031 19.4005,-8.25008 41.6755,-18.26457 z m 281.4283,-17.09379 c 8.6032,-9.30312 15.2888,-17.22414 14.8569,-17.60226 -0.728,-0.63739 -54.4562,-5.14538 -54.9879,-4.61369 -0.1316,0.13163 4.1309,10.22302 9.4722,22.42531 l 9.7114,22.18597 2.6526,-2.74028 c 1.4589,-1.50715 9.6916,-10.35193 18.2948,-19.65505 z m 189.0717,1.76954 c 23.1,-10.26062 42.3207,-18.93124 42.7128,-19.26806 0.9829,-0.84438 1.1714,-46.25922 0.2442,-58.81938 l -0.7554,-10.23268 -3.1008,-0.48616 c -1.7055,-0.26739 -24.2508,-1.62887 -50.1008,-3.02552 -25.85,-1.39664 -48.7632,-2.66728 -50.9182,-2.82363 l -3.9183,-0.28428 -6.4453,13.54247 c -3.545,7.44836 -8.1469,17.21535 -10.2265,21.70443 l -3.7812,8.16196 21.0339,35.08804 c 11.5687,19.29842 21.5338,35.09039 22.1447,35.09326 0.611,0.003 20.0109,-8.38984 43.1109,-18.65045 z m -251.0161,-6.15734 c 7.4291,-17.5344 7.6761,-18.36403 5.8853,-19.76688 -4.0602,-3.18064 -5.2091,-3.51606 -5.754,-1.6798 -0.4632,1.56128 -7.8039,33.9588 -9.1198,40.24925 -0.8367,4.0002 0.6053,0.98376 8.9885,-18.80257 z m -110.4322,-3.27431 c 3.4818,-5.17829 5.8616,-9.70664 5.5406,-10.54312 -0.9057,-2.36011 -4.1298,0.0161 -5.8899,4.34083 -0.8459,2.07854 -2.6943,6.36667 -4.1076,9.52917 -1.4133,3.1625 -2.3619,5.75 -2.108,5.75 0.2539,0 3.2081,-4.0846 6.5649,-9.07688 z M 238.95552,453.9976 c -2.39568,-13.34978 -4.53324,-24.44712 -4.75013,-24.66074 -0.90753,-0.89389 -40.39434,5.01529 -40.39434,6.04499 0,0.60068 11.025,11.49875 24.5,24.21794 20.3156,19.17609 24.54272,22.74529 24.75013,20.89795 0.13757,-1.2253 -1.70998,-13.15037 -4.10566,-26.50014 z m 216.32087,-0.20625 c -5.7559,-5.48821 -10.6223,-9.98821 -10.8141,-10 -0.4007,-0.0246 1.8483,3.8316 7.396,12.68172 3.59,5.72695 4.198,6.23171 7.9206,6.57529 2.2177,0.20468 4.4666,0.45076 4.9975,0.54685 0.5309,0.0961 -3.7441,-4.31565 -9.5,-9.80386 z m 192.2925,5.77621 c 0.9668,-2.30011 1.4168,-4.49367 1,-4.87457 -0.4168,-0.38091 -6.3828,-2.81417 -13.2578,-5.40725 -42.3124,-15.95914 -38.5536,-14.00474 -39.9134,-20.75352 -0.5831,-2.89426 -1.2376,-7.2873 -1.4545,-9.7623 -0.2169,-2.475 -1.5608,-13.725 -2.9864,-25 -1.4255,-11.275 -3.9397,-31.86855 -5.587,-45.76344 l -2.995,-25.26344 -18.1061,-23.73656 c -9.9584,-13.05511 -18.4102,-23.8443 -18.7819,-23.97598 -0.3716,-0.13168 -5.3437,16.06832 -11.0491,36 -8.459,29.55155 -12.3111,41.09795 -20.8732,62.5662 -5.7749,14.47972 -10.1069,26.6645 -9.6267,27.07728 0.4803,0.41278 4.3608,3.58876 8.6233,7.05774 4.2625,3.46898 7.753,6.58421 7.7568,6.92272 0,0.33851 1.6908,1.74048 3.749,3.11548 2.0582,1.375 5.7598,4.4125 8.2257,6.75 2.4659,2.3375 4.8289,4.25 5.251,4.25 0.4221,0 1.7797,1.0125 3.0168,2.25 2.7649,2.76576 11.8613,10.24824 17.2507,14.18993 2.2,1.60905 6.5963,5.14547 9.7695,7.8587 l 5.7696,4.93314 22.7304,1.83498 c 12.5018,1.00924 27.4555,2.24341 33.2305,2.7426 17.5755,1.51922 16.2623,1.73584 18.2578,-3.01171 z m -152.3613,-10.15183 c 12.9819,-5.6948 27.1306,-11.86855 31.4416,-13.71943 l 7.8381,-3.36525 -4.3381,-3.75072 c -2.386,-2.0629 -4.6679,-3.76416 -5.0709,-3.78057 -0.4029,-0.0164 -1.9779,-1.13889 -3.5,-2.49439 -1.522,-1.3555 -7.7986,-6.53262 -13.9481,-11.50471 l -11.1808,-9.04015 -5.9896,5.2547 c -18.1028,15.88177 -38.0142,34.40476 -38.0768,35.42185 -0.079,1.2795 16.8768,17.30908 18.3246,17.32377 0.4932,0.005 11.5182,-4.65029 24.5,-10.3451 z m 169.8535,-21.59363 c 6.7375,-12.06896 12.25,-22.38307 12.25,-22.92024 0,-0.53718 -4.3875,-2.66022 -9.75,-4.71788 -5.3625,-2.05766 -16.0172,-6.16016 -23.6771,-9.11667 -7.6599,-2.95651 -14.4515,-5.17422 -15.0925,-4.92825 -0.641,0.24597 -3.7747,5.10104 -6.9637,10.78904 -3.189,5.688 -6.855,11.76789 -8.1466,13.51086 -2.4071,3.24823 -11.6202,20.47269 -11.138,20.82331 0.1473,0.10715 2.9679,1.2324 6.2679,2.50055 3.3,1.26815 7.35,2.86733 9,3.55374 1.65,0.6864 7.05,2.6318 12,4.3231 4.95,1.6913 11.7,4.17274 15,5.51431 3.3,1.34158 6.45,2.47803 7,2.52546 0.55,0.0474 6.5125,-9.78837 13.25,-21.85733 z m 275.1817,12.69782 c 4.7126,-4.5375 8.6955,-8.71763 8.851,-9.28917 0.1704,-0.62619 -5.3935,-1.74739 -14,-2.82121 -7.8555,-0.98012 -15.3827,-2.04573 -16.7271,-2.36802 l -2.4443,-0.58599 2.4443,4.00614 c 1.3444,2.20338 4.4694,7.43387 6.9444,11.62331 2.475,4.18945 4.9193,7.63242 5.4317,7.65106 0.5125,0.0186 4.7875,-3.67862 9.5,-8.21612 z m -485.863,-8.51388 c 40.7535,-36.27054 50.569,-45.9317 48.6327,-47.86802 -0.5915,-0.59151 -71.6684,37.92505 -71.687,38.84717 -0.044,2.16384 6.5376,10.50295 10.2139,12.94204 2.3494,1.55877 4.4967,2.82981 4.7717,2.82453 0.275,-0.005 3.9059,-3.04085 8.0687,-6.74572 z m -238.06874,-6.31503 c 9.075,-1.18276 16.60527,-2.24162 16.73393,-2.35304 0.36462,-0.31575 -7.47961,-35.64707 -8.0384,-36.20586 -0.50817,-0.50816 -30.88916,38.72745 -31.57399,40.77631 -0.25692,0.76865 0.70652,0.93971 3,0.53266 1.85815,-0.32979 10.80346,-1.56732 19.87846,-2.75007 z m -13.96451,-19.48157 c 9.05548,-11.85826 16.63134,-22.03375 16.83524,-22.6122 0.24725,-0.70142 -1.58465,-0.85076 -5.5,-0.44836 -3.2289,0.33185 -19.82073,1.52387 -36.87073,2.64893 -33.44542,2.20694 -37.79602,2.66012 -37.31421,3.88686 0.51127,1.30177 44.21896,37.94208 45.3497,38.01681 0.56952,0.0376 8.44452,-9.63378 17.5,-21.49204 z m 746.96455,17.80638 c 0,-0.41475 -7.0585,-9.94023 -15.6855,-21.16773 -12.914,-16.80663 -15.8206,-20.07478 -16.4496,-18.4959 -1.9029,4.77599 -6.9827,30.81231 -6.4364,32.98901 0.3404,1.35618 1.374,2.4591 2.3406,2.49751 0.952,0.0378 8.9309,1.11479 17.7309,2.39324 19.2069,2.79034 18.5,2.72217 18.5,1.78387 z m -347.1508,-3.24318 c 0.5746,-1.6485 2.1937,-4.50347 3.5978,-6.34439 1.4041,-1.84091 2.553,-3.80769 2.553,-4.37061 0,-0.56292 3.607,-7.31736 8.0155,-15.00986 l 8.0156,-13.98636 -3.6192,-34.39575 c -1.9905,-18.91766 -3.7255,-34.5113 -3.8556,-34.65252 -0.2274,-0.24682 -27.6738,10.70751 -28.4218,11.34362 -0.2011,0.17096 1.9413,19.57135 4.7607,43.11199 2.8194,23.54064 5.1214,44.65741 5.1155,46.92616 -0.013,5.17937 0.9963,10.375 2.0164,10.375 0.4275,0 1.2474,-1.34877 1.8221,-2.99728 z m 378.3488,-15.66718 c 12.2661,-10.26546 22.51401,-18.83993 22.77301,-19.05438 1.5457,-1.27942 -5.34381,-2.09052 -35.18411,-4.14225 -18.3078,-1.25879 -35.9354,-2.55048 -39.1724,-2.87043 -4.2559,-0.42065 -5.7778,-0.25847 -5.4964,0.58571 0.6,1.80025 33.2887,44.14228 34.0799,44.14415 0.3839,9.2e-4 10.7339,-8.39735 23,-18.6628 z m -556.7987,8.41446 c 0.2871,-2.3375 1.0038,-20 1.5927,-39.25 0.589,-19.25 1.1692,-36.77662 1.2894,-38.94804 l 0.2186,-3.94805 -27.4363,-12.30195 c -15.0899,-6.76608 -27.5041,-12.30196 -27.5871,-12.30196 -0.083,0 1.3663,6.8625 3.2208,15.25 1.8545,8.3875 3.7941,17.725 4.3102,20.75 0.5162,3.025 3.2556,18.20764 6.0875,33.7392 4.8854,26.79326 5.0648,28.36776 3.5039,30.75 -1.208,1.84369 -2.5242,2.5108 -4.9538,2.5108 -2.9244,0 -5.7387,-2.28642 -24.227,-19.68253 -29.1797,-27.45598 -31.4182,-29.74924 -31.4182,-32.18671 0,-1.58936 -0.617,-2.13076 -2.4283,-2.13076 -2.7897,0 -50.13071,-39.03509 -51.11956,-42.15067 -0.32283,-1.01713 -0.89413,-1.84505 -1.26957,-1.83982 -0.37543,0.005 -5.31273,8.21774 -10.97176,18.25 -5.65903,10.03227 -14.09524,24.99049 -18.74713,33.24049 -4.65189,8.25 -8.45928,15.48709 -8.46085,16.08243 -0.002,0.59533 3.86177,2.76091 8.58522,4.8124 4.72345,2.05148 17.43595,7.72592 28.25,12.60986 l 19.66191,8.87988 48.00004,2.97927 c 54.7647,3.39913 55.0065,3.42166 70.5,6.56805 6.325,1.28447 11.8099,2.38776 12.1887,2.45175 0.3788,0.064 0.9236,-1.79614 1.2106,-4.13364 z m 16.0576,-2.15106 c 11.1487,-6.16027 11.3936,-4.60102 -1.9569,-12.46359 l -7,-4.12255 -0.6759,4.2436 c -0.7087,4.44947 -1.0706,17.7436 -0.4831,17.7436 0.1876,0 4.7397,-2.43048 10.1159,-5.40106 z m 469.4061,-17.84894 c 1.5405,-7.0125 2.4085,-12.75 1.9291,-12.75 -0.4795,0 -2.6538,0.90915 -4.8319,2.02032 l -3.9602,2.02033 v 9.75717 c 0,7.64223 0.376,10.2931 1.7345,12.22967 1.2712,1.81219 1.8136,2.07191 2.0311,0.97251 0.1631,-0.825 1.557,-7.2375 3.0974,-14.25 z m -528.9692,-15.27805 c -2.3574,-13.46871 -4.6204,-25.02947 -5.0289,-25.69057 -0.5683,-0.91947 -5.3487,-0.59614 -20.3379,1.3756 -10.7772,1.41768 -19.9063,2.889 -20.2869,3.2696 -0.3806,0.38059 1.5471,2.81241 4.2839,5.40402 32.409,30.68999 44.9865,42.13786 45.2913,41.22346 0.2005,-0.60145 -1.5642,-12.1134 -3.9215,-25.58211 z m 101.1062,10.61561 25.5,-13.83976 5.317,-12.8739 c 4.986,-12.07233 15.5477,-45.7798 14.9274,-47.6406 -0.2526,-0.75769 -20.6788,14.71966 -76.7444,58.15079 -10.175,7.88204 -18.5,14.74833 -18.5,15.25841 0,0.7923 22.0872,14.65684 23.5,14.75137 0.275,0.0184 11.975,-6.19444 26,-13.80631 z m 415.3885,7.66244 c 0.5975,-4.96957 2.6444,-62.66518 2.6249,-73.98658 l -0.013,-7.73658 -3.25,-1.41252 c -1.7875,-0.77689 -13.8013,-6.18293 -26.6973,-12.01342 -12.8964,-5.8305 -23.7233,-10.6009 -24.0601,-10.6009 -0.3368,0 1.0943,7.5375 3.1804,16.75 2.086,9.2125 3.8632,18.325 3.9492,20.25 0.086,1.925 0.5139,4.2022 0.9507,5.06043 0.4367,0.85824 2.901,13.61508 5.476,28.34853 5.016,28.69986 5.0288,30.67988 0.2088,32.50412 -1.9,0.71912 -1.4652,0.96019 2.7419,1.52014 2.75,0.36602 10.625,1.72036 17.5,3.00964 17.5641,3.29384 16.7797,3.3702 17.3885,-1.69286 z m -208.0222,-11 c 11.4656,-20.34163 11.066,-17.93405 4.0832,-24.60534 -3.2722,-3.12625 -11.3495,-10.68947 -17.9495,-16.80716 l -12,-11.12308 -9.6112,-0.71572 -9.6112,-0.71572 -2.2328,8.35851 c -1.2281,4.59718 -4.1551,15.48014 -6.5045,24.18435 -4.2475,15.73684 -4.2597,15.83045 -2.1559,16.64396 1.1635,0.44995 11.1156,4.25007 22.1156,8.4447 11,4.19463 20.9,8.0369 22,8.53837 1.1,0.50147 2.5395,0.94223 3.199,0.97945 0.6594,0.0372 4.5597,-5.89482 8.6673,-13.18232 z m 168.6304,1 c -0.01,-2.24754 -8.6669,-50.75346 -9.1481,-51.23475 -0.7037,-0.70367 -39.2126,4.5766 -40.2194,5.51481 -0.4789,0.44629 3.3461,4.82534 8.5,9.73122 24.4237,23.24826 39.4375,37.17016 40.1208,37.20285 0.4125,0.0197 0.7485,-0.52663 0.7467,-1.21413 z m -386.4716,-36.81958 c 21.4362,-16.53827 43.7471,-33.80689 49.5799,-38.37471 l 10.605,-8.30514 1.8044,-6.66588 c 1.0708,-3.95594 1.4347,-7.00375 0.895,-7.49698 -0.5002,-0.4571 -7.0963,-4.94634 -14.6579,-9.97607 l -13.7485,-9.14498 -31.9093,21.51667 c -26.288,17.72613 -32.5188,21.51667 -35.3687,21.51667 -2.9249,0 -3.866,0.61462 -6.0921,3.97856 -2.952,4.4607 -3.3199,8.54057 -1.0389,11.52144 1.31,1.71211 1.4431,5.09487 0.9241,23.5 -0.3334,11.825 -0.8318,22.9625 -1.1075,24.75 -0.2757,1.7875 -0.132,3.25 0.3192,3.25 0.4513,0 18.3592,-13.53131 39.7953,-30.06958 z m 162.9976,-3.43042 c 2.65,-9.9 5.2804,-18.60324 5.8453,-19.34052 0.7967,-1.03988 3.0057,-1.18393 9.8492,-0.64229 l 8.822,0.69824 -15.0903,-21.35771 c -8.2997,-11.74675 -15.7335,-22.01665 -16.5196,-22.82201 -1.2544,-1.28503 -1.4293,-1.27725 -1.4293,0.0636 0,0.84033 -0.6719,6.62211 -1.4931,12.84839 -1.4242,10.7979 -1.3791,12.43387 0.9767,35.43642 2.7125,26.48648 3.5938,33.90479 3.9713,33.42992 0.1372,-0.17271 2.4178,-8.41402 5.0678,-18.31402 z m 73.7844,5.5 c 3.0221,-5.225 5.4268,-9.57108 5.3438,-9.65796 -0.083,-0.0869 -5.95,1.21681 -13.0377,2.89708 l -12.8867,3.05504 7.3867,6.75587 c 4.0627,3.71572 7.457,6.68703 7.5429,6.60291 0.086,-0.0841 2.6288,-4.42794 5.651,-9.65294 z m -374.6397,-9.63129 c 3.2079,-4.18839 6.7284,-8.79729 7.8234,-10.24199 1.095,-1.44469 5.9557,-7.75601 10.8016,-14.02515 4.8459,-6.26914 8.45,-11.72143 8.0091,-12.1162 -0.4408,-0.39476 -18.1265,0.55282 -39.3015,2.10575 -21.175,1.55293 -38.87504,2.84272 -39.33337,2.86619 -0.45834,0.0235 -0.68334,0.46516 -0.5,0.9815 0.53318,1.50167 45.26327,38.88284 46.00077,38.44312 0.3671,-0.21887 3.2921,-3.82482 6.5,-8.01322 z m 22.39,6.06904 c 10.1202,-1.40923 18.5145,-2.67635 18.654,-2.81581 0.7081,-0.70814 -7.5707,-35.12194 -8.4492,-35.12194 -1.0414,0 -31.1938,38.36842 -31.2382,39.75 -0.035,1.08028 0.7412,1.01344 21.0334,-1.81225 z m 344.9426,-9.02506 c 8.525,-2.01204 15.6437,-3.78422 15.8193,-3.93817 0.5659,-0.49601 -14.8909,-47.47476 -15.6178,-47.46789 -0.3858,0.004 -4.9298,4.53978 -10.0976,10.0803 -5.1679,5.54052 -10.3429,10.41403 -11.5,10.83002 -1.1572,0.41599 -7.6164,0.25549 -14.3539,-0.35667 -6.7375,-0.61216 -12.25,-0.79089 -12.25,-0.39717 0,0.39372 3.0214,5.06768 6.7142,10.38658 6.8424,9.85538 22.4579,25.66588 24.6162,24.92353 0.6433,-0.22125 8.1446,-2.04848 16.6696,-4.06053 z m 128.5,-7.50886 c 9.35,-1.19267 17.3096,-2.44644 17.6881,-2.78616 0.6794,-0.60986 -5.4478,-30.85401 -6.9893,-34.49959 -0.6564,-1.55223 -3.4659,1.5611 -16.0368,17.77108 -8.3825,10.80915 -15.5051,20.34137 -15.828,21.18271 -0.4534,1.18157 -0.046,1.4126 1.7895,1.01509 1.307,-0.28306 10.0265,-1.49046 19.3765,-2.68313 z m -12.0978,-19.90383 c 9.1085,-11.825 16.5693,-21.86465 16.5794,-22.31034 0.01,-0.44568 -4.1441,-0.5111 -9.2316,-0.14538 -5.0875,0.36573 -22.9378,1.63038 -39.6674,2.81034 -17.588,1.24051 -30.5267,2.56715 -30.6768,3.14538 -0.3014,1.16178 44.477,38.7188 45.6502,38.28821 0.4318,-0.15852 8.2376,-9.96321 17.3462,-21.78821 z m -85.4362,-1.98841 c 5.5895,-9.89362 11.1339,-18.66862 12.3209,-19.5 1.1869,-0.83137 3.8029,-1.51159 5.8132,-1.51159 3.4951,0 4.035,-0.50568 12.3255,-11.5431 4.7686,-6.3487 8.8867,-12.10714 9.1512,-12.79652 0.2645,-0.68939 -2.1651,-7.08249 -5.3992,-14.2069 -3.2341,-7.12442 -6.8406,-15.13332 -8.0143,-17.79757 l -2.1341,-4.84409 -2.7306,3.34409 c -1.5019,1.83925 -5.9409,6.71909 -9.8646,10.84409 -24.8343,26.10826 -37.5149,40.34692 -37.0382,41.58902 0.2923,0.76195 1.7132,5.32863 3.1574,10.14817 2.2057,7.36103 7.4999,23.36069 10.5929,32.01281 0.4424,1.2375 0.9962,2.25 1.2307,2.25 0.2345,0 4.9996,-8.09478 10.5892,-17.98841 z m -305.8325,6.17168 c 0.609,-0.65696 21.2736,-30.58706 38.5064,-55.77191 l 8.2717,-12.08865 -4.4558,-3.14075 c -3.3471,-2.35921 -4.4558,-3.79459 -4.4558,-5.76834 0,-1.97216 -0.39,-2.47795 -1.5634,-2.02766 -0.8599,0.32996 -21.4474,11.81049 -45.75,25.51228 -56.9534,32.1102 -64.0828,36.16884 -64.6866,36.82454 -0.275,0.29863 3.3468,0.24205 8.0485,-0.12573 l 8.5485,-0.66869 21.9292,9.83444 21.9291,9.83444 6.5224,-0.86535 c 3.5872,-0.47594 6.8073,-1.17282 7.1558,-1.54862 z m 175.7523,-4.03302 c 7.8175,-3.21736 14.587,-6.25486 15.0432,-6.75 0.8982,-0.97472 4.501,-28.30358 3.8209,-28.98361 -0.2271,-0.2271 -13.4262,-1.29674 -29.3314,-2.37699 -15.9052,-1.08026 -31.5504,-2.23346 -34.7671,-2.56268 l -5.8486,-0.59859 3.8486,5.36694 c 8.1438,11.35675 31.6851,41.75468 32.3364,41.75468 0.3765,0 7.0806,-2.63239 14.898,-5.84975 z m -130.9676,-25.15025 c 15.958,-10.725 29.0297,-19.81961 29.0481,-20.21024 0.043,-0.90212 -20.0468,-14.06077 -21.6671,-14.19198 -0.9685,-0.0784 -38.2992,52.71626 -38.2992,54.16438 0,0.9138 3.1433,-1.09535 30.9182,-19.76216 z m 194.671,-19.46146 c -5.2222,-19.12761 -9.7194,-35.00209 -9.994,-35.27662 -0.2745,-0.27453 -13.9063,7.76673 -30.2928,17.86947 -18.6827,11.51839 -29.0494,18.45809 -27.798,18.60854 1.0975,0.13196 7.7372,0.64281 14.7548,1.13522 7.0176,0.49241 13.3941,1.42221 14.1701,2.06622 0.776,0.64401 5.7732,7.4197 11.105,15.05709 l 9.694,13.88616 5.1358,0.57849 c 14.4472,1.62732 21.2124,2.09117 21.9279,1.50346 0.4356,-0.35781 -3.4807,-16.30042 -8.7028,-35.42803 z m 48.0051,-1.7623 c 17.5481,-18.82307 32.9554,-35.46981 34.2385,-36.99276 l 2.3328,-2.76899 -11.2741,-12.25724 c -24.382,-26.50811 -24.0817,-26.21593 -25.2822,-24.59765 -0.9901,1.33459 -14.5328,11.35383 -43.7679,32.38054 -5.3122,3.8207 -9.4858,7.22629 -9.2746,7.56797 0.4075,0.65944 19.4332,69.59435 19.4332,70.41159 0,1.92494 5.3748,-3.47379 33.5943,-33.74346 z m 62.5682,21.58021 6.6626,-0.62933 -3.4476,-7.56524 c -1.8962,-4.16089 -3.6971,-7.81199 -4.0022,-8.11356 -0.6301,-0.62296 -3.5639,2.8551 -9.4489,11.20168 l -4.0542,5.75 3.8139,-0.007 c 2.0976,-0.004 6.812,-0.29031 10.4764,-0.63644 z m 20.3528,-2.3316 c -0.845,-1.36727 -12.5153,-10.27252 -12.5153,-9.55005 0,0.32543 1.1325,2.82673 2.5168,5.55844 2.3925,4.72142 2.7165,4.96676 6.559,4.96676 2.3715,0 3.7931,-0.40305 3.4395,-0.97515 z M 538.85519,275.411 c 3.0009,-11.36126 1.5238,-10.83566 25.6082,-9.11241 l 20.6524,1.47768 32.047,-19.75317 c 17.6259,-10.86425 32.0669,-19.97818 32.091,-20.25318 0.053,-0.59953 -80.9842,-29.3312 -81.3452,-28.84097 -0.1381,0.18753 -2.1903,13.61597 -4.5604,29.84097 -2.3701,16.225 -4.6765,30.48514 -5.1253,31.6892 -1.0674,2.86326 -4.4889,4.63377 -7.4962,3.87898 -1.518,-0.381 -12.5621,-12.24749 -30.0941,-32.33503 -42.4924,-48.68647 -43.7646,-50.1234 -44.089,-49.799 -0.1671,0.16705 -1.8461,11.7252 -3.7311,25.68478 -1.8851,13.95959 -3.6612,26.63537 -3.9469,28.16841 -0.5014,2.69036 0.6542,3.56403 33.213,25.10918 18.5529,12.27701 34.0098,22.0477 34.3487,21.71266 0.3389,-0.33505 1.4315,-3.69569 2.4279,-7.4681 z m 14.9246,-19.89108 c 1.7085,-9.9268 8.53,-57.61723 8.5306,-59.63916 4e-4,-1.31403 -1.3855,-6.88112 -3.0797,-12.37129 l -3.0804,-9.98213 -6.6696,0.59545 c -3.6683,0.3275 -19.9446,1.12308 -36.1696,1.76796 -16.225,0.64488 -30.0942,1.47964 -30.8205,1.85503 -0.907,0.4688 9.7025,13.2612 33.882,40.85333 19.3614,22.09395 35.5727,40.17081 36.0252,40.17081 0.4524,0 1.0744,-1.4625 1.382,-3.25 z m 130.8715,-52.25 c 12.9843,-9.35 23.6195,-17.51002 23.6338,-18.13337 0.014,-0.62335 -0.7615,-1.36846 -1.724,-1.6558 -0.9625,-0.28734 -11.875,-5.09504 -24.25,-10.68377 -50.012,-22.58615 -65.1212,-29.1478 -66.4195,-28.84478 -1.6036,0.37428 -44.0805,47.67044 -44.0805,49.08169 0,0.52927 18.9,7.62407 42,15.76622 41.1298,14.49721 42.0542,14.76939 44.6162,13.13687 1.4389,-0.91688 13.2397,-9.31706 26.224,-18.66706 z m -100.7326,-33.25 c 8.6422,-9.7625 16.8457,-18.98281 18.2299,-20.48957 1.3841,-1.50676 2.2239,-3.03231 1.8661,-3.39011 -0.8905,-0.89052 -91.7036,21.87042 -91.7036,22.98413 0,0.51542 9.4157,0.58316 22.3659,0.16091 15.3531,-0.5006 22.9948,-0.39267 24.3717,0.34421 1.336,0.715 2.8943,3.92315 4.6664,9.60695 1.4633,4.69342 3.0723,8.53348 3.5755,8.53348 0.5032,0 7.9859,-7.9875 16.6281,-17.75 z"
       id="path2" /></g></svg>
