<?xml version="1.0" encoding="UTF-8" standalone="no"?>
<!-- Created with Inkscape (http://www.inkscape.org/) -->

<svg
   width="210mm"
   height="297mm"
   viewBox="0 0 210 297"
   version="1.1"
   id="svg1"
   xml:space="preserve"
   inkscape:version="1.4.2 (f4327f4, 2025-05-13)"
   sodipodi:docname="sea.svg"
   xmlns:inkscape="http://www.inkscape.org/namespaces/inkscape"
   xmlns:sodipodi="http://sodipodi.sourceforge.net/DTD/sodipodi-0.dtd"
   xmlns="http://www.w3.org/2000/svg"
   xmlns:svg="http://www.w3.org/2000/svg"><sodipodi:namedview
     id="namedview1"
     pagecolor="#ffffff"
     bordercolor="#000000"
     borderopacity="0.25"
     inkscape:showpageshadow="2"
     inkscape:pageopacity="0.0"
     inkscape:pagecheckerboard="0"
     inkscape:deskcolor="#d1d1d1"
     inkscape:document-units="mm"
     inkscape:zoom="1.4702524"
     inkscape:cx="347.89946"
     inkscape:cy="135.01083"
     inkscape:window-width="2560"
     inkscape:window-height="1369"
     inkscape:window-x="-8"
     inkscape:window-y="-8"
     inkscape:window-maximized="1"
     inkscape:current-layer="layer1" /><defs
     id="defs1" /><g
     inkscape:label="Layer 1"
     inkscape:groupmode="layer"
     id="layer1"><path
       style="fill:#000000"
       d="m 52.730642,65.104409 c -2.450985,-1.15516 -3.528439,-3.4602 -2.815209,-6.02268 0.442319,-1.58916 1.242499,-2.58678 2.911759,-3.63023 0.716913,-0.44813 1.061008,-0.815781 0.907344,-0.969446 -0.891853,-0.891852 -5.600767,-1.726446 -6.009498,-1.065105 -0.07812,0.126406 -0.620236,0.306296 -1.204694,0.399755 -2.220173,0.35502 -4.97258,1.956136 -7.216907,4.198186 l -1.257169,1.25589 v -1.28834 c 0,-1.17715 0.09705,-1.37756 1.124479,-2.32209 1.510346,-1.388491 4.714258,-3.108192 6.768244,-3.632864 1.854425,-0.473695 5.477698,-0.576885 5.733318,-0.163283 0.08994,0.145521 0.489184,0.264583 0.887215,0.264583 0.905159,0 3.391176,1.480416 4.099004,2.440946 0.515912,0.700098 0.517276,0.736788 0.0467,1.256768 -0.2666,0.29459 -0.752942,0.53562 -1.080761,0.53562 -0.944852,0 -3.147295,1.27329 -3.637316,2.10283 -0.60229,1.0196 -0.593352,3.20878 0.01588,3.89074 0.903008,1.01079 1.763414,1.41476 3.013248,1.41476 1.077639,0 1.3765,-0.1312 2.260036,-0.99218 0.559997,-0.54571 1.428776,-1.52797 1.930619,-2.18282 0.501844,-0.65484 1.006148,-1.23031 1.120676,-1.27882 0.114529,-0.0485 0.208234,-0.22977 0.208234,-0.40281 0,-0.38172 3.735719,-4.13266 5.027083,-5.04757 2.847204,-2.0172 6.807237,-2.777801 9.709559,-1.864909 1.878843,0.590969 4.842524,2.591355 4.842524,3.268539 0,0.41445 -1.105986,1.09224 -1.782253,1.09224 -1.170005,0 -3.571904,1.74311 -4.186468,3.0382 -1.068666,2.25205 0.02756,3.58319 3.106978,3.7728 1.709284,0.10524 2.041709,0.0466 2.841989,-0.50164 0.535723,-0.36698 1.238915,-1.26982 1.719792,-2.20807 0.447427,-0.87298 0.9028,-1.62705 1.011941,-1.67569 0.109141,-0.0486 0.198437,-0.2579 0.198437,-0.46501 0,-0.59273 3.432054,-3.901374 4.894792,-4.718784 2.652004,-1.481997 4.548769,-2.004307 7.27863,-2.004307 2.888037,0 4.529157,0.478853 6.793362,1.982205 1.01724,0.675408 1.40613,1.101174 1.40613,1.539456 0,0.82546 -0.47917,1.23972 -1.44198,1.24665 -1.13859,0.008 -2.753495,0.82523 -3.919175,1.98283 -1.11021,1.10251 -1.39498,1.86763 -1.15036,3.09074 0.30964,1.54822 2.65798,2.55799 4.648555,1.99887 1.57095,-0.44126 3.58052,-2.49176 4.76411,-4.86116 1.49513,-2.99306 4.14758,-5.175714 7.48374,-6.158222 0.54571,-0.160711 1.3876,-0.411264 1.87087,-0.556785 2.3108,-0.695816 5.95078,-0.107831 8.21271,1.326641 1.57279,0.997439 2.03541,1.895396 1.36063,2.641036 -0.26393,0.29163 -0.70703,0.53024 -0.98468,0.53024 -0.79983,0 -3.29882,1.32781 -4.01792,2.13489 -0.69675,0.78198 -1.10463,2.26319 -0.84474,3.06763 0.0864,0.26731 0.57962,0.77316 1.09612,1.12411 0.77623,0.52742 1.2807,0.64109 2.90869,0.65539 l 1.96959,0.0173 1.2589,-1.32781 c 1.22875,-1.29603 1.54926,-1.73544 3.65431,-5.01005 1.34837,-2.09751 2.72298,-3.348807 4.80464,-4.373603 1.74312,-0.858136 4.53377,-1.579524 6.11029,-1.579524 3.32937,0 8.26364,2.742134 7.94176,4.413497 -0.065,0.33758 -0.46225,0.53024 -1.41088,0.68427 -3.68626,0.59852 -6.32974,3.29272 -5.40982,5.5136 0.4685,1.13107 1.64447,1.65542 3.72845,1.66247 2.25249,0.008 3.05681,-0.57132 5.09655,-3.66846 1.89521,-2.87767 3.03292,-4.1303 5.07474,-5.587313 2.91845,-2.082565 4.17163,-2.488898 7.67605,-2.488898 2.9734,0 3.10218,0.02472 5.03279,0.966131 l 1.98132,0.96613 -0.0794,1.036834 c -0.0816,1.065456 -0.17464,1.155726 -2.14206,2.078156 -1.00446,0.47094 -2.54505,2.00287 -2.86775,2.85163 -0.14524,0.38201 -0.19599,1.05748 -0.11278,1.50103 0.22035,1.17459 1.29798,1.71259 3.43036,1.71259 h 1.74512 v 0.8755 0.8755 l -1.9521,-0.0391 c -3.08343,-0.0617 -4.8069,-1.23432 -5.10744,-3.47506 -0.24694,-1.84104 1.36568,-4.30884 3.67902,-5.63004 l 1.30876,-0.747465 -0.61049,-0.427604 c -0.33578,-0.235183 -0.8151,-0.427605 -1.06518,-0.427605 -0.25007,0 -0.52826,-0.119062 -0.6182,-0.264583 -0.0899,-0.145521 -1.14044,-0.264584 -2.33445,-0.264584 -2.41169,0 -4.08427,0.48543 -6.23741,1.810271 -1.56697,0.96416 -4.3471,3.81586 -5.10016,5.23144 -0.3008,0.56545 -0.65164,1.06777 -0.77963,1.11628 -0.128,0.0485 -0.23272,0.24766 -0.23272,0.44256 0,0.66025 -2.78892,2.76897 -4.22693,3.19602 -1.16461,0.34585 -1.594,0.35816 -2.74405,0.0787 -1.46033,-0.35492 -2.74617,-0.91207 -3.21337,-1.39234 -1.19722,-1.23074 -1.54099,-3.02808 -0.87663,-4.58345 0.46483,-1.08827 2.04172,-2.98901 2.47973,-2.98901 0.20854,0 0.37916,-0.0961 0.37916,-0.21367 0,-0.24473 1.85402,-1.10925 2.37887,-1.10925 0.24561,0 0.20713,-0.15674 -0.12991,-0.529167 -0.26339,-0.291042 -0.67475,-0.529167 -0.91413,-0.529167 -0.23938,0 -0.58424,-0.148828 -0.76634,-0.330729 -0.55543,-0.554809 -5.45426,-0.425522 -7.05078,0.18608 -2.64942,1.014954 -4.17961,2.301473 -5.67925,4.774853 -1.66612,2.74796 -3.43803,4.9992 -4.49575,5.71191 -1.68351,1.13439 -3.80775,1.57377 -5.09224,1.05328 -0.33426,-0.13545 -0.91798,-0.31199 -1.29713,-0.39232 -1.04035,-0.22041 -2.52201,-1.73456 -2.88056,-2.94374 -0.65975,-2.22498 0.93181,-4.80207 3.83304,-6.20654 0.65404,-0.31661 1.24611,-0.6678 1.31572,-0.78042 0.14222,-0.230124 -1.29387,-0.895489 -2.92336,-1.354445 -1.14071,-0.321288 -3.06518,-0.226161 -4.60859,0.227806 -1.19291,0.350872 -2.74075,0.942805 -2.91042,1.113019 -0.0728,0.073 -0.47268,0.30841 -0.8887,0.52315 -1.56114,0.8058 -3.65901,3.4792 -4.90342,6.24861 -0.35397,0.78777 -3.21913,3.28199 -3.77008,3.28199 -0.2534,0 -0.53432,0.11906 -0.62426,0.26458 -0.24916,0.40316 -2.761695,0.3083 -4.101035,-0.15482 -2.450602,-0.8474 -3.490483,-2.71885 -2.893495,-5.20738 0.400236,-1.66837 1.640925,-3.08099 3.700395,-4.21319 1.396995,-0.76801 1.497265,-0.879823 1.06219,-1.184564 -1.10445,-0.773583 -2.98132,-1.186262 -4.873453,-1.071554 -3.038199,0.184188 -4.560092,0.722341 -7.314386,2.586428 -1.9217,1.30059 -2.828752,2.3788 -4.079794,4.84963 -0.65963,1.30279 -1.467641,2.42726 -2.220063,3.08957 l -1.182977,1.0413 h -2.310734 c -2.665359,0 -4.286257,-0.46976 -5.170116,-1.49837 -1.480529,-1.723 -0.935612,-4.32967 1.415223,-6.76986 0.52572,-0.54571 1.083793,-0.99219 1.240162,-0.99219 0.156369,0 0.558934,-0.19236 0.894589,-0.42746 l 0.610281,-0.42746 -1.014431,-0.465849 c -2.183818,-1.002865 -5.110969,-1.445343 -5.491227,-0.830072 -0.07832,0.126725 -0.490031,0.299935 -0.914913,0.384911 -1.262562,0.252513 -4.287565,2.38488 -5.938466,4.1861 -0.847325,0.92448 -2.426016,2.78035 -3.508203,4.12415 -2.178336,2.70495 -3.381126,3.51561 -5.193269,3.50018 -0.624261,-0.005 -1.611269,-0.23412 -2.193353,-0.50846 z"
       id="path1" /><path
       style="fill:#000000;stroke-width:0.264583"
       d="m 38.196035,56.776675 -3.689133,3.959071 -1.439664,2.384441 -1.169725,2.699367 -1.484651,4.588922 -0.719831,2.834333 1.66461,-0.04499 0.76482,-2.969303 1.259706,-3.914081 2.249471,-4.363974 2.519408,-2.834336 z"
       id="path2" /></g></svg>
