<?xml version="1.0" encoding="UTF-8" standalone="no"?>
<!-- Created with Inkscape (http://www.inkscape.org/) -->

<svg
   version="1.1"
   id="svg1"
   width="723"
   height="626"
   viewBox="0 0 723 626"
   sodipodi:docname="sheep.svg"
   inkscape:version="1.4.2 (f4327f4, 2025-05-13)"
   xmlns:inkscape="http://www.inkscape.org/namespaces/inkscape"
   xmlns:sodipodi="http://sodipodi.sourceforge.net/DTD/sodipodi-0.dtd"
   xmlns="http://www.w3.org/2000/svg"
   xmlns:svg="http://www.w3.org/2000/svg">
  <defs
     id="defs1" />
  <sodipodi:namedview
     id="namedview1"
     pagecolor="#ffffff"
     bordercolor="#000000"
     borderopacity="0.25"
     inkscape:showpageshadow="2"
     inkscape:pageopacity="0.0"
     inkscape:pagecheckerboard="0"
     inkscape:deskcolor="#d1d1d1"
     inkscape:zoom="0.65910033"
     inkscape:cx="833.71222"
     inkscape:cy="284.47869"
     inkscape:window-width="2560"
     inkscape:window-height="1369"
     inkscape:window-x="-8"
     inkscape:window-y="-8"
     inkscape:window-maximized="1"
     inkscape:current-layer="g1" />
  <g
     inkscape:groupmode="layer"
     inkscape:label="Image"
     id="g1">
    <path
       style="fill:#000000"
       d="m 377.15117,627.35883 c 0,-2.22887 4.4713,-15.01915 7.6759,-21.95702 5.1829,-11.22103 8.025,-19.85886 8.7991,-26.74353 1.1787,-10.48194 0.052,-12.65701 -14.7197,-28.40265 -7.2501,-7.72846 -14.2748,-14.76774 -15.6104,-15.64286 -3.4407,-2.25441 -9.1629,-1.88762 -14.8019,0.94879 -7.1098,3.57614 -15.1287,5.63692 -27.6856,7.11492 -10.9221,1.28558 -11.2856,1.26334 -17.2359,-1.05485 -3.3431,-1.30247 -6.3531,-2.36813 -6.6887,-2.36813 -1.4142,0 -1.8701,9.50038 -0.7556,15.74907 1.6425,9.20938 4.7432,20.42011 7.0587,25.52103 2.5378,5.59046 2.4373,9.17157 -0.43,15.32939 -3.2882,7.06194 -6.8675,9.40051 -14.3878,9.40051 -7.98,0 -8.9506,-1.22887 -6.0224,-7.62448 1.888,-4.12377 2.2377,-6.64868 2.2682,-16.37552 0.035,-11.28591 -0.066,-11.81176 -5.4639,-28.24605 -3.025,-9.21033 -5.8145,-16.74783 -6.1989,-16.75 -0.3844,-0.002 -2.0505,2.82804 -3.7025,6.28937 -2.1726,4.55234 -3.4887,9.64049 -4.7576,18.39276 -1.5475,10.67464 -1.6042,13.46506 -0.482,23.69632 l 1.2721,11.59688 -4.9873,5.06661 c -2.743,2.78664 -5.81,5.03409 -6.8156,4.99434 -1.0055,-0.0398 -4.3857,-0.0594 -7.5114,-0.0436 -3.1258,0.0157 -5.9741,-0.44205 -6.3296,-1.01732 -0.3556,-0.57528 0.9514,-4.96846 2.9043,-9.76261 6.8205,-16.74345 7.8623,-25.42862 4.655,-38.80585 -3.6345,-15.15911 -7.8561,-24.0717 -21.9831,-46.4108 -13.5846,-21.48142 -16.5241,-28.98181 -18.0227,-45.9866 -0.5096,-5.78237 -2.0772,-16.28725 -3.4836,-23.34417 -1.4064,-7.05693 -2.5571,-13.86447 -2.5571,-15.12788 0,-3.51538 -2.7118,-9.22609 -5.2131,-10.97804 -8.033,-5.62655 -16.3572,-15.96216 -22.8555,-28.37824 -4.0017,-7.64595 -7.0365,-9.94462 -16.8764,-12.78274 -5.5627,-1.60443 -7.9393,-2.82305 -9.0495,-4.64007 -0.828,-1.35531 -2.3381,-3.6461 -3.3557,-5.09066 -1.6831,-2.38915 -3.5662,-8.31355 -3.626,-11.40721 -0.013,-0.67958 2.697,-2.60908 6.0225,-4.28778 3.3255,-1.6787 10.638,-6.10879 16.25,-9.84466 5.612,-3.73587 10.9912,-7.07975 11.9537,-7.43084 1.2717,-0.46388 1.75,-1.74016 1.75,-4.66973 0,-4.57558 -0.5652,-4.38345 11.8957,-4.04414 4.0676,0.11077 9.5923,0.7712 12.2771,1.46763 2.6848,0.69644 5.0815,0.94261 5.326,0.54705 0.2445,-0.39556 1.6347,-4.49531 3.0894,-9.11056 5.8386,-18.52382 13.3098,-29.22723 22.8794,-32.77747 2.7678,-1.02684 11.3175,-2.86582 18.9992,-4.08663 12.0454,-1.91429 15.0033,-2.77101 21.5,-6.22735 6.983,-3.71499 7.9714,-3.97003 13.5332,-3.49204 3.3,0.2836 11.0341,2.08423 17.187,4.00138 6.1528,1.91716 13.5778,3.79366 16.5,4.17 2.9221,0.37634 8.4525,1.5969 12.2896,2.71234 l 6.9766,2.02808 2.7734,-3.32206 c 5.1235,-6.13707 3.7519,-7.6675 -9.3396,-10.42138 -8.6286,-1.81509 -17.1792,-5.62758 -19.249,-8.58268 -0.9009,-1.28621 -1.638,-4.22343 -1.638,-6.52716 0,-3.44015 -0.5441,-4.64645 -3.0451,-6.75086 -1.6748,-1.40924 -4.8087,-3.09066 -6.9643,-3.7365 -5.4133,-1.62186 -7.7877,-4.47986 -8.2073,-9.87903 -0.268,-3.44862 -0.5361,-4.03272 -1.1473,-2.5 -4.4549,11.17084 -8.6156,19.37064 -13.4232,26.45423 -4.7242,6.96081 -6.6831,8.94809 -11.0895,11.25 -8.7079,4.54909 -20.1997,3.59096 -34.1683,-2.84881 l -7.5449,-3.47836 -3.5008,3.31147 c -1.9255,1.82131 -4.5765,5.56147 -5.8912,8.31147 -3.0745,6.43102 -12.1675,15.23543 -19.6505,19.02698 l -5.8676,2.97302 h -21.5 -21.5 l -9.5,4.76167 c -7.3539,3.686 -10.5166,4.74185 -14,4.67393 -4.9152,-0.0959 -11.1882,-2.00005 -11.706,-3.55342 -0.1796,-0.53901 2.8307,-2.50744 6.6897,-4.37429 3.8589,-1.86685 7.0163,-3.72701 7.0163,-4.1337 0,-1.73146 -5.6278,-2.161 -24,-1.8318 -34.526499,0.61867 -35.909499,0.56018 -45.438909,-1.92169 -8.37798,-2.18198 -9.51916,-2.25127 -18.18596,-1.10418 -8.85979,1.17264 -9.44194,1.12956 -13.90044,-1.02876 -5.80218,-2.80879 -12.45272,-10.89195 -17.1652103,-20.86285 -3.03973,-6.43159 -3.40964,-8.03072 -2.89152,-12.5 1.48732,-12.82938 1.73939,-21.15902 0.74221,-24.52679 -0.58595,-1.97897 -1.53974,-7.4582 -2.11952,-12.17607 -1.2549,-10.21143 -0.0912,-18.1749 3.16188,-21.63765 l 2.17924,-2.31969 -4.1909,-4.27021 c -3.72893998,-3.79952 -4.19088998,-4.7917 -4.19088998,-9.00141 0,-4.62274 0.061,-4.7159 2.65906998,-4.06381 1.46249,0.36706 4.49999,1.72021 6.75,3.00701 4.9155203,2.81121 7.0574703,2.90162 15.7808503,0.6661 6.21096,-1.59167 7.17019,-1.5995 13.39828,-0.10933 l 6.70837,1.60508 6.26346,-2.89907 c 3.44491,-1.59449 7.2173,-2.89907 8.3831,-2.89907 2.60557,0 3.72022,2.49579 2.02625,4.5369 -1.89716,2.28593 -0.935,2.50748 6.02324,1.38688 7.201,-1.15968 20.2134,0.0288 31.0074,2.83192 12.622199,3.27798 51.029999,1.29321 50.978899,-2.63439 -0.047,-3.59914 -5.0658,-15.6055 -7.6843,-18.38223 -1.537,-1.62997 -6.1696,-4.51185 -10.2946,-6.40419 -4.125,-1.89233 -8.85,-4.70756 -10.5,-6.25607 -5.0811,-4.76852 -6.3311,-5.08278 -11.4268,-2.87268 -2.5153,1.09093 -6.228,1.9695 -8.2505,1.95237 -3.638799,-0.0308 -14.689799,-4.53426 -16.002899,-6.52141 -1.0987,-1.66256 0.8828,-4.38172 9.8361,-13.49766 6.373999,-6.48982 8.322199,-9.09453 7.942599,-10.61922 -0.2766,-1.11112 -0.8167,-3.99367 -1.2002,-6.40566 l -0.6972,-4.38543 3.3994,0.60868 c 1.8697,0.33478 7.3542,0.91345 12.1877,1.28593 8.5131,0.65605 8.8731,0.59651 11.5,-1.90192 3.3614,-3.19706 6.9548,-4.15024 10.5264,-2.79229 3.5865,1.36357 4.3669,3.65992 2.0964,6.16876 -1.57,1.73483 -1.623,2.15569 -0.3713,2.94745 0.8032,0.508 2.3118,0.93052 3.3525,0.93895 3.7304,0.0302 15.406,4.06777 19.1915,6.63671 3.2013,2.17243 5.5675,2.76378 13.8875,3.47068 17.0341,1.44728 21.2879,3.09613 37.0288,14.35286 12.8908,9.21859 17.6089,12.03159 31,18.48261 15.2861,7.36393 23.7074,13.05356 32.8712,22.2087 4.3292,4.32506 8.0059,7.86375 8.1705,7.86375 0.1647,0 0.6067,-1.39938 0.9824,-3.10973 1.7636,-8.02967 13.0455,-28.73715 17.3078,-31.76784 1.4674,-1.04344 6.2681,-3.04032 10.6681,-4.43749 4.4,-1.39718 11.375,-3.78266 15.5,-5.30107 7.0257,-2.58615 8.5434,-2.76463 24,-2.8223 13.6901,-0.0511 17.4366,0.26049 22,1.82967 6.7662,2.32663 14.6405,7.43012 21.9232,14.20887 l 5.52,5.13798 3.7139,-2.98462 c 5.7376,-4.61086 11.2678,-4.83331 18.5125,-0.74467 8.661,4.88799 10.7839,5.26468 18.9275,3.35868 3.9033,-0.91358 8.2562,-1.37014 9.6729,-1.01456 6.2413,1.56647 11.7663,9.64708 6.596,9.64708 -3.7455,0 -9.866,2.26948 -9.866,3.65829 0,0.73794 0.3816,1.34171 0.8481,1.34171 1.2519,0 4.0845,6.83808 4.9709,12 1.4003,8.15494 -4.087,27.1808 -13.4388,46.59596 -3.7393,7.76294 -5.6307,13.11563 -6.2969,17.81966 -0.9978,7.04566 -3.8494,12.07454 -8.6188,15.19956 -1.3212,0.86572 -6.7269,2.17806 -12.0126,2.91631 -5.2857,0.73825 -10.7577,2.09407 -12.1601,3.01295 l -2.5498,1.67068 0.7016,16.64244 c 0.9488,22.50598 0.4345,21.14244 7.9744,21.14244 3.4107,0 9.7744,0.87863 14.1416,1.95251 4.3672,1.07388 12.8904,2.70414 18.9404,3.6228 14.4946,2.20093 21.8511,4.65202 27.257,9.08178 5.3774,4.40639 5.6398,4.13702 7.2893,-7.48371 1.5846,-11.163 0.7745,-17.89963 -4.1722,-34.69519 -6.0257,-20.45892 -7.0562,-26.43145 -6.6391,-38.47819 0.2892,-8.35108 0.8083,-11.35046 2.5364,-14.65548 2.9005,-5.54728 6.631,-8.34452 11.1283,-8.34452 2.0102,0 6.4084,-1.35549 9.8565,-3.03767 3.7173,-1.81356 8.9499,-3.378 12.9851,-3.88223 11.9314,-1.49097 41.8037,1.5062 53.6426,5.38213 17.1026,5.59916 27.3817,6.74127 36.0716,4.00793 5.485,-1.72523 5.8413,-1.72603 8.7301,-0.0196 3.9292,2.32099 8.0811,1.61719 14.3845,-2.4383 4.6151,-2.96931 5.3363,-3.13229 11.2949,-2.55243 8.3216,0.8098 10.3918,-0.57417 14.6655,-9.80407 4.1152,-8.88748 7.0803,-11.70117 15.9695,-15.15438 5.1296,-1.99272 7.538,-3.55856 9.0135,-5.86035 2.7941,-4.35873 6.5625,-4.63467 11.863,-0.86869 2.2679,1.6113 5.3544,3.22861 6.8589,3.59402 2.733,0.6638 13.166,10.50337 28.0729,26.47623 l 7.786,8.34263 -0.2972,5.65737 -0.2971,5.65738 -6.6547,3.34286 -6.6548,3.34285 -7.7022,-1.59285 c -4.2362,-0.87608 -8.0965,-1.59286 -8.5784,-1.59286 -0.9545,0 -5.9099,9.24926 -5.9099,11.03083 0,2.18569 -4.8986,11.73453 -8.9958,17.53545 -2.3051,3.26354 -4.6831,7.05872 -5.2845,8.43372 -0.6295,1.43903 -1.1259,9.29021 -1.1698,18.5 -0.09,18.89294 -0.8611,21.31361 -10.0512,31.55006 -3.1848,3.54747 -6.9117,8.87546 -8.2821,11.83998 -2.2055,4.77132 -2.4233,6.26357 -1.8973,13 0.3268,4.18548 1.1012,9.05407 1.721,10.8191 1.1431,3.25541 1.7243,3.60769 7.9597,4.82463 7.602,1.48366 17.0882,7.65386 27.5578,17.92469 11.2787,11.0647 16.2665,18.11468 19.403,27.42522 4.8964,14.53469 3.2687,23.82617 -4.4608,25.46378 -5.9032,1.25069 -6.6472,1.80151 -10.7621,7.96812 -5.5615,8.33444 -18.4119,17.27161 -31.1216,21.6444 -3.1687,1.0902 -10.5977,2.65674 -16.5088,3.4812 -16.2164,2.2618 -30.795,0.45648 -74.6075,-9.2389 -9.9,-2.19079 -25.2,-4.96109 -34,-6.15621 -21.3092,-2.89398 -28.5136,-5.05969 -33.5349,-10.08094 -2.1528,-2.15284 -4.1995,-5.05071 -4.5481,-6.4397 -0.3486,-1.38899 -0.7255,-2.52543 -0.8376,-2.52543 -0.1121,0 -2.0665,0.9 -4.3433,2 -5.512,2.66313 -8.9494,2.51185 -20.2361,-0.8906 l -9.5,-2.86384 -4.787,1.87722 c -2.6329,1.03247 -5.8204,1.87722 -7.0834,1.87722 -2.7995,0 -3.8931,0.94586 -2.7838,2.40799 1.6846,2.22062 5.1465,13.28977 6.1274,19.59201 1.45,9.31653 1.2613,23.66549 -0.4982,37.8779 -1.5094,12.19177 -3.2712,17.72294 -5.9759,18.76082 -0.768,0.2947 -2.1092,2.68192 -2.9804,5.30492 -0.8712,2.623 -2.658,5.778 -3.9706,7.01112 -2.6371,2.47749 -6.2684,10.17771 -6.6282,14.05514 -0.6497,7.00337 -0.1439,8.00506 6.8718,13.60884 l 3.2917,2.62927 -0.2729,18.626 c -0.2714,18.51208 -0.2563,18.66021 2.4582,24.22248 3.2784,6.71759 3.3414,8.19789 0.6541,15.38022 -2.6186,6.99891 -5.2787,8.52329 -14.8732,8.52329 -3.8773,0 -7.0496,-0.34782 -7.0496,-0.77293 0,-0.42512 1.125,-5.20782 2.5,-10.62823 5.4398,-21.44421 2.4799,-35.11444 -11.3343,-52.34884 -3.8574,-4.81237 -5.919,-5.62364 -3.8118,-1.5 3.837,7.50898 3.0649,11.23688 -4.6665,22.52971 -5.7398,8.38393 -6.5772,12.321 -4.1434,19.48109 1.5852,4.66365 1.656,5.82875 0.5205,8.5684 -0.7228,1.74394 -1.9953,5.7583 -2.8278,8.9208 l -1.5136,5.75 h -11.8615 c -6.5239,0 -11.8616,-0.4026 -11.8616,-0.89467 z m 26.9106,-67.46072 c 1.3126,-2.12381 2.0894,-5.06157 2.0894,-7.90186 0,-5.48871 1.7648,-7.90245 8.4437,-11.54874 4.7937,-2.61705 5.0562,-3.00195 9.1854,-13.47297 6.7067,-17.00701 11.377,-30.97586 11.3738,-34.01866 0,-2.00069 -1.356,-4.15323 -4.7529,-7.5565 -2.6125,-2.61739 -5.8703,-7.20846 -7.2395,-10.20239 -1.3692,-2.99392 -2.9442,-5.7741 -3.5,-6.17818 -0.6641,-0.48281 -0.639,-0.73994 0.073,-0.75 0.596,-0.008 2.7984,2.47422 4.894,5.51697 5.0317,7.3059 9.1256,10.75033 11.3575,9.55586 6.2446,-3.34203 11.4242,-11.64573 13.623,-21.83979 1.4497,-6.72136 -4.9678,-20.38633 -17.0234,-36.24835 -13.1312,-17.2773 -17.634,-20.30365 -32.6455,-21.9409 -17.4642,-1.90476 -24.873,-1.27191 -40.1983,3.43364 -10.6052,3.25626 -22.8435,1.42672 -37.9852,-5.67854 -10.511,-4.93228 -16.8811,-5.81862 -24.1302,-3.35749 l -4.9227,1.67133 -2.547,-3.1207 c -1.6736,-2.05058 -3.0959,-2.91007 -4.1478,-2.50645 -1.1488,0.44084 -2.3272,-0.62547 -4.1741,-3.77696 -3.4487,-5.88473 -9.7176,-11.3854 -16.5591,-14.5299 -4.8421,-2.22553 -7.1484,-2.61051 -16.5699,-2.76599 l -10.9448,-0.18061 -2.8922,-3.2369 c -1.9667,-2.20111 -2.7169,-3.90734 -2.3443,-5.33207 0.3769,-1.44139 -0.6401,-3.66837 -3.2593,-7.13681 -2.094,-2.77291 -5.4531,-7.80334 -7.4647,-11.17873 -4.0558,-6.80557 -9.5932,-12.28403 -15.3548,-15.19127 -8.3995,-4.23836 -25.4767,-6.76017 -26.5566,-3.92165 -0.2616,0.6875 -0.099,2.2625 0.3608,3.5 0.7182,1.93208 1.5609,2.25 5.9643,2.25 5.7378,0 10.2144,2.11986 11.793,5.58441 1.7728,3.89079 -2.222,14.41559 -5.4715,14.41559 -1.7976,0 -1.7459,-1.78439 0.1574,-5.43425 1.9791,-3.79518 1.3549,-5.20705 -2.5556,-5.781 -4.2283,-0.62058 -4.5325,0.65862 -1.9672,8.27346 2.3364,6.9354 2.0739,11.66023 -0.7892,14.20571 -2.7039,2.40404 -14.7094,8.73608 -16.5635,8.73608 -2.2806,0 -2.1729,0.3198 1.9095,5.66805 1.967,2.57695 5.1637,7.83732 7.1037,11.68971 3.3969,6.74526 12.5179,17.16417 18.3199,20.92673 3.6784,2.38546 5.4896,6.77982 8.538,20.71551 3.789,17.32121 4.3341,20.68193 4.4024,27.14303 0.085,8.01164 2.7961,20.33961 6.0171,27.35697 2.3494,5.11846 19.3514,33.52292 22.2913,37.24115 0.7314,0.925 1.7112,0.23369 3.8464,-2.71394 3.2036,-4.42244 6.0799,-6.56603 10.1548,-7.5679 3.1821,-0.78238 3.4113,-2.33342 1.25,-8.45931 -0.825,-2.3383 -1.5,-6.42273 -1.5,-9.07651 0,-7.96588 -1.9305,-14.67929 -5.6058,-19.49418 -2.8589,-3.74527 -3.1583,-4.58263 -1.8219,-5.09543 1.0715,-0.41118 2.7036,0.66436 4.9465,3.2598 1.8411,2.1304 3.49,3.65584 3.6643,3.38988 0.1743,-0.26596 1.3919,-2.62106 2.7058,-5.23356 1.314,-2.6125 3.0015,-4.75 3.75,-4.75 1.9384,0 1.6848,2.33699 -0.6904,6.36264 -2.6885,4.55674 -3.5493,15.14667 -1.985,24.42079 1.2509,7.41632 1.7503,8.03673 4.8909,6.07542 3.0461,-1.90232 8.6239,-0.0925 15.1763,4.92426 12.0641,9.23663 13.5387,10.16158 19.4135,12.17733 11.6321,3.99119 32.7179,2.13841 40.1061,-3.52407 l 2.5265,-1.93637 -3.4912,-4.85967 c -5.585,-7.77414 -6.3388,-13.3186 -3.5789,-26.32413 2.8368,-13.3679 2.8136,-18.81163 -0.1014,-23.75203 -1.8417,-3.12161 -1.9784,-3.9044 -0.8103,-4.64313 2.1486,-1.35879 3.2008,-0.64091 5.7358,3.91308 1.7319,3.11133 2.3234,5.72898 2.3021,10.18772 -0.016,3.30029 -0.281,6.4088 -0.5894,6.9078 -0.3084,0.49901 -1.2193,4.68334 -2.0241,9.29853 -2.1462,12.30746 -0.754,16.46078 10.2458,30.56468 5.586,7.16237 7.334,8.68564 12.8224,11.1742 5.3503,2.42596 8.5262,5.11898 20.0942,17.03903 7.5568,7.78672 14.547,15.48545 15.5339,17.10828 1.4887,2.44793 2.119,2.77686 3.7,1.93077 1.048,-0.56091 2.8457,-2.54114 3.9949,-4.40052 z m 29.2887,-2.07033 c -1.6543,-1.88415 -3.3062,-4.78421 -3.6708,-6.44459 -1.0282,-4.68142 2.1883,-14.33702 7.0995,-21.31143 2.4046,-3.41486 4.372,-7.22924 4.372,-8.47642 0,-1.3318 1.6252,-3.83046 3.9381,-6.05472 l 3.938,-3.78712 1.6068,-14.67652 c 1.538,-14.04796 1.758,-22.83127 0.5716,-22.81665 -0.305,0.004 -1.6146,1.56353 -2.9102,3.46617 -1.2957,1.90263 -4.316,5.06557 -6.7118,7.02875 -3.6677,3.0054 -4.2241,3.91932 -3.5213,5.78383 1.497,3.97142 -1.7409,19.40791 -5.9182,28.21442 -1.5136,3.19108 -6.172,17.76526 -6.5299,20.42984 -0.6715,4.99781 2.6314,16.01086 5.7315,19.11095 4.098,4.09797 5.6876,3.72806 2.0047,-0.46651 z m 220.6842,-91.04861 c 8.9446,-2.46211 15.9632,-5.36614 21.4466,-8.87387 8.2875,-5.30144 8.3913,-5.4844 8.5814,-15.13557 0.093,-4.72935 0.6149,-9.77074 1.1595,-11.2031 l 0.9902,-2.60427 2.7194,2.39557 c 1.4957,1.31756 3.5128,3.17063 4.4826,4.11793 1.7686,1.72768 5.1082,1.62772 10.3942,-0.31112 6.0763,-2.22877 3.2974,-18.52622 -5.4234,-31.80539 -5.1495,-7.84131 -19.6691,-22.11482 -26.234,-25.78947 -8.3622,-4.68067 -11.6314,-5.5033 -27.5854,-6.94145 -8.6765,-0.78214 -12.7342,0.41642 -19.0339,5.62217 -2.5681,2.12219 -5.7302,4.12477 -7.0267,4.45018 -2.9738,0.74638 -8.858,-2.20636 -12.854,-6.45019 -1.65,-1.75234 -5.502,-4.45687 -8.56,-6.01006 -7.254,-3.68438 -11.8469,-8.90261 -15.4095,-17.50729 -1.5894,-3.83886 -4.8552,-11.66222 -7.2575,-17.38524 -2.4022,-5.72302 -4.1539,-10.96262 -3.8926,-11.64355 0.5039,-1.31315 -2.864,-4.86862 -5.3804,-5.68009 -0.825,-0.26603 -2.5423,-0.0981 -3.8162,0.37313 -1.8074,0.66863 -3.0916,0.26537 -5.8465,-1.83589 -4.8767,-3.71965 -11.5831,-3.74786 -16.4063,-0.069 -1.892,1.44303 -4.7225,3.11133 -6.2901,3.70734 -2.3652,0.89925 -2.7458,1.49967 -2.2365,3.5286 0.4572,1.82195 0.1017,2.71894 -1.3954,3.52016 -1.105,0.59135 -2.009,1.9328 -2.009,2.98099 0,1.04818 -0.4231,2.1673 -0.9403,2.48692 -1.0599,0.65503 0.025,4.31913 3.0165,10.18649 1.1944,2.34275 1.9238,5.81889 1.9238,9.16885 0,4.74709 0.2103,5.30874 1.75,4.67331 2.5648,-1.05852 8.5191,-2.4512 10.25,-2.39741 0.825,0.0256 -0.975,1.03813 -4,2.24998 -15.3689,6.15696 -18.3932,9.46281 -23.0164,25.15912 -1.7814,6.04811 -3.4419,11.91993 -3.69,13.04848 -0.3847,1.75001 1.6293,11.47765 3.2515,15.70511 0.5849,1.52412 -4.462,9.506 -8.6733,13.71733 -3.5564,3.55634 -3.5921,5.21472 -0.2082,9.65132 3.5889,4.70531 7.6866,6.71881 12.0192,5.906 2.9206,-0.54789 3.7469,-0.25507 5.4731,1.9394 3.5914,4.56574 9.2353,6.69796 17.9792,6.79241 4.3257,0.0467 7.8649,0.39542 7.8649,0.77488 0,0.37946 -2.1375,1.48523 -4.75,2.45727 -6.2101,2.31063 -7.4344,3.50437 -3.594,3.50437 3.1638,0 34.5491,6.27886 39.844,7.9711 4.3432,1.38805 32.2049,6.87532 37.5,7.38548 8.1906,0.78913 29.4115,-0.32468 34.8835,-1.83091 z M 457.17377,434.2374 c 1.7139,-1.22044 3.5239,-3.29109 4.0221,-4.60144 1.0606,-2.78963 1.9788,-2.88561 8.5464,-0.89329 6.3616,1.92987 20.3906,1.96315 24.9474,0.0592 1.9108,-0.7984 3.8745,-2.50439 4.3637,-3.7911 0.4892,-1.28671 1.6798,-2.99544 2.6459,-3.79718 0.966,-0.80175 3.4616,-3.76597 5.5458,-6.58716 l 3.7893,-5.12944 -1.4297,-5.37174 c -1.6646,-6.254 -1.8406,-12.03527 -0.5079,-16.68208 0.7622,-2.65753 0.3675,-5.17501 -2.0343,-12.97765 -1.6389,-5.32428 -3.3953,-10.09603 -3.9032,-10.60389 -1.3763,-1.37628 -4.0081,1.23678 -4.0081,3.97952 0,1.28851 -1.3464,3.87621 -2.992,5.75043 -3.6314,4.136 -6.9562,11.19876 -6.9861,14.84049 -0.026,3.11828 -1.8053,5.15029 -6.4355,7.34746 -1.8262,0.86658 -4.8014,3.69023 -6.6115,6.27478 -4.8796,6.96718 -8.0474,10.16245 -12.1851,12.29077 -4.5079,2.31874 -7.2044,2.34312 -11.7782,0.10647 -5.2122,-2.54884 -6.1632,-5.35176 -4.478,-13.19805 1.9406,-9.03492 1.8008,-12.30511 -0.6595,-15.43292 l -2.1259,-2.70263 3.5619,-7.68222 c 5.2439,-11.31004 5.3041,-10.99145 -2.6936,-14.25501 -6.9678,-2.84326 -12.6165,-7.17067 -12.6165,-9.66534 0,-2.97519 7.0374,-4.71508 19.1677,-4.73894 10.8743,-0.0214 11.839,-0.18373 14.1864,-2.38753 2.636,-2.47463 9.5752,-3.31142 14.3959,-1.73596 3.9011,1.27494 2.5541,-1.10303 -5.2546,-9.27629 -8.8295,-9.24173 -10.7705,-10.11857 -28.9954,-13.09806 -7.15,-1.16892 -17.4498,-3.05877 -22.8885,-4.19966 -13.1186,-2.75195 -21.9052,-2.22869 -26.9298,1.60374 -6.5383,4.98705 -23.9963,29.33591 -25.805,35.99053 -1.217,4.47757 -0.6223,17.27336 1.0262,22.08029 0.5659,1.65 1.7791,7.3307 2.6962,12.62378 l 1.6674,9.62377 16.1167,0.52826 c 18.615,0.61014 22.8003,1.79529 30.8615,8.73903 4.6597,4.01374 17.2699,19.92844 21.4355,27.0526 1.6302,2.78797 2.2056,3.06131 5.523,2.62381 2.0367,-0.26861 5.1055,-1.48692 6.8194,-2.70735 z m -97.0577,-32.50994 c 4.1057,-1.36068 8.2682,-2.47396 9.25,-2.47396 2.5562,0 2.3323,-6.63944 -0.7251,-21.5 -3.9067,-18.98891 -3.1517,-25.26403 4.3999,-36.57272 2.2607,-3.38535 4.1103,-6.38687 4.1103,-6.67003 0,-0.28317 -1.5957,-2.28105 -3.5459,-4.43974 -1.9503,-2.15869 -4.0514,-5.13823 -4.6693,-6.6212 -2.1934,-5.26455 -8.3075,-14.11038 -9.7848,-14.15673 -3.7583,-0.11791 -8.1812,-4.24302 -11.0491,-10.3052 -2.3885,-5.04881 -2.9495,-7.56215 -2.9501,-13.21652 l -8e-4,-6.98213 -2.5756,3.79028 c -1.4165,2.08465 -2.879,3.62789 -3.25,3.4294 -4.5131,-2.41488 -9.4795,-3.97276 -16.6525,-5.22363 -4.7468,-0.82776 -14.3589,-3.31104 -21.3603,-5.5184 -7.0014,-2.20736 -14.5145,-4.0067 -16.6957,-3.99853 -2.6022,0.01 -6.6783,1.37594 -11.8538,3.97307 -6.7737,3.39911 -9.8813,4.25304 -22,6.04533 -15.0147,2.22059 -19.8338,3.98238 -25.4497,9.30403 -4.0127,3.80232 -5.7065,6.97043 -11.0572,20.6809 -2.2499,5.765 -4.5752,11.31314 -5.1673,12.3292 -0.5921,1.01606 -0.9328,1.94928 -0.7572,2.07384 0.1756,0.12455 1.8943,1.31174 3.8193,2.63819 5.4171,3.73277 8.8094,7.57557 14.5691,16.5037 2.9183,4.52383 6.7967,9.9243 8.6185,12.00104 2.2156,2.52561 3.3124,4.79573 3.3124,6.85587 v 3.07998 l 10,0.6182 c 10.2726,0.63506 15.7536,1.86842 21,4.72552 5.3194,2.89682 11.5647,8.297 14.1987,12.27714 1.4119,2.13353 3.2027,3.87914 3.9796,3.87914 0.7769,0 2.5215,1.10891 3.8768,2.46425 2.3455,2.34547 2.741,2.4128 8.2046,1.39665 8.33,-1.54926 13.9788,-0.52218 23.3967,4.25409 8.5935,4.35815 19.6926,7.70174 25.8436,7.78535 1.925,0.0262 6.8592,-1.06571 10.9649,-2.42638 z m 153.99,-28.2638 c 0.085,-2.43794 4.3353,-9.71599 8.2982,-14.21016 4.5836,-5.19819 6.0878,-8.5056 5.2985,-11.65027 -0.595,-2.37077 -1.5175,-2.59971 -15.614,-3.87503 -6.3965,-0.5787 -6.5933,-0.52574 -7.7874,2.09502 -1.4966,3.28455 -1.3366,3.46146 3.7461,4.1432 2.8226,0.37858 4.8198,0.0479 6.5474,-1.08408 3.3359,-2.1858 4.5563,-2.05115 4.5563,0.50274 0,2.11407 -6.3,9.04054 -10.8384,11.9161 l -2.3383,1.48162 1.6235,6.26557 c 0.893,3.44607 2.1579,7.43824 2.8109,8.8715 l 1.1874,2.60592 1.2323,-2.88615 c 0.6778,-1.58738 1.2527,-3.46657 1.2775,-4.17598 z m 104.3653,1.68221 c -0.4565,-3.53677 -6.1056,-23.66406 -7.267,-25.89237 -3.1903,-6.12054 -9.1762,-10.00081 -15.4253,-9.99919 -2.9793,7.8e-4 -11.7925,2.83046 -13.2003,4.23822 -0.7201,0.72013 5.7455,13.10978 8.3953,16.08737 0.8939,1.00451 4.3964,3.37606 7.7833,5.2701 3.3868,1.89404 8.1235,5.16513 10.5258,7.2691 5.9035,5.17021 9.6231,6.39551 9.1882,3.02677 z m 16.6798,-7.28606 c 4.9,-1.16615 5.4736,-1.57063 5.2579,-3.70763 -0.4132,-4.09374 -8.4288,-19.12777 -9.583,-17.97364 -0.9333,0.9333 -2.4303,23.13077 -1.5534,23.03259 0.2082,-0.0233 2.8535,-0.6314 5.8785,-1.35132 z m -169.1905,-13.23034 c 0.7575,-1.35364 1.4734,-1.44629 4.2996,-0.55648 1.9652,0.61872 9.5979,0.94565 18.154,0.77759 13.6569,-0.26825 16.9448,-0.72252 15.5226,-2.14471 -1.2098,-1.20979 -22.6425,-6.76857 -27.7656,-7.20128 -5.1003,-0.43078 -5.6546,-0.25787 -8,2.49574 -2.4658,2.89482 -2.663,2.94325 -9.1521,2.24722 -7.7664,-0.83305 -19.0591,0.0554 -19.5486,1.53801 -0.2003,0.60672 4.094,1.6755 10.4199,2.59332 14.5122,2.10556 15.0276,2.11359 16.0702,0.25059 z m 179.9028,-2.62597 c 0.5265,-0.6875 1.521,-3.95 2.21,-7.25 1.3907,-6.66088 3.7005,-10.5832 10.5998,-18 9.9982,-10.74802 9.9726,-10.67288 10.018,-29.46406 0.046,-18.88462 0.2116,-19.52569 8.0866,-31.22411 2.8486,-4.23172 5.7291,-9.40804 6.401,-11.50293 0.6719,-2.0949 2.6795,-6.74936 4.4612,-10.34325 5.1618,-10.41201 5.1673,-10.49692 0.9764,-15.13576 -4.9352,-5.46265 -8.5473,-13.64226 -9.1992,-20.8317 -0.5036,-5.55362 -0.3617,-6.05648 2.5232,-8.94138 1.6813,-1.68125 3.9915,-3.05681 5.1338,-3.05681 3.0196,0 2.5448,-1.84958 -0.6731,-2.62197 -1.5125,-0.36304 -4.5262,-1.94661 -6.697,-3.51905 -2.1709,-1.57244 -4.6459,-2.84401 -5.5,-2.82571 -2.1821,0.0467 -5.3245,2.95402 -6.8274,6.31665 -0.7006,1.56745 -2.2354,3.10138 -3.4107,3.40872 -1.6118,0.42151 -0.8252,0.89448 3.2017,1.92504 7.4988,1.91908 8.2879,2.7954 7.7315,8.58638 -0.5618,5.84656 -1.9812,7.68996 -4.6419,6.02837 -1.5664,-0.97826 -2.4169,-0.5646 -5.6532,2.74963 -5.5234,5.65655 -6.6711,4.24179 -6.2675,-7.72627 0.2242,-6.64868 -0.022,-9.32563 -0.8588,-9.32403 -2.699,0.005 -7.6858,5.77119 -10.7747,12.4585 -1.8626,4.03223 -4.7294,8.35669 -6.5628,9.89933 -3.0609,2.57557 -3.6522,2.70018 -9.8949,2.08504 -6.3685,-0.62754 -6.8816,-0.50845 -12.5687,2.91742 -8.0255,4.83452 -10.7534,5.32802 -14.5415,2.63067 -2.596,-1.84853 -3.4962,-2.00586 -6.1614,-1.07678 -5.8188,2.02845 -18.0105,1.29533 -29.556,-1.77727 -24.8052,-6.6014 -40.6593,-8.75912 -57.8949,-7.87946 -8.9707,0.45784 -10.9938,0.89063 -14.2567,3.04993 -4.7252,3.12695 -6.7935,7.37626 -8.1106,16.66278 -1.763,12.43098 -3.8034,18.56656 -5.5826,16.78737 -0.742,-0.74206 1.6111,-15.81455 3.5916,-23.00529 l 1.8591,-6.75 h -3.5682 c -2.7671,0 -4.2929,0.76834 -6.7958,3.42215 -3.8491,4.08124 -4.5086,6.87429 -4.5086,19.09337 0,9.43843 1.7085,17.80087 7.3519,35.98448 5.1756,16.67644 5.5034,21.91861 2.5948,41.5 l -1.2625,8.5 3.9079,5.24746 c 3.2191,4.32252 4.784,5.5044 8.8786,6.7052 4.4693,1.31068 5.1503,1.2953 6.75,-0.15245 0.9786,-0.8856 1.7793,-2.45457 1.7793,-3.48658 0,-1.03202 0.7303,-2.15666 1.623,-2.49921 1.9688,-0.7555 17.0695,1.45067 19.7505,2.88549 2.1564,1.15408 2.1964,1.41638 -1.2497,-8.19991 -1.9129,-5.33781 -2.1582,-5.57372 -8.3187,-8 -3.4913,-1.375 -6.881,-2.85191 -7.5327,-3.28203 -2.4914,-1.64411 -0.016,-3.51926 5.5435,-4.19886 6.226,-0.7611 19.5158,-4.14762 22.6841,-5.78039 1.1,-0.56688 2.3524,-1.62666 2.7831,-2.35508 1.1617,-1.96461 8.5182,-3.64249 12.6261,-2.87976 1.9749,0.3667 5.2648,1.60362 7.3108,2.7487 3.3156,1.85567 4.1644,1.94882 7.8086,0.85698 6.2518,-1.87308 13.1277,-1.58061 17.7019,0.75298 2.2126,1.12875 4.2856,2.73705 4.6068,3.57401 0.6484,1.68978 -3.7254,5.3794 -9.0873,7.66582 -3.3411,1.42471 -3.7935,2.02084 -2.5084,3.30588 0.4078,0.40788 1.6597,3.29538 2.7819,6.41667 1.8969,5.27615 2.249,5.65981 5.0084,5.45792 1.6325,-0.11944 4.663,-0.97864 6.7347,-1.90935 3.5447,-1.59253 4.1327,-1.59039 9.9837,0.0363 3.4194,0.95069 6.5355,2.24366 6.9247,2.87326 0.4627,0.74882 1.9544,-0.13919 4.3128,-2.5676 3.755,-3.86639 7.8881,-6.38932 12.7524,-7.7844 2.5321,-0.72619 3.0814,-0.45604 4.8292,2.37475 1.0846,1.75678 2.2401,4.31915 2.5677,5.69415 1.2759,5.35569 6.7778,14.91566 8.8175,15.32108 3.7515,0.74567 4.2946,0.68668 5.2577,-0.57108 z m -452.6149,-62.20502 c 10.2927,-5.16974 20.9026,-16.39862 20.9026,-22.12207 0,-1.32259 1.3819,-3.2396 3.5,-4.85511 2.6505,-2.02166 3.5,-3.40933 3.5,-5.71748 0,-2.12352 0.9467,-3.93229 3.1216,-5.96392 l 3.1216,-2.91602 -0.6151,-9.23519 c -0.3383,-5.07936 -0.6718,-9.91019 -0.7412,-10.73519 -0.3109,-3.69909 -4.243,-14.16992 -6.8867,-18.33854 -4.6242,-7.29175 -13.7246,-13.00859 -27.0002,-16.96162 -3.025,-0.90074 -10.0499,-3.00169 -15.6109,-4.66877 -11.8924,-3.56516 -18.1916,-3.80114 -37.6807,-1.41162 -15.3984,1.88797 -31.3951,1.44836 -42.708399,-1.17368 -10.9195,-2.53078 -31.2777,-2.56823 -36.00002,-0.0662 -5.1061,2.70535 -8,5.66433 -8,8.17993 0,1.21597 -0.70921,4.4068 -1.57602,7.09073 -1.41349,4.37662 -1.42073,5.33064 -0.0702,9.25068 l 1.50586,4.37079 -3.88811,5.14976 c -4.12569,5.46444 -11.97156,19.15413 -11.97156,20.88831 0,0.56802 -0.74474,1.8557 -1.65498,2.86151 -1.82684,2.01863 -8.22144,2.50043 -11.30236,0.85157 -2.74916,-1.47131 -6.61603,-8.74473 -8.42861,-15.8539 -0.88781,-3.48208 -2.28916,-7.29471 -3.11412,-8.4725 -1.9904403,-2.84175 -1.9262303,-11.5459 0.13949,-18.90807 1.79597,-6.40077 1.53228,-7.4858 -1.43352,-5.89856 -2.4013603,1.28517 -5.2121603,7.99218 -5.1884403,12.38043 0.0168,3.1024 1.87466,14.8424 3.9768,25.12937 0.69384,3.39535 0.65895,6.77252 -0.11365,11 -2.30954,12.63725 -2.28359,13.13372 1.0039103,19.20343 4.69555,8.66942 12.26408,18.16659 15.61548,19.59471 1.76586,0.75247 5.26261,1.09645 8.5,0.83615 10.83081,-0.87083 17.53729,-0.43014 23,1.51136 5.02836,1.78712 7.79774,1.92928 32.29482,1.65777 14.737199,-0.16334 30.061899,0.15742 34.054899,0.71279 6.7967,0.94534 7.5704,0.85261 12.1246,-1.45302 2.6756,-1.35454 5.6511,-2.46279 6.6123,-2.46279 5.8208,0 14.9017,-6.96992 19.8135,-15.20778 3.7176,-6.23478 11.1295,-11.27788 11.085,-7.54222 -0.022,1.84666 -12.6677,18.50976 -14.9906,19.75293 -2.6453,1.41575 -2.5707,3.381 0.1019,2.6821 4.7934,-1.2535 6.6362,2.43703 2.9036,5.81497 -1.1,0.99548 -2,2.17051 -2,2.61118 0,0.98154 11.9414,1.71564 21.6926,1.33356 5.363,-0.21014 8.5184,-0.94776 12.4048,-2.89976 z m 191.6723,-8.09627 c 2.863,-2.00531 4.3817,-4.89042 3.6197,-6.87627 -0.4657,-1.21363 -2.1192,-1.56933 -7.2464,-1.55879 -12.7424,0.0262 -14.175,1.81229 -5.393,6.72376 6.7542,3.7774 6.2158,3.67526 9.0197,1.7113 z m -42.1111,-17.10578 c -0.8189,-1.56361 -2.4271,-3.83662 -3.5738,-5.05112 -3.7082,-3.92755 -2.3318,-7.24693 1.971,-4.75346 1.3443,0.77901 4.4374,2.38331 6.8735,3.56512 4.3097,2.09073 4.5735,2.10327 9.7718,0.46464 6.3306,-1.99552 11.6647,-1.4541 21.2957,2.16152 5.7267,2.14987 6.9715,2.30035 10.5,1.26929 2.2018,-0.64334 5.5307,-2.05448 7.3977,-3.13586 4.7975,-2.77876 6.1055,-1.89921 6.1055,4.10555 0,2.76727 0.17,5.03139 0.3779,5.03139 0.2078,0 1.8953,-0.62141 3.75,-1.3809 1.8546,-0.75949 6.5221,-1.70031 10.3721,-2.0907 12.3434,-1.25162 15.5844,-4.11425 17.3964,-15.36553 0.657,-4.0797 2.8681,-9.88678 6.4616,-16.97034 3.0045,-5.92262 6.2189,-13.45133 7.1431,-16.73047 0.9241,-3.27913 2.8174,-9.46421 4.2074,-13.74462 3.3666,-10.36778 2.9544,-17.88701 -1.3144,-23.97262 -6.4047,-9.13055 -10.3294,-4.53124 -6.4395,7.54647 2.8325,8.79447 2.7191,15.30066 -0.422,24.20871 -4.1478,11.76296 -11.6693,15.65018 -17.0326,8.80268 -1.1,-1.4044 -4.9806,-5.53454 -8.6234,-9.17807 -6.8336,-6.83476 -11.3319,-14.29136 -13.3472,-22.12461 -1.1444,-4.44821 -1.2154,-4.50713 -6.1645,-5.11896 -7.593,-0.93869 -13.7641,-4.97492 -16.9601,-11.09272 -1.2892,-2.46795 -1.2422,-2.805 0.5236,-3.75 3.1078,-1.66328 7.1844,-1.19904 12.9209,1.47145 6.5083,3.02976 11.192,3.20703 13.6276,0.51576 2.7903,-3.08325 4.8447,-3.2513 11.1063,-0.9085 4.4276,1.65658 5.9201,1.87295 6.2428,0.90502 0.2332,-0.69963 1.2677,-2.1158 2.299,-3.14705 1.0312,-1.03125 1.875,-2.28475 1.875,-2.78555 0,-1.39231 -10.0469,-6.08945 -13.0249,-6.08945 -2.7153,0 -11.9751,5.48566 -11.9751,7.09423 0,2.18458 -2.7451,0.41263 -10.1448,-6.54847 -13.4905,-12.69092 -24.4421,-16.36053 -45.4327,-15.22337 -8.5898,0.46535 -12.4281,1.31858 -26,5.77974 -8.7574,2.87858 -16.8894,5.94571 -18.0712,6.81583 -1.1818,0.87012 -3.5499,4.12436 -5.2625,7.23164 -1.7126,3.10728 -4.5707,8.0813 -6.3513,11.05339 -1.7806,2.97208 -4.0978,7.96642 -5.1493,11.09853 -1.8824,5.60716 -1.8824,5.75612 0,9.68514 2.2578,4.7126 3.1375,4.98768 4.0402,1.26334 0.3666,-1.5125 2.4328,-6.2411 4.5914,-10.50799 2.1587,-4.2669 5.0378,-10.3419 6.3981,-13.5 l 2.4731,-5.74201 -0.4618,4.33536 c -0.254,2.38446 -2.3526,8.23446 -4.6636,13 -6.2155,12.81725 -6.9402,16.43309 -6.9537,34.69213 -0.014,18.79916 0.1302,19.15989 8.9823,22.47033 7.2654,2.71709 10.0058,5.78836 10.0058,11.21396 0,5.70072 3.6411,8.96461 12.5,11.20501 3.85,0.97366 9.25,2.54621 12,3.49455 2.75,0.94834 5.1457,1.62307 5.3237,1.49939 0.1781,-0.12368 -0.3462,-1.50419 -1.1651,-3.0678 z m 41.3414,3.10204 c 0,-0.30527 -2.5875,-1.69937 -5.75,-3.09801 -7.1122,-3.14539 -14.3394,-3.87506 -20.2147,-2.04089 l -4.4646,1.39381 2.4646,1.39242 c 1.545,0.87283 7.1292,1.60816 14.9647,1.97054 6.875,0.31796 12.6125,0.6589 12.75,0.75763 0.1375,0.0987 0.25,-0.0702 0.25,-0.3755 z m -126.2125,-9.97797 c 3.4399,-2.04912 6.3987,-4.00497 6.5751,-4.34634 0.1765,-0.34136 -0.022,-4.67066 -0.4401,-9.62066 -0.4186,-4.95 -0.4165,-9.35839 0,-9.79642 0.4212,-0.43803 1.526,1.19437 2.4552,3.62754 3.6493,9.55541 8.6495,10.20866 12.7742,1.66888 2.5611,-5.30248 2.6912,-5.41022 3.6232,-3 0.9579,2.47736 0.982,2.46378 2.6599,-1.5 2.6648,-6.29509 5.7831,-20.59986 5.2215,-23.95299 -2.1762,-12.9942 -4.2892,-17.46464 -12.671,-26.80688 -7.5075,-8.36782 -15.457,-14.09866 -29.8009,-21.48374 -17.2641,-8.88851 -26.4291,-14.36605 -36.5122,-21.82189 -4.6908,-3.46856 -9.8574,-6.99353 -11.4813,-7.83327 -4.8069,-2.48575 -17.2909,-5.60123 -22.4447,-5.60123 -4.6091,0 -4.7655,0.094 -4.1617,2.5 0.8614,3.43204 -0.038,3.16148 -5.4359,-1.63514 -5.576,-4.955 -12.6778,-8.44086 -20.1534,-9.89225 -5.5675,-1.08093 -13,-3.83097 -13,-4.81003 0,-0.29353 1.0007,-1.59888 2.2238,-2.9008 1.8856,-2.00717 1.9997,-2.50885 0.75,-3.29914 -2.2748,-1.43856 -2.9522,-1.19729 -6.1004,2.17287 -2.6011,2.78445 -3.6981,3.19054 -9.7986,3.62702 -6.0078,0.42986 -7.0045,0.78769 -7.9453,2.85264 -2.2632,4.96701 0.5956,6.93467 6.9129,4.75816 3.3189,-1.14344 4.4463,-1.20066 5.0305,-0.25529 0.9069,1.46737 -2.87,10.30951 -7.048,16.50008 -3.2966,4.88465 -3.7078,6.38188 -1.7528,6.38188 0.6997,0 2.9468,1.38032 4.9935,3.06738 2.0467,1.68706 6.5363,4.21125 9.9769,5.60931 3.4407,1.39806 7.5185,3.4411 9.0619,4.54009 3.6432,2.59417 7.2512,8.37183 8.6753,13.89209 0.623,2.41512 1.5924,5.85363 2.1541,7.64113 l 1.0213,3.25 h 7.2891 c 5.6901,0 9.4571,0.74698 17.1724,3.40522 5.4359,1.87286 12.3584,4.14023 15.3834,5.03859 5.7296,1.70156 6.5049,2.00336 14.1624,5.51294 5.6541,2.59139 16.3191,13.61699 18.9714,19.61284 3.0304,6.85072 5.8342,19.41595 5.8508,26.22025 0.015,6.28402 -2.7763,14.21016 -5.0049,14.21016 -4.2955,0 5.718,5.54658 11.5203,6.38123 7.1559,1.02935 12.9691,-0.15037 19.2875,-3.91423 z m -37.7086,-71.05033 c 0.048,-1.16495 0.285,-1.4019 0.6042,-0.60417 0.2889,0.72187 0.2533,1.58437 -0.079,1.91667 -0.3323,0.33229 -0.5687,-0.25834 -0.5253,-1.3125 z m -171.431809,0.61248 c 4.71384,-2.70358 9.93741,-7.77797 8.98601,-8.72937 -0.21719,-0.21719 -2.88875,0.82821 -5.93679,2.32311 l -5.5419,2.71801 -7.20798,-1.58167 c -6.50547,-1.42751 -7.75564,-1.43239 -12.82721,-0.05 -3.09058,0.84241 -6.6165,1.75201 -7.83537,2.02132 -1.28292,0.28347 -5.01484,-0.82 -8.8622803,-2.62043 -7.57764,-3.54601 -7.42159,-3.50524 -7.42159,-1.93884 0,2.47626 3.36256,4.65323 11.4053303,7.38395 7.84392,2.66322 8.4502,2.73212 10.04125,1.14107 3.58026,-3.58026 12.26163,-3.43252 15.96587,0.27172 2.62466,2.62466 3.107,2.57562 9.23466,-0.93885 z M 483.51647,142.76033 c -16.6971,-3.63129 -34.1575,-14.44377 -41.6774,-25.809 -1.2037,-1.8192 -3.3481,-3.14954 -6.3868,-3.96228 -8.5394,-2.28393 -9.1604,-7.06167 -3.345,-25.735553 3.5967,-11.549557 7.9228,-18.329269 15.0019,-23.510883 2.246,-1.644014 7.03,-5.214504 10.6311,-7.934422 l 6.5474,-4.945305 13.0686,-0.296599 c 9.1987,-0.208768 14.7736,0.145194 18.8261,1.195305 12.5398,3.249382 18.6653,1.967498 34.0721,-7.130303 l 7.6477,-4.515972 0.4913,-7.68091 c 0.4258,-6.656757 1.376,-10.624252 4.1149,-17.180911 0.4221,-1.010485 -0.9863,-2.805372 -4.3156,-5.4999994 -7.5933,-6.1458186 -6.9523,-6.8691351 5.3447,-6.0309708 7.1252,0.4856526 10.5975,0.3661665 11.059,-0.3805489 0.4122,-0.6670093 4.5376,-1.0884803 10.6542,-1.0884803 8.5969,0 10.3787,0.2936528 12.8448,2.1169422 2.7347,2.0218307 3.2533,2.0615787 11.5442,0.8846902 9.8066,-1.3920521 11.7902,-0.7272965 9.6328,3.2281613 -1.8401,3.3738607 -4.2943,6.0603327 -7.3136,8.0058667 l -2.6923,1.734836 3.4096,5.066713 c 3.6662,5.447984 5.193,9.719514 6.1461,17.195027 0.6679,5.238996 -0.6019,7.767763 -3.9005,7.767763 -1.2146,0 -1.771,0.484993 -1.4341,1.25 6.3349,14.38517 8.1914,25.090446 5.674,32.718249 -1.0881,3.296945 -1.0467,4.483949 0.2711,7.777644 0.8554,2.137798 2.0903,7.545955 2.7442,12.01813 1.0764,7.36174 1.0132,8.48918 -0.6684,11.91385 -1.0216,2.08044 -3.6574,4.9982 -5.8574,6.48389 -4.5236,3.05487 -14.4293,5.18102 -19.605,4.20798 -3.6817,-0.69218 -7.895,-3.91771 -7.895,-6.04406 0,-0.72912 -0.2429,-1.32568 -0.5399,-1.32568 -0.8968,0 -8.7882,4.14066 -11.4601,6.01324 -7.8665,5.51304 -25.3981,14.81013 -33.5,17.76512 -9.3079,3.39487 -27.7309,4.20856 -39.1347,1.72847 z m 32.1347,-4.45955 c 10.8004,-2.61736 26.5349,-10.63672 43.6213,-22.23238 7.2308,-4.90722 11.6511,-5.20274 12.5242,-0.83733 0.8476,4.23798 2.8554,5.4698 8.7174,5.34833 6.4244,-0.13313 13.69,-3.23153 16.0601,-6.84877 1.5042,-2.29572 1.6976,-3.95214 1.1523,-9.86797 -0.3604,-3.910039 -1.3903,-9.216178 -2.2885,-11.79142 -1.4345,-4.112772 -1.4732,-5.529932 -0.3181,-11.65175 1.7409,-9.226629 0.8017,-15.462173 -3.8434,-25.516384 -4.3721,-9.463502 -8.7373,-14.858496 -14.5306,-17.958523 -3.4646,-1.853913 -5.6099,-2.177015 -13.9412,-2.099649 l -9.8465,0.09144 4.8465,-1.840622 c 7.0632,-2.682488 12.4056,-2.36474 19.5106,1.160425 4.9518,2.456831 5.9288,2.684063 5.3748,1.25 -1.2533,-3.243711 -2.4881,-11.221457 -1.9529,-12.6163 0.2919,-0.760545 1.5169,-1.842269 2.7223,-2.403831 2.1447,-0.999138 2.1488,-1.037263 0.1917,-1.778783 -3.5138,-1.33131 -5.5,-3.685808 -5.5,-6.519855 0,-1.849998 -1.0115,-3.6072619 -3.0767,-5.3450128 -3.7896,-3.1887401 -11.3232,-3.5014527 -17.4233,-0.7232316 -4.2652,1.9424971 -10.3989,8.1042744 -12.9195,12.9786014 -1.6281,3.148433 -3.541,14.679266 -3.253,19.609323 0.1492,2.554809 -0.593,3.462721 -5.4975,6.724536 -8.4076,5.591695 -16.8071,9.623619 -22.6659,10.880104 -4.1856,0.897641 -6.743,0.802991 -13.0983,-0.484769 -5.8329,-1.181895 -11.4577,-1.480808 -21.5173,-1.143484 l -13.6199,0.45671 -4.8888,3.806658 c -2.6889,2.093662 -6.375,4.931658 -8.1913,6.306658 -9.8192,7.433351 -12.8642,11.868527 -15.7911,23 -4.5081,17.145319 -4.453,16.818479 -3.1111,18.435289 0.9787,1.1793 3.2551,1.56471 9.2419,1.56471 11.446,0 15.6661,2.76492 7.8118,5.11814 -2.2,0.65914 -4,1.51652 -4,1.90529 0,1.54601 4.5005,6.28322 9.4264,9.92221 17.5378,12.9559 40.2421,17.90757 60.0736,13.10164 z m 76.2647,-126.586442 3.7353,-3.5391593 -6,0.6531324 c -7.2411,0.7882284 -8.4751,1.6902709 -6.0214,4.4015579 2.5499,2.817577 3.991,2.553994 8.2861,-1.515531 z"
       id="path1" />
  </g>
</svg>
