<?xml version="1.0" encoding="UTF-8" standalone="no"?>
<!-- Created with Inkscape (http://www.inkscape.org/) -->

<svg
   width="210mm"
   height="297mm"
   viewBox="0 0 210 297"
   version="1.1"
   id="svg1"
   xml:space="preserve"
   inkscape:version="1.4.2 (f4327f4, 2025-05-13)"
   sodipodi:docname="ship.svg"
   xmlns:inkscape="http://www.inkscape.org/namespaces/inkscape"
   xmlns:sodipodi="http://sodipodi.sourceforge.net/DTD/sodipodi-0.dtd"
   xmlns="http://www.w3.org/2000/svg"
   xmlns:svg="http://www.w3.org/2000/svg"><sodipodi:namedview
     id="namedview1"
     pagecolor="#ffffff"
     bordercolor="#000000"
     borderopacity="0.25"
     inkscape:showpageshadow="2"
     inkscape:pageopacity="0.0"
     inkscape:pagecheckerboard="0"
     inkscape:deskcolor="#d1d1d1"
     inkscape:document-units="mm"
     inkscape:zoom="1.0396254"
     inkscape:cx="169.29174"
     inkscape:cy="537.21272"
     inkscape:window-width="2560"
     inkscape:window-height="1369"
     inkscape:window-x="-8"
     inkscape:window-y="-8"
     inkscape:window-maximized="1"
     inkscape:current-layer="layer1" /><defs
     id="defs1" /><g
     inkscape:label="Layer 1"
     inkscape:groupmode="layer"
     id="layer1"><path
       style="fill:#000000"
       d="m 92.000016,162.08404 c -0.72761,-0.0522 -3.16839,-0.2251 -5.423959,-0.38427 -6.95892,-0.49106 -8.47331,-0.72666 -9.65729,-1.50241 -3.442,-2.25522 -8.17953,-6.74721 -11.57127,-10.97156 -2.6105,-3.25132 -3.88883,-4.32979 -7.33335,-6.18675 -5.01197,-2.702 -10.937187,-7.51516 -13.013026,-10.57072 -0.344358,-0.50688 -0.864229,-0.99139 -1.155271,-1.07669 -0.572125,-0.16768 -1.437006,-0.47231 -11.244792,-3.96073 -10.015483,-3.56229 -18.81175,-6.4176 -20.393566,-6.61985 -1.71035,-0.21868 -2.6570594,-0.65819 -3.3699794,-1.56452 -1.032495,-1.31261 0.195946,-2.32345 2.2700024,-1.86791 0.68861,0.15124 0.884145,0.0315 1.794411,-1.09891 1.540996,-1.91368 11.652157,-13.04755 16.770318,-18.466582 0.96209,-1.01864 4.065319,-4.352388 6.896064,-7.408328 2.830745,-3.05594 5.814404,-6.27062 6.630354,-7.14375 0.81595,-0.87312 2.4857,-2.65906 3.710557,-3.96875 2.341367,-2.50353 7.728338,-8.098357 13.072738,-13.577159 1.74816,-1.792126 3.2074,-3.289488 3.24275,-3.327472 0.77867,-0.836635 0.45989,-4.731484 -0.43877,-5.36093 -1.19379,-0.836164 -0.59365,-1.754804 1.44365,-2.209826 0.72165,-0.161177 3.42325,-1.385687 6.00355,-2.721134 4.69146,-2.428084 4.69146,-2.428084 4.7625,-8.253282 0.071,-5.825198 0.071,-5.825198 0.79865,-5.908918 0.67339,-0.07748 0.7276,-0.01341 0.7276,0.859896 0,1.233951 0.47517,1.236581 3.175,0.01757 2.38035,-1.074756 2.93065,-1.118924 4.79335,-0.384718 1.54659,0.60961 2.21288,0.558 6.995269,-0.541845 3.29469,-0.757705 4.08638,-0.634696 4.08638,0.634921 0,0.927931 -0.37928,1.212816 -2.17196,1.631407 -0.74903,0.1749 -1.18787,0.579937 -1.66064,1.532724 -0.22825,0.459994 -0.5849,0.592079 -1.88848,0.699386 -1.7765,0.146238 -2.29504,0.454187 -2.895509,1.719581 -0.46447,0.978806 -1.32979,1.455419 -2.6424,1.455419 -0.6466,0 -1.08419,0.194197 -1.49047,0.661459 -0.34045,0.391547 -0.85858,0.661458 -1.26976,0.661458 -0.38205,0 -1.09809,0.297656 -1.59119,0.661458 -0.53045,0.39135 -1.25372,0.661459 -1.7712,0.661459 -2.11537,0 -1.18668,1.75336 1.04359,1.970276 1.05503,0.102611 2.69214,0.345801 3.63802,0.540421 0.94589,0.19462 2.51693,0.436876 3.49121,0.538347 2.372579,0.247103 3.838729,2.179386 1.866199,2.459516 -0.77317,0.109801 -0.65221,0.657159 0.90894,4.112875 1.07693,2.383881 1.93574,5.583529 1.93574,7.211989 0,2.551686 3.18748,8.397828 4.8356,8.868948 0.61464,0.17569 1.24988,0.41857 1.41166,0.53973 0.86412,0.64717 6.981524,-3.865626 6.982234,-5.150787 1.8e-4,-0.322358 0.41036,-2.610169 0.91152,-5.084023 1.89799,-9.368926 2.35254,-12.559563 1.8659,-13.097296 -1.36235,-1.505377 0.0126,-2.899937 2.86526,-2.906096 1.75287,-0.0038 7.09026,-0.39465 9.3721,-0.686334 1.12448,-0.14374 1.12448,-0.14374 1.12448,-4.890028 0,-4.746289 0,-4.746289 -1.85209,-4.746289 -1.01864,0 -1.85579,-0.02976 -1.86033,-0.06615 -0.005,-0.03638 -0.17362,-1.45622 -0.37574,-3.1552 -0.40225,-3.381313 -1.09271,-5.355103 -1.97078,-5.633791 -2.09202,-0.663984 -0.36004,-1.463614 3.17016,-1.463614 2.88878,0 2.88878,0 2.88878,-1.5875 0,-1.5875 0,-1.5875 -0.92604,-1.5875 -1.72307,0 -1.39859,-5.761518 0.33072,-5.872483 1.25678,-0.08064 1.25678,-0.08064 1.32917,-4.812101 0.0724,-4.7314587 0.0724,-4.7314587 1.98437,-4.5538607 4.89829,0.454987 6.37753,0.482323 7.78813,0.143925 1.29306,-0.3102 1.58062,-0.295694 2.68093,0.135241 2.03531,0.7971277 2.80423,0.8046607 4.26324,0.04176 1.4482,-0.757244 1.75379,-0.712227 3.42454,0.504477 1.12763,0.8211847 1.56149,0.8201307 2.77997,-0.0068 1.53934,-1.044623 2.27713,-0.747973 2.27023,0.9128117 -0.0114,2.737367 -2.20528,3.739697 -5.98249,2.733214 -1.95832,-0.521821 -2.37462,-0.387111 -3.035,0.982102 -0.78477,1.62712 -2.14815,2.050594 -3.41402,1.060414 -0.87169,-0.681841 -1.10937,-0.660716 -1.87211,0.166398 -0.35279,0.38256 -1.59393,1.159092 -2.7581,1.725625 -2.11667,1.030061 -2.11667,1.030061 -2.24896,3.868498 -0.13229,2.838437 -0.13229,2.838437 -1.25677,2.919796 -1.12448,0.08136 -1.12448,0.08136 -1.12448,1.785938 0,1.704578 0,1.704578 3.04271,1.704578 3.04271,0 3.04271,0 3.04271,0.686229 0,0.454129 -0.17178,0.73115 -0.50789,0.819044 -0.80243,0.20984 -1.89822,3.474517 -2.07018,6.167644 -0.16343,2.559741 -0.22479,2.636259 -2.11829,2.641782 -1.38906,0.0041 -1.38906,0.0041 -1.38906,4.766552 0,4.7625 0,4.7625 5.49738,4.7625 4.54734,0 5.599,0.07118 6.08542,0.411878 0.73238,0.512982 0.78178,1.607635 0.0826,1.829558 -0.48846,0.15503 -0.48375,0.215731 0.13983,1.803768 1.05105,2.676636 2.12615,6.200974 3.39245,11.120969 1.17844,4.578599 1.87618,6.529661 2.33514,6.529661 0.13028,0 3.2875,-1.666875 7.01605,-3.704167 7.29945,-3.988446 8.1375,-4.27554 8.93366,-3.06045 0.4554,0.695028 0.32022,1.168739 -0.71361,2.500819 -0.60902,0.784701 -0.62381,2.066376 -0.0617,5.341654 0.96645,5.630909 3.59731,11.165809 10.24036,21.544019 2.40761,3.761317 3.88308,6.535787 3.88346,7.302427 7.1e-4,1.437782 6.73336,10.950832 11.04989,15.613212 2.6627,2.87603 3.30827,3.2576 5.79503,3.42522 2.35547,0.15877 3.27113,0.63129 3.25521,1.67984 -0.0283,1.8624 -1.80862,2.32893 -14.271,3.73961 -4.92002,0.55693 -6.31953,2.30818 -3.97684,4.97635 1.3686,1.55875 1.11845,2.99245 -2.42852,13.91855 -2.92945,9.0239 -6.24156,14.6269 -9.34543,15.80941 -0.43657,0.16632 -3.29407,0.4959 -6.35,0.7324 -3.05594,0.2365 -6.80641,0.54061 -8.33438,0.6758 -19.98796,1.76846 -46.33419,2.83328 -54.901044,2.21891 z m 35.454174,-1.40393 c 4.36562,-0.30028 9.36625,-0.667 11.1125,-0.81493 10.63996,-0.9013 12.85798,-1.07954 16.80104,-1.35009 5.47882,-0.37593 6.00043,-0.51098 7.62921,-1.97539 3.02786,-2.72231 5.40572,-7.81767 8.65315,-18.54226 2.24585,-7.41689 2.24909,-7.44098 1.16725,-8.67313 -1.54815,-1.76325 -1.26676,-4.99318 0.49447,-5.67563 0.38997,-0.15111 2.55451,-0.46697 4.81008,-0.70191 10.55517,-1.09945 13.66763,-1.95307 12.45383,-3.41561 -0.26284,-0.31671 -0.85104,-0.41906 -2.4083,-0.41906 -1.99068,0 -2.10391,-0.0344 -3.34104,-1.01558 -4.55655,-3.6138 -13.01913,-15.04698 -14.23618,-19.233472 -0.21653,-0.74484 -1.36912,-2.89312 -2.56132,-4.773948 -9.09814,-14.35343 -11.5943,-20.14786 -11.60082,-26.929429 -0.002,-1.832628 0.0762,-2.171453 0.65946,-2.864571 0.80315,-0.954488 0.81941,-1.171513 0.11599,-1.54797 -0.46852,-0.250744 -1.42955,0.191463 -6.81302,3.134939 -8.01233,4.380838 -7.92422,4.337812 -8.50534,4.153371 -0.76902,-0.244079 -1.44081,-1.997156 -2.7674,-7.221753 -0.67547,-2.660232 -1.83226,-6.529725 -2.57066,-8.598873 -1.58878,-4.452103 -1.63403,-4.735234 -0.78956,-4.940771 1.92319,-0.468088 -0.33591,-0.797498 -5.94283,-0.866551 -5.8001,-0.07143 -5.8001,-0.07143 -5.8001,-5.495391 0,-5.423959 0,-5.423959 1.61581,-5.501748 1.6158,-0.07779 1.6158,-0.07779 1.78223,-2.046617 0.23493,-2.77917 1.41735,-6.17877 2.285,-6.569635 0.55739,-0.251097 0.14535,-0.322303 -2.50804,-0.433417 -3.175,-0.132959 -3.175,-0.132959 -3.175,-2.381917 0,-2.248958 0,-2.248958 1.12448,-2.330317 1.12448,-0.08136 1.12448,-0.08136 1.12448,-2.316112 0,-2.234752 0,-2.234752 -0.8599,-2.167599 -1.55606,0.12152 -0.9511,-0.592187 1.0824,-1.276961 2.5451,-0.857052 3.92191,-1.570001 5.13608,-2.659601 1.18912,-1.067124 1.42297,-1.086762 2.69135,-0.226017 1.17033,0.79421 1.62769,0.635525 2.40111,-0.833086 0.80345,-1.525642 1.64573,-1.895414 3.22589,-1.416221 3.34928,1.015688 5.63765,0.304391 5.63765,-1.752357 0,-1.0542177 -0.0661,-1.0741037 -1.10681,-0.33304 -1.20043,0.854777 -2.51665,0.775493 -3.92578,-0.236472 -1.18536,-0.8512617 -1.18536,-0.8512617 -2.50816,-0.172682 -1.52159,0.78056 -2.66406,0.746388 -4.66697,-0.139593 -1.13248,-0.5009487 -1.29803,-0.5120927 -2.17348,-0.1463057 -1.19134,0.4977747 -3.59135,0.4982497 -6.62339,0.0013 -3.01557,-0.494236 -2.80791,-0.825356 -2.80791,4.4772037 0,4.580507 0,4.580507 -1.32291,4.755998 -1.63212,0.216509 -2.1969,4.385732 -0.59532,4.39465 1.28683,0.0072 1.41958,0.25903 1.33483,2.532464 -0.078,2.093693 -0.078,2.093693 -3.16666,2.168061 -3.08861,0.07437 -3.08861,0.07437 -2.47839,0.684586 0.69769,0.697691 1.32609,3.16572 1.60883,6.318651 0.18388,2.050521 0.18388,2.050521 2.13717,2.050521 1.95329,0 1.95329,0 1.95329,5.276052 0,2.901828 -0.0911,5.332352 -0.20244,5.401162 -0.11133,0.06881 -2.93907,0.320017 -6.28385,0.558235 -7.9658,0.567331 -8.14458,0.620305 -7.00081,2.074369 0.60533,0.769553 0.31939,2.792888 -2.26756,16.04558 -0.85164,4.362882 -1.29284,5.101268 -3.87649,6.487621 -0.77177,0.41413 -2.010864,1.1509 -2.753534,1.63726 -1.47663,0.96703 -1.95699,1.08918 -1.95699,0.49763 0,-0.23068 -0.45105,-0.50813 -1.11801,-0.68773 -2.22792,-0.59991 -4.81709,-5.451307 -5.4985,-10.302678 -0.38618,-2.749485 -0.65985,-3.656883 -1.89972,-6.298884 -1.19617,-2.548873 -1.631729,-4.813617 -0.92576,-4.813617 0.58793,0 0.81317,-0.483813 0.43654,-0.937631 -0.19169,-0.230977 -0.7881,-0.385285 -1.489139,-0.385285 -0.64316,0 -2.03907,-0.179639 -3.10202,-0.399197 -1.06295,-0.219558 -2.99269,-0.487448 -4.28832,-0.595312 -2.35569,-0.196116 -2.35569,-0.196116 -2.4345,-1.69936 -0.0788,-1.503243 -0.0788,-1.503243 1.19062,-1.690845 0.69819,-0.103181 1.55338,-0.408987 1.90043,-0.679569 0.34705,-0.270582 0.90849,-0.491968 1.24765,-0.491968 0.33916,0 0.98205,-0.357187 1.42865,-0.79375 0.65439,-0.639687 1.03892,-0.79375 1.98114,-0.79375 0.96717,0 1.25128,-0.120664 1.64453,-0.69846 1.223789,-1.798111 1.825159,-2.211956 3.214239,-2.211956 1.2478,0 2.15592,-0.445796 2.15592,-1.058334 0,-0.476187 0.87915,-1.072218 1.99654,-1.353581 1.71594,-0.432078 2.37855,-1.77777 0.68615,-1.393494 -0.23855,0.05417 -1.72421,0.39676 -3.30146,0.761321 -3.1936,0.738158 -5.785909,0.839704 -6.789559,0.265962 -1.03661,-0.592579 -2.02161,-0.469454 -4.23334,0.529167 -2.77106,1.25117 -3.70416,1.25117 -3.70416,0 0,-0.509323 -0.11906,-0.926042 -0.26459,-0.926042 -0.16835,0 -0.26458,2.112014 -0.26458,5.806875 0,5.806875 0,5.806875 -4.99739,8.3265 -2.74856,1.385794 -5.48964,2.59834 -6.09128,2.694546 -1.36225,0.217833 -1.55966,0.509641 -0.77476,1.14522 0.76309,0.617905 1.04379,4.086516 0.44549,5.504655 -0.19581,0.464115 -3.3387,3.914211 -6.9842,7.66688 -11.050981,11.375857 -40.159395,42.72893 -43.61059,46.97356 -1.006844,1.23832 -1.044457,1.25677 -2.561859,1.25677 -2.3463434,0 -1.7365604,1.60531 0.75165,1.97879 2.911365,0.43699 8.496093,2.19746 20.563565,6.48222 12.493719,4.43612 12.607193,4.48121 13.186899,5.24041 3.045097,3.98794 8.103925,8.03583 13.860765,11.09089 2.62214,1.39153 3.87632,2.5037 6.84592,6.07075 3.19701,3.84023 6.41062,7.00305 9.55958,9.40849 2.68703,2.05259 3.01952,2.12976 12.241629,2.84131 5.59629,0.43179 30.692284,0.12312 39.555214,-0.48652 z M 71.097937,137.19087 c -9.69426,-2.1269 -18.21919,-5.30861 -17.21039,-6.42332 2.63159,-2.90788 16.036,-3.78597 22.82662,-1.49531 2.3762,0.80155 2.91714,7.96382 0.60147,7.96382 -1.19062,0 -1.19062,0 -1.32291,-1.44215 -0.15344,-1.67273 -1.08041,-2.46646 -2.88047,-2.46646 -2.29401,0 -2.75241,1.09988 -1.06159,2.54716 1.44234,1.23459 1.0631,1.75853 -0.95273,1.31626 z m -0.24107,-1.43032 c -1.71727,-2.04086 0.48855,-3.78528 3.69478,-2.92193 1.61086,0.43376 2.23483,1.1473 2.23483,2.55567 0,1.08261 0.0548,1.18031 0.66146,1.18031 1.3863,0 0.96144,-5.90186 -0.46302,-6.43209 -5.47976,-2.03973 -14.07004,-1.99269 -20.50234,0.11228 -2.05367,0.67206 -2.20485,0.90239 -0.93958,1.43153 2.44855,1.02399 9.9245,3.39189 14.09973,4.46588 2.0016,0.51487 1.98219,0.52113 1.21414,-0.39165 z m 13.35216,0.48512 c -1.18806,-2.74885 -1.80053,-2.41674 7.923279,-4.29638 13.263604,-2.56389 29.063364,-4.15131 29.518314,-2.96573 0.55623,1.44953 0.25554,4.01822 -0.48029,4.10289 -0.95415,0.10979 -0.92224,0.65164 0.0848,1.43976 0.69946,0.54741 0.80061,0.77996 0.72761,1.67283 -0.13992,1.71121 -37.034583,1.75675 -37.773703,0.0466 z m 37.027453,-0.31469 c 0,-0.39907 -0.19026,-0.70402 -0.50071,-0.80255 -1.23673,-0.39252 -1.25318,-2.78716 -0.0192,-2.78716 0.45546,0 0.51986,-0.18532 0.51986,-1.49592 0,-1.49593 0,-1.49593 -4.82865,-1.3303 -6.76581,0.23207 -15.9084,1.45319 -25.333854,3.38368 -2.11005,0.43218 -4.510159,0.91107 -5.333579,1.0642 -1.49711,0.27843 -1.49711,0.27843 -1.09961,1.44505 0.489,1.43514 36.595693,1.95114 36.595693,0.523 z m 8.97506,0.41481 c -0.52075,-0.11127 -1.47325,-0.5793 -2.11667,-1.04008 -0.64342,-0.46077 -1.5568,-0.91443 -2.02975,-1.00814 -1.38647,-0.27469 -1.023,-0.82701 0.92604,-1.40717 4.5173,-1.34466 12.30142,-2.93038 14.38488,-2.93038 0.45687,0 1.73807,-0.28685 2.84712,-0.63745 1.10904,-0.3506 2.90941,-0.83553 4.00082,-1.07761 1.0914,-0.24209 3.71078,-0.83615 5.82083,-1.32013 8.07322,-1.85178 10.70616,-2.06624 10.53436,-0.85806 -0.0814,0.57244 -7.12469,2.41101 -18.47186,4.82187 -1.82376,0.38748 -2.42522,0.6441 -3.18123,1.3573 -0.51985,0.4904 -1.69034,1.14858 -2.64584,1.48777 -1.40309,0.49809 -1.7812,0.76045 -2.0869,1.44806 -0.52296,1.17631 -4.92184,1.81782 -7.9818,1.16402 z m 6.66944,-0.89566 c 0.2199,-0.18191 0.59062,-0.63989 0.82383,-1.01775 0.2332,-0.37786 0.79042,-0.82434 1.23825,-0.99219 0.44784,-0.16784 1.20033,-0.45064 1.67221,-0.62845 0.47187,-0.1778 1.28405,-0.70823 1.80485,-1.17874 0.86229,-0.77903 1.46527,-0.97269 6.74881,-2.16757 11.91238,-2.69398 14.52541,-3.34276 13.79937,-3.42619 -0.66916,-0.0769 -5.08616,0.72738 -9.05578,1.64891 -6.38127,1.48139 -9.63596,2.27316 -10.31875,2.51023 -0.43656,0.15158 -2.2225,0.46217 -3.96875,0.69021 -2.94778,0.38494 -10.56045,1.99934 -11.98904,2.54249 -0.64387,0.2448 1.19129,1.81834 2.52705,2.16679 1.10661,0.28867 6.32922,0.17382 6.71795,-0.14774 z m -88.404922,-4.98986 c -13.713372,-3.83195 -14.674984,-4.34878 -11.178646,-6.00811 3.899128,-1.85049 12.641107,-3.48797 18.621185,-3.48797 1.69912,0 1.70501,-0.0405 -0.80803,5.55625 -2.44612,5.44771 -2.05963,5.21819 -6.634509,3.93983 z m 5.985239,-4.36533 c 1.07374,-2.43002 1.95226,-4.43215 1.95226,-4.44918 0,-0.017 -1.25745,0.0552 -2.79433,0.1604 -9.055718,0.62015 -19.045401,3.26005 -16.520252,4.36569 2.139222,0.93665 15.041682,4.66836 15.311802,4.42854 0.054,-0.048 0.97677,-2.07543 2.05052,-4.50545 z m 22.93978,1.16201 c -4.98954,-5.45458 -6.14636,-40.37544 -1.38755,-41.88583 0.98163,-0.31155 1.04015,0.12787 0.51183,3.84307 -1.09831,7.723368 -0.0212,28.34627 1.75112,33.52857 1.14964,3.36154 0.61101,6.13913 -0.8754,4.51419 z m 0.84382,-1.72842 c -0.10452,-0.8366 -0.33898,-1.81886 -0.52101,-2.18282 -1.84813,-3.69517 -3.1,-29.52482 -1.72885,-35.67114 0.38547,-1.72791 0.2343,-1.94839 -0.51009,-0.74396 -3.37689,5.46393 -1.85383,33.77924 2.11692,39.35564 0.76673,1.07677 0.8587,0.9684 0.64303,-0.75772 z m -46.702172,-0.72417 c -0.730662,-0.2887 -11.768592,-3.86026 -16.073437,-5.20091 -1.941816,-0.60474 -0.963641,-1.23411 5.093229,-3.27704 12.083425,-4.07564 18.594684,-4.49976 20.00863,-1.3033 0.690184,1.56028 0.459216,2.06014 -2.894377,6.26403 -3.322008,4.1643 -3.801092,4.43901 -6.134045,3.51722 z m 5.581792,-4.04264 c 3.298022,-4.12929 3.377863,-4.28659 2.795551,-5.50771 -1.312179,-2.75167 -9.224836,-1.84633 -20.946007,2.39656 -3.345978,1.21119 -3.328175,1.19277 -1.684454,1.74347 1.223923,0.41005 15.2352,4.90493 15.97291,5.12417 0.570064,0.16943 1.270766,-0.51213 3.862,-3.75649 z m 82.803283,1.72382 c -6.17701,-10.53163 -8.37833,-15.29696 -10.08872,-21.83969 -0.43306,-1.656582 -1.32888,-4.505792 -1.99071,-6.3316 -2.27275,-6.26988 -3.39356,-11.01216 -3.96786,-16.78849 -0.30263,-3.04382 1.92875,-4.11665 11.4835,-5.521187 6.76016,-0.993735 6.40163,-1.229941 6.40163,4.217617 0,5.58909 -0.33156,6.21116 -3.57187,6.70146 -0.86844,0.13141 -0.71785,1.37394 0.17907,1.4776 1.25588,0.14514 1.34623,0.50383 0.9917,3.93705 -0.89638,8.680538 -0.21486,24.04944 1.2231,27.58201 1.24258,3.0526 1.97603,9.01263 1.10909,9.01263 -0.18342,0 -0.97944,-1.10133 -1.76893,-2.4474 z m 1.45368,-0.26458 c -0.27744,-2.27724 -0.68035,-3.91843 -1.48996,-6.06917 -1.32445,-3.51846 -1.92071,-17.052852 -1.21879,-27.66521 0.21437,-3.24114 0.21437,-3.24114 -0.43063,-3.24114 -1.67164,0 -1.79622,-3.02314 -0.12653,-3.07053 2.58523,-0.0734 3.15313,-1.20256 3.06204,-6.08841 -0.0838,-4.49448 0.27282,-4.317979 -6.55572,-3.24461 -8.55387,1.34457 -10.18673,2.1853 -9.94667,5.12139 0.39227,4.79773 1.59028,9.83365 3.76357,15.82051 0.78643,2.166398 1.77897,5.274298 2.20564,6.90645 1.4838,5.67594 3.2872,9.74123 8.09373,18.2452 2.98717,5.28505 2.86904,5.13822 2.64332,3.28552 z m -102.444367,-9.8591 c -0.195486,-0.50943 -0.758238,0.15602 8.493593,-10.04355 10.320591,-11.37781 17.86034,-19.41441 21.572201,-22.99375 1.641599,-1.58299 4.85496,-4.97627 7.1408,-7.540621 6.75847,-7.581948 7.46491,-8.031532 6.88149,-4.379422 -0.55041,3.445408 -1.31378,10.055763 -1.31686,11.403133 -0.004,1.94631 -0.15711,2.20445 -1.30377,2.20445 -1.13861,0 -2.05572,0.55081 -1.74749,1.04954 0.15575,0.252 0.77805,0.29319 2.48782,0.16465 11.16364,-0.83923 11.04229,-0.72328 -14.520922,13.874608 -15.621123,8.920452 -19.072537,11.061362 -22.621875,14.032342 -2.392283,2.00247 -4.753148,3.04126 -5.064987,2.22862 z m 0.963945,-0.5258 c 0,-0.0728 -0.05953,-0.13229 -0.132291,-0.13229 -0.07276,0 -0.132292,0.0595 -0.132292,0.13229 0,0.0728 0.05953,0.13229 0.132292,0.13229 0.07276,0 0.132291,-0.0595 0.132291,-0.13229 z m 4.64127,-3.07528 c 2.347148,-2.03467 6.307887,-4.48765 18.642064,-11.545432 C 55.067857,90.41546 64.522707,84.79796 66.335437,83.46038 c 1.64561,-1.21427 1.36267,-1.30293 -2.38236,-0.74656 -4.6945,0.69744 -5.95202,0.51482 -5.95202,-0.86436 0,-0.94766 0.43966,-1.36554 1.44198,-1.37058 1.23535,-0.006 1.37657,-0.23064 1.57894,-2.50949 0.2221,-2.50105 1.11975,-9.656359 1.37749,-10.980205 0.24197,-1.242802 0.0818,-1.095673 -5.25344,4.82701 -2.32601,2.582095 -6.513788,6.987405 -9.306174,9.789585 -5.146055,5.1641 -8.988502,9.27512 -21.005383,22.47359 -7.592224,8.33875 -8.389464,9.96701 -2.292142,4.68141 z m 41.837199,-8.875072 c -0.31969,-0.31969 -0.18888,-0.88109 1.02645,-4.40537 4.45648,-12.923048 4.60384,-13.234358 6.4262,-13.576238 2.09878,-0.39373 2.3755,1.21637 0.72879,4.24054 -1.89576,3.48155 -4.72574,9.115508 -5.82795,11.602358 -1.00099,2.258492 -1.64682,2.845382 -2.35349,2.13871 z m 1.79999,-2.73402 c 0.78344,-1.80705 3.53471,-7.303958 5.56192,-11.112498 1.56027,-2.93129 1.32305,-4.27913 -0.53847,-3.05942 -0.81954,0.53698 -2.03809,3.63761 -5.69627,14.494298 -0.87176,2.587222 -0.51441,2.41599 0.67282,-0.32238 z m -8.99562,-1.60009 c -1.23335,-1.995618 9.83675,-14.502098 11.76299,-13.289268 0.74482,0.46897 0.58713,0.9856 -0.91309,2.99165 -4.40873,5.89518 -10.18345,11.375948 -10.8499,10.297618 z m 2.50964,-2.201878 c 2.59586,-2.21578 9.28777,-10.0289 8.91177,-10.4049 -0.85202,-0.85202 -7.33413,5.86981 -9.68162,10.03968 -1.0279,1.825858 -0.97225,1.852258 0.76985,0.36522 z m 18.93444,-9.68362 c -0.27937,-0.45202 -0.48887,-5.47945 -0.23488,-5.63642 0.63786,-0.39422 14.302509,-2.39149 14.696359,-2.14807 0.80096,0.49502 -1.01566,1.67481 -8.187469,5.31729 -5.32855,2.70632 -5.97026,2.95867 -6.27401,2.4672 z m 8.329329,-4.38039 c 5.78303,-3.10829 5.32325,-2.82005 4.23333,-2.65397 -0.50932,0.0776 -2.53338,0.38215 -4.49791,0.67676 -8.087199,1.21277 -7.530009,0.99939 -7.620899,2.91843 -0.16269,3.43487 -0.28305,3.44924 7.885479,-0.94122 z m -25.352519,0.22002 c 0.098,-0.50869 3.52571,-3.08004 5.90565,-4.43018 3.62746,-2.05787 7.87214,-2.39019 8.01866,-0.6278 0.23169,2.78662 -0.92696,3.31368 -11.19366,5.09189 -2.93361,0.50811 -2.83526,0.50933 -2.73065,-0.0339 z m 6.5671,-1.41462 c 5.63576,-1.07454 6.87917,-1.73465 6.87917,-3.65202 0,-0.87627 -3.47857,-0.44464 -6.02678,0.74781 -2.25116,1.05344 -6.97447,4.32417 -5.56248,3.85182 0.18946,-0.0634 2.309,-0.4898 4.71009,-0.94761 z m 54.735003,0.89481 c -0.4009,-0.48432 -0.53542,-7.209972 -0.16244,-8.121615 0.1893,-0.462685 0.55696,-0.484245 6.48229,-0.380122 9.80552,0.172307 9.9061,0.385838 2.33551,4.957987 -6.02687,3.63985 -7.93061,4.41929 -8.65536,3.54375 z m 4.66396,-2.11717 c 3.5566,-1.97665 8.33438,-4.935273 8.33438,-5.161035 0,-0.470966 -12.11952,-0.889293 -12.57477,-0.434041 -0.21469,0.214691 -0.21011,6.741206 0.005,7.089226 0.29837,0.48278 1.33858,0.11582 4.23541,-1.49415 z M 79.863537,75.89539 c -1.12741,-4.491936 1.02289,-5.807702 6.58225,-4.02768 6.408589,2.05193 6.685379,3.22723 0.937589,3.98125 -6.207299,0.81429 -7.325389,0.8212 -7.519839,0.0464 z m 8.167729,-0.83852 c 1.30969,-0.21601 2.50031,-0.39847 2.64583,-0.40545 1.0761,-0.0517 -4.456799,-2.25869 -6.957119,-2.775144 -2.93804,-0.606869 -3.21843,-0.390006 -3.22572,2.494864 -0.004,1.57455 1.38308,1.70075 7.537009,0.68573 z M 125.99898,18.702725 c 0,-0.07276 -0.0595,-0.132292 -0.13229,-0.132292 -0.0728,0 -0.1323,0.05953 -0.1323,0.132292 0,0.07276 0.0595,0.132292 0.1323,0.132292 0.0728,0 0.13229,-0.05953 0.13229,-0.132292 z"
       id="path1" /></g></svg>
