<?xml version="1.0" encoding="UTF-8" standalone="no"?>
<!-- Created with Inkscape (http://www.inkscape.org/) -->

<svg
   width="210mm"
   height="297mm"
   viewBox="0 0 210 297"
   version="1.1"
   id="svg1"
   xml:space="preserve"
   inkscape:version="1.4.2 (f4327f4, 2025-05-13)"
   sodipodi:docname="victory-point.svg"
   xmlns:inkscape="http://www.inkscape.org/namespaces/inkscape"
   xmlns:sodipodi="http://sodipodi.sourceforge.net/DTD/sodipodi-0.dtd"
   xmlns="http://www.w3.org/2000/svg"
   xmlns:svg="http://www.w3.org/2000/svg"><sodipodi:namedview
     id="namedview1"
     pagecolor="#ffffff"
     bordercolor="#000000"
     borderopacity="0.25"
     inkscape:showpageshadow="2"
     inkscape:pageopacity="0.0"
     inkscape:pagecheckerboard="0"
     inkscape:deskcolor="#d1d1d1"
     inkscape:document-units="mm"
     inkscape:zoom="0.5198127"
     inkscape:cx="-42.322937"
     inkscape:cy="360.70685"
     inkscape:window-width="2560"
     inkscape:window-height="1369"
     inkscape:window-x="-8"
     inkscape:window-y="-8"
     inkscape:window-maximized="1"
     inkscape:current-layer="layer1" /><defs
     id="defs1" /><g
     inkscape:label="Layer 1"
     inkscape:groupmode="layer"
     id="layer1"><path
       id="path7"
       style="fill:#000000;stroke-width:0.468786"
       d="m 49.529357,29.140735 c -0.933283,0.03333 -1.86866,0.498974 -2.388664,1.277069 -0.660625,0.988406 -0.675202,2.332369 -0.03418,3.216619 0.133953,0.184838 0.243854,0.392478 0.243854,0.461561 0,0.151863 -6.065247,8.20959 -6.617993,8.792052 -0.214543,0.226069 -0.805675,0.616301 -1.313773,0.867759 -0.888722,0.439843 -0.973441,0.457208 -2.23502,0.457208 -1.237458,0 -1.360348,-0.02335 -2.177169,-0.419885 -0.743719,-0.361046 -1.1667,-0.7248 -3.003259,-2.583372 l -2.137366,-2.163488 0.354569,-0.455342 c 0.733876,-0.941965 0.840171,-2.078417 0.292363,-3.127044 -1.099647,-2.104964 -4.051625,-2.111615 -5.142486,-0.01173 -0.734184,1.413153 -0.210744,3.170737 1.165716,3.912009 l 0.421751,0.227048 1.030113,4.132276 c 0.56658,2.27289 0.991234,4.195907 0.94365,4.272862 -0.04757,0.07699 -0.005,0.233879 0.09456,0.348969 0.09947,0.115082 0.390886,1.062004 0.647553,2.103772 0.467169,1.896164 0.709233,2.416763 1.228548,2.643713 0.157603,0.06852 7.598759,0.09766 18.680773,0.07278 16.972624,-0.03814 18.450191,-0.0577 18.818258,-0.250063 0.219683,-0.114815 0.45304,-0.308067 0.518162,-0.429836 0.06512,-0.121779 0.321435,-1.028126 0.569176,-2.014198 0.247743,-0.986062 0.485133,-1.876411 0.527504,-1.97874 0.0425,-0.102329 0.08619,-0.270278 0.09822,-0.372608 0.01199,-0.102316 0.490186,-2.072337 1.063082,-4.377987 l 1.041933,-4.191993 0.504476,-0.296096 c 1.549333,-0.90925 1.827216,-3.088736 0.566697,-4.447656 -1.110283,-1.196942 -3.140823,-1.196942 -4.251093,0 -0.994914,1.07257 -1.074036,2.514405 -0.205899,3.745361 l 0.380695,0.539939 -2.156645,2.16349 c -2.746814,2.755809 -3.096404,2.957225 -5.133156,2.957225 -1.282488,0 -1.412504,-0.024 -2.170331,-0.395624 -0.443422,-0.217445 -1.043606,-0.63766 -1.333683,-0.934318 -0.290065,-0.296656 -1.916102,-2.404447 -3.613482,-4.683413 l -3.086607,-4.143475 0.321592,-0.485821 c 0.380875,-0.575633 0.509892,-1.777385 0.268735,-2.508105 -0.201627,-0.610925 -0.931972,-1.405742 -1.549527,-1.686998 -0.384052,-0.17491 -0.807444,-0.24904 -1.231667,-0.233891 z m -18.204289,26.917962 -0.421744,0.421749 -0.421751,0.42175 v 2.195215 2.195213 l 0.421751,0.42175 0.421744,0.421749 h 18.319993 18.319368 l 0.429831,-0.429214 0.429844,-0.429836 -0.03925,-2.247467 -0.03852,-2.247465 -0.405577,-0.362033 -0.404949,-0.361411 h -18.30506 z" /><path
       id="path1"
       style="fill:#000000;stroke-width:1.25989"
       d="M 70.44792,0 C 68.460708,0 72.786237,6.4973519 75.750204,7.9644943 79.885379,10.011363 80.531089,7.0369012 76.69946,3.5919325 75.041129,2.1009655 71.384624,0 70.44792,0 Z M 29.570064,0.02799477 C 29.167988,0.02194729 28.39911,0.35278318 27.068666,1.0176147 23.304655,2.8985052 20.289481,6.2901276 20.839914,8.024392 21.254758,9.3314527 23.998525,8.5688826 26.272413,6.5145683 27.908192,5.036742 29.583261,2.4979104 29.870857,1.0599345 30.007385,0.37727544 29.972139,0.03399436 29.570064,0.02799477 Z M 82.234175,4.4982157 c -0.556287,-0.00529 -0.7331,1.1387936 -0.7331,3.5112012 0,2.9853741 1.018595,5.3610311 2.819117,6.5744701 1.377589,0.92806 1.517921,0.929125 2.162191,0.0091 1.11625,-1.593661 0.390698,-4.452841 -1.968824,-7.7594107 C 83.416444,5.2960779 82.695098,4.5025435 82.234175,4.4981716 Z m -64.390468,0.087247 c -0.243279,-0.00164 -0.568263,0.2273624 -0.995481,0.6536715 -3.129454,3.1227644 -4.668317,7.4437308 -3.330855,9.3532198 0.285403,0.407474 0.638702,0.740914 0.784535,0.740914 0.787633,0 2.599306,-1.710776 3.343876,-3.157672 0.7118,-1.383184 0.852898,-2.112534 0.852898,-4.4005581 0,-2.2171325 -0.156834,-3.1862566 -0.654973,-3.1895752 z m 8.905937,6.4253753 c -1.412939,0.03043 -3.047133,0.209383 -4.106927,0.520853 -2.438455,0.716638 -4.938113,2.594135 -4.966335,3.729309 -0.0058,0.235083 0.326448,0.570981 0.738961,0.746773 1.441655,0.614361 4.099656,0.169139 6.65455,-1.114626 2.859573,-1.43688 4.798534,-2.962241 4.460455,-3.509248 -0.176044,-0.284848 -1.367766,-0.403491 -2.780704,-0.373061 z m 46.801258,0.01172 c -1.324242,-0.03887 -2.495054,0.06142 -2.883573,0.318372 -0.424104,0.280477 -0.373489,0.43361 0.333347,1.011106 1.550837,1.267047 3.492319,2.440174 5.333536,3.22278 1.957214,0.831893 4.979163,0.912987 5.738499,0.153651 0.95564,-0.955639 -1.666127,-3.285566 -4.716977,-4.191566 -1.00279,-0.2978 -2.480589,-0.475469 -3.804832,-0.514343 z M 8.4403548,16.431617 c -0.5037798,0.01741 -1.1142207,1.110615 -1.7715521,3.186971 -1.0945041,3.457315 -0.7294336,6.398588 0.9127956,7.355096 0.8419344,0.490387 1.0252774,0.448725 1.9089268,-0.434911 1.0479379,-1.047939 1.6240669,-3.272098 1.3392439,-5.171421 -0.233887,-1.559681 -1.5403212,-4.481533 -2.1804211,-4.877139 -0.067467,-0.04169 -0.1370244,-0.06108 -0.2089931,-0.0586 z m 83.1196952,0 c -0.07197,-0.0025 -0.141528,0.01691 -0.208992,0.0586 -0.640112,0.395606 -1.946535,3.317458 -2.180421,4.877139 -0.284824,1.899323 0.291291,4.123482 1.339243,5.171421 0.904916,0.904916 0.968197,0.920468 1.843821,0.451839 1.697211,-0.908318 2.088511,-3.86178 0.97725,-7.372024 -0.65733,-2.076356 -1.267129,-3.169554 -1.770901,-3.186972 z m -68.93361,1.588602 c -0.660479,0.02331 -1.602785,0.183653 -2.72992,0.477233 -3.690106,0.961145 -6.409661,2.822266 -7.206656,4.931827 -0.308937,0.817732 -0.261272,0.965844 0.395849,1.239631 1.906177,0.794185 5.453839,-0.81434 8.487302,-3.847804 1.151036,-1.151035 2.092527,-2.256162 2.092527,-2.456472 0,-0.253799 -0.378623,-0.367727 -1.039102,-0.344415 z m 54.746874,0 c -0.660481,-0.02331 -1.039102,0.08997 -1.039102,0.343764 0,0.20031 0.940474,1.305071 2.089922,2.454519 1.959835,1.959823 3.9749,3.279052 5.910382,3.86994 1.20065,0.366528 1.956431,0.359113 2.678486,-0.02735 0.532947,-0.285227 0.579433,-0.484827 0.290376,-1.250047 -0.789901,-2.09104 -3.522598,-3.955716 -7.200143,-4.913598 -1.127129,-0.293579 -2.069441,-0.453919 -2.729921,-0.477232 z M 17.795528,28.053153 c -0.107847,-0.0015 -0.270333,0.04093 -0.501321,0.109384 -4.806746,1.424256 -9.4226764,5.956475 -8.5042289,8.349926 0.2699933,0.703574 2.1764769,0.426194 3.7599079,-0.546895 2.047939,-1.25853 4.762897,-4.885082 5.304889,-7.085556 0.150047,-0.609215 0.178021,-0.823532 -0.05925,-0.826854 z m 64.408698,6.51e-4 c -0.237466,0.0034 -0.209801,0.218011 -0.06185,0.826854 0.657058,2.704179 4.437293,7.117184 6.644784,7.756805 2.363315,0.684776 2.908537,0.215376 2.261155,-1.945386 -0.690723,-2.305423 -4.71387,-5.45448 -8.342115,-6.529545 -0.230844,-0.0684 -0.394032,-0.110291 -0.501972,-0.108728 z M 2.1647258,29.667142 c -0.6617398,-0.01872 -0.833365,1.06634 -0.833365,3.588678 0,2.933265 0.7573067,4.90076 2.2396684,5.819233 1.3356351,0.827559 2.0076999,0.725828 2.5853849,-0.391292 C 7.2865988,36.498229 6.1916948,32.784194 3.7976004,30.682155 3.0613053,30.035682 2.5359457,29.677647 2.1647258,29.667142 Z m 95.6709542,0 c -0.371223,0.01046 -0.896579,0.36854 -1.632874,1.015013 -2.394158,2.102039 -3.489637,5.816074 -2.359465,8.001606 0.570617,1.10345 1.092002,1.207531 2.474052,0.492858 1.495956,-0.773598 2.351001,-2.92706 2.351001,-5.920799 0,-2.522338 -0.17097,-3.607402 -0.832714,-3.588678 z m -81.841002,9.057637 c -0.130307,-0.0024 -0.309361,0.03282 -0.554708,0.0944 -0.490551,0.123116 -1.692257,0.754915 -2.670676,1.404351 -3.1616533,2.098586 -5.1136557,5.033729 -4.6297318,6.961853 0.11974,0.477083 0.4444314,0.812404 0.7819309,0.808624 1.1538579,-0.01464 3.3157289,-1.270297 4.3621439,-2.533299 1.36465,-1.647118 3.048293,-4.988041 3.048293,-6.049058 0,-0.493979 -0.05058,-0.681712 -0.337252,-0.686875 z m 68.018862,6.5e-4 c -0.286108,0.0016 -0.345717,0.172074 -0.345717,0.608097 0,1.038237 1.763255,4.586856 3.044387,6.127186 0.591518,0.711195 1.686063,1.570604 2.432385,1.909578 1.840385,0.835874 2.470209,0.792835 2.715598,-0.184903 0.483936,-1.928124 -1.467426,-4.863267 -4.629083,-6.961853 -0.978419,-0.649436 -2.180775,-1.28126 -2.671326,-1.404351 -0.239351,-0.06007 -0.416196,-0.09447 -0.546244,-0.09375 z M 0.56896199,42.667637 c -0.61098398,0 -0.64867524,0.168375 -0.48764865,2.174562 0.23462952,2.922958 1.64305786,5.772305 3.25012356,6.575119 h 6.51e-4 c 1.5088824,0.753831 2.2278704,0.737647 2.6550488,-0.06055 0.4454343,-0.833417 0.441167,-2.72396 -0.00976,-3.917467 -0.6559409,-1.736066 -4.096867,-4.771666 -5.40841295,-4.771666 z m 98.86443401,0 c -1.313964,0 -4.75437,3.03371 -5.411012,4.771666 -0.457429,1.212115 -0.452729,3.087545 0.01046,3.952624 h -6.51e-4 c 0.292042,0.545683 0.572343,0.639912 1.416721,0.474627 2.481946,-0.485814 4.132555,-3.033305 4.454596,-6.87461 0.18152,-2.165298 0.14945,-2.324307 -0.47007,-2.324307 z M 15.71537,49.093011 c -0.853627,-0.0271 -4.022653,3.291328 -5.032742,5.312702 -1.1022034,2.205703 -1.2293478,3.098918 -0.628279,4.418137 0.296362,0.650179 0.554433,0.804869 1.083373,0.647811 1.888248,-0.560677 3.474529,-2.355445 4.323733,-4.890811 0.653857,-1.952112 0.854814,-5.288744 0.329439,-5.474817 -0.02256,-0.0079 -0.04799,-0.01209 -0.07553,-0.01303 z m 68.569013,0 c -0.02753,8.81e-4 -0.05231,0.0057 -0.07488,0.01367 -0.524417,0.185897 -0.337254,3.342817 0.322929,5.444868 0.639634,2.0366 2.18408,4.023095 3.610163,4.644057 1.368758,0.596016 1.3618,0.59729 1.805408,-0.376315 0.598801,-1.314217 0.470987,-2.209843 -0.630233,-4.413581 -1.01015,-2.021496 -4.179857,-5.339983 -5.033394,-5.312702 z M 1.0546576,55.345202 c -0.4403107,0.003 -0.38749925,0.245939 -0.21940933,1.024127 0.54419703,2.519353 2.22635113,5.065943 4.10497363,6.213778 0.6736131,0.411581 1.716094,0.749097 2.3164948,0.750029 0.8810666,0.0014 1.1576604,-0.172402 1.4349497,-0.901727 C 9.6621977,59.878695 6.0406628,56.109147 1.9960996,55.462394 1.5568743,55.392156 1.2547988,55.343851 1.0546576,55.345199 Z m 97.8923924,0 c -0.19949,-0.0015 -0.500991,0.04653 -0.938838,0.11654 -4.025715,0.643741 -7.661058,4.442099 -6.691661,6.991802 0.268395,0.705917 0.552825,0.880851 1.427139,0.879591 2.611437,-0.004 5.623793,-3.270968 6.421467,-6.963807 0.168091,-0.778188 0.220771,-1.020941 -0.218107,-1.024126 z m -17.494806,3.104936 c -0.167028,-0.0032 -0.262017,0.242764 -0.440771,0.705756 -1.558522,4.03674 -1.081378,8.025958 1.171268,9.797898 1.02797,0.808598 1.672323,0.630787 2.330818,-0.642602 1.110694,-2.147848 0.159719,-6.378607 -1.988357,-8.844086 -0.601308,-0.690153 -0.883658,-1.013412 -1.072958,-1.016966 z m -62.903433,0.002 c -0.190353,0.0018 -0.4723,0.324859 -1.073608,1.015012 -1.394321,1.600351 -2.476656,4.396055 -2.476656,6.397379 0,1.568966 0.682824,3.296779 1.410209,3.569797 1.147697,0.430782 3.103556,-2.016055 3.448048,-4.313314 0.227284,-1.515648 -0.14946,-4.119561 -0.861361,-5.952701 -0.18205,-0.468768 -0.278672,-0.717678 -0.446632,-0.716173 z M 76.03407,67.06184 c -0.0052,-9e-5 -0.01033,2.74e-4 -0.01562,6.52e-4 -0.655569,0.04776 -2.122996,3.536659 -2.286545,5.50737 -0.174848,2.106902 0.03768,3.048744 0.95251,4.211749 0.383977,0.488145 0.900467,0.887403 1.147179,0.887403 2.631584,0 3.538814,-4.774755 1.628317,-8.569986 -0.527176,-1.047252 -1.148353,-1.960733 -1.380261,-2.030027 -0.01454,-0.0044 -0.02994,-0.0069 -0.04557,-0.0072 z m -52.061224,0.0039 c -0.02526,10e-6 -0.05018,0.0033 -0.07422,0.01046 -0.219902,0.06524 -0.830962,0.975613 -1.358126,2.022864 -0.740903,1.471791 -0.962655,2.377053 -0.973994,3.98713 -0.01543,2.100653 0.643161,4.005017 1.509172,4.366051 0.910296,0.379505 1.767499,6.17e-4 2.52744,-1.116579 0.696631,-1.024139 0.775984,-1.451866 0.64716,-3.500133 -0.152138,-2.418824 -1.494452,-5.770086 -2.277431,-5.76975 z m 70.036517,0.596377 c -1.216475,-0.07368 -3.8024,0.180102 -5.028838,0.576193 -2.30798,0.745406 -4.312664,2.612928 -4.312664,4.017731 0,0.563133 0.187496,1.099626 0.416683,1.192102 0.856901,0.345777 3.310872,0.204382 4.40772,-0.253916 1.899385,-0.793605 5.175977,-4.175911 5.175977,-5.342651 0,-0.104243 -0.253387,-0.164898 -0.658878,-0.189459 z m -87.9161024,0.03124 c -0.4698951,0.0096 -0.7617477,0.0472 -0.7617477,0.110681 0,1.179704 3.1957138,4.546659 5.1024071,5.375856 1.10893,0.482248 3.459393,0.63614 4.370609,0.28647 0.801089,-0.307401 0.639152,-1.947657 -0.303397,-3.067826 -1.268684,-1.507736 -3.592406,-2.442668 -6.5770728,-2.647236 -0.7129468,-0.04886 -1.3609034,-0.06758 -1.8307986,-0.05794 z m 25.2385884,6.48397 c -0.535418,0.01716 -0.655324,0.842222 -0.65367,2.824978 0.0026,2.57761 0.755961,4.465032 2.299566,5.763891 1.961927,1.650859 3.688291,0.891293 3.688291,-1.623108 0,-1.922883 -1.861239,-4.812673 -4.108229,-6.377848 -0.55106,-0.383853 -0.945501,-0.596903 -1.225958,-0.587913 z m 37.336707,0 c -0.280522,-0.0089 -0.674898,0.20406 -1.225958,0.587913 -3.234731,2.253213 -4.968515,6.194934 -3.589981,8.163072 0.696707,0.994696 1.866397,0.934833 3.170043,-0.162116 1.543605,-1.298859 2.296395,-3.186281 2.298915,-5.763891 0.002,-1.982756 -0.117473,-2.807814 -0.653019,-2.824978 z m -51.880879,3.548964 c -1.452872,0.02635 -2.778099,0.1543 -2.989697,0.365899 -0.581037,0.581049 2.568352,3.167521 5.034046,4.134272 1.417464,0.555726 4.571955,0.541193 5.345906,-0.02474 1.412047,-1.032518 -0.644307,-3.426825 -3.634253,-4.231933 -0.722875,-0.194665 -2.303132,-0.269848 -3.756002,-0.243498 z m 66.425703,0 c -1.452791,-0.02658 -3.033447,0.04858 -3.757305,0.243498 -2.989947,0.805108 -5.045649,3.199415 -3.633602,4.231933 1.094152,0.800056 4.293683,0.594806 6.338132,-0.406266 1.903266,-0.931928 4.465869,-3.279203 4.042471,-3.702615 -0.212046,-0.212033 -1.536907,-0.339962 -2.989696,-0.36655 z m -24.713179,0.95837 c -0.351676,0.0143 -0.932062,0.347574 -1.850982,0.94079 -3.272125,2.112333 -4.982753,4.855755 -4.306154,6.905862 0.325769,0.987086 0.520145,1.138064 1.466852,1.138064 2.589743,0 4.795424,-2.944926 5.106315,-6.817968 0.122537,-1.526513 0.09796,-2.187647 -0.416031,-2.166748 z M 41.494996,78.81031 c -0.07976,2.87e-4 -0.144977,0.01527 -0.194018,0.04557 -0.618757,0.382415 -0.132986,4.000472 0.773467,5.761938 0.439198,0.853462 1.298776,1.889006 1.910881,2.30152 0.612092,0.412513 1.604148,0.750027 2.204511,0.750027 0.946706,0 1.141732,-0.150977 1.467502,-1.138064 0.481682,-1.45952 -0.178662,-3.165872 -1.9239,-4.972845 -1.367494,-1.415881 -3.467396,-2.750925 -4.238443,-2.748151 z m 26.461943,6.261956 c -1.780186,0.09086 -3.131225,0.536183 -3.806134,1.28195 -0.772879,0.854017 -0.421427,1.557372 1.20838,2.419364 1.589428,0.840637 5.437196,0.617892 8.116844,-0.469419 1.086441,-0.440848 2.029514,-0.968233 2.095784,-1.17192 0.206004,-0.633624 -3.193229,-1.844376 -5.700739,-2.030676 -0.67961,-0.0505 -1.320739,-0.05958 -1.914135,-0.0293 z M 31.05775,85.183629 c -2.634229,0.01159 -3.54599,0.156452 -4.975449,0.791046 -0.962544,0.427304 -1.750066,0.90302 -1.750066,1.057332 0,0.386584 1.161459,0.977163 3.333459,1.695376 4.965997,1.642116 10.689306,-0.519967 7.558882,-2.855577 -0.809908,-0.604231 -1.393379,-0.700776 -4.166826,-0.688177 z m 13.947796,3.985828 c -2.749686,0 -3.076983,0.07879 -5.547086,1.333385 -1.443897,0.733357 -2.62575,1.48339 -2.62575,1.666729 0,0.18334 0.67503,0.516965 1.500057,0.741566 2.328214,0.633813 7.214596,0.365108 8.833669,-0.485696 1.866023,-0.980572 2.334119,-1.834865 1.445367,-2.638121 -0.556292,-0.502709 -1.228743,-0.617863 -3.606257,-0.617863 z m 9.988662,0 c -2.381168,0 -3.049121,0.115167 -3.60821,0.620467 -0.623419,0.563436 -0.641348,0.688461 -0.195321,1.369193 0.425893,0.64999 1.757175,1.401415 3.476044,1.961663 1.799766,0.58663 8.299586,-0.145799 8.441727,-0.951209 0.03235,-0.183339 -1.122619,-0.933372 -2.566504,-1.666729 -2.470116,-1.254637 -2.798051,-1.333385 -5.547736,-1.333385 z" /><text
       xml:space="preserve"
       style="font-size:4.5861px;text-align:start;writing-mode:lr-tb;direction:ltr;text-anchor:start;fill:#000000;stroke-width:0.264583"
       x="59.807198"
       y="60.188946"
       id="text9"><tspan
         sodipodi:role="line"
         id="tspan9"
         x="59.807198"
         y="60.188946"
         style="stroke-width:0.264583" /></text><path
       style="fill:#000000"
       d="m 77.607262,171.5793 -0.463021,-0.26969 v -0.6657 c 0,-0.36614 0.134678,-0.91736 0.299284,-1.22493 l 0.299285,-0.55922 -0.60818,-1.11332 -0.608181,-1.11333 0.41328,-0.88975 c 0.625214,-1.34602 0.804768,-2.47455 0.878243,-5.51996 0.03686,-1.52796 0.152695,-3.74166 0.2574,-4.91931 l 0.190373,-2.14119 -0.314071,-0.58684 -0.314071,-0.58685 -0.551756,0.0822 -0.551756,0.0822 -0.46971,1.45521 -0.469711,1.45521 -1.408027,1.29504 c -0.774415,0.71228 -1.615602,1.60525 -1.869305,1.98438 l -0.461277,0.68933 -0.0017,0.87044 -0.0017,0.87043 0.565418,1.11394 c 0.31098,0.61267 1.025355,1.7584 1.5875,2.54607 0.562145,0.78768 1.022082,1.63646 1.022082,1.88618 0,0.24972 0.421587,1.15307 0.936861,2.00745 l 0.936861,1.55341 -1.502548,0.0804 c -0.826401,0.0442 -1.664707,0.0182 -1.862902,-0.0579 l -0.360355,-0.13828 v -0.94698 -0.94698 l -0.626426,-0.58267 -0.626426,-0.58268 0.121781,-0.82237 0.121782,-0.82237 -0.528123,-1.02972 c -0.290467,-0.56634 -1.13494,-1.84966 -1.876605,-2.85181 l -1.348483,-1.8221 0.0083,-0.55915 c 0.0045,-0.30753 0.301588,-1.0354 0.660103,-1.61748 0.358515,-0.58209 0.652455,-1.22872 0.653201,-1.43695 l 0.0014,-0.37861 -2.34718,2.29684 c -1.290949,1.26326 -2.414319,2.29684 -2.496378,2.29684 -0.08206,0 0.303944,-0.98226 0.857784,-2.18281 1.104284,-2.39373 1.604524,-4.14878 1.604524,-5.62932 v -0.96322 l -0.299641,0.0999 c -0.164803,0.0549 -0.492225,0.59865 -0.727604,1.20827 l -0.427963,1.10839 -1.521354,1.74605 -1.521354,1.74605 v 0.51785 c 0,0.28482 -0.267891,1.01912 -0.595313,1.63179 l -0.595312,1.11394 0.0336,3.5781 0.0336,3.57811 0.560726,0.91981 c 0.308399,0.50589 0.561171,1.06864 0.561715,1.25054 l 9.89e-4,0.33073 h -1.623638 -1.623463 l 0.157273,-1.14743 0.157273,-1.14744 -0.419484,-0.59889 -0.419484,-0.5989 0.36432,-1.09794 0.36432,-1.09794 -0.05055,-2.91135 -0.05055,-2.91134 -0.228994,-0.61903 -0.228994,-0.61903 -1.127685,1.46169 -1.127686,1.46169 -1.370899,1.04333 c -2.069082,1.57468 -3.392159,2.17368 -2.414104,1.09294 l 0.494019,-0.54588 0.181697,-2.69526 c 0.09993,-1.4824 0.270686,-2.97666 0.37945,-3.3206 l 0.197751,-0.62534 -0.523492,0.28017 c -0.738102,0.39502 -1.147725,0.94552 -1.557007,2.09248 l -0.354946,0.99469 -0.01161,-0.94505 c -0.0064,-0.51978 0.185577,-1.52377 0.426587,-2.2311 l 0.438199,-1.28604 1.142338,-1.14234 1.142338,-1.14234 h -0.522204 c -0.719679,0 -0.65474,-0.38384 0.12505,-0.73913 0.830112,-0.37823 2.732064,-2.09355 3.115646,-2.80992 0.162559,-0.30359 0.629039,-1.90961 1.036622,-3.56891 l 0.741062,-3.01693 0.867729,-1.44231 0.867728,-1.44232 1.499085,-1.39316 1.499085,-1.39316 1.385415,-0.4976 1.385416,-0.4976 0.973954,-1.32292 c 1.422979,-1.93282 2.309833,-3.35871 2.509567,-4.03489 l 0.175846,-0.59531 h -0.414705 -0.414704 v -0.52917 -0.52917 h 0.396875 0.396875 v -0.42433 c 0,-0.53098 -1.844649,-4.07358 -2.121133,-4.07358 -0.111926,0 -0.272035,0.17859 -0.355798,0.39687 -0.08376,0.21828 -0.312235,0.39688 -0.507717,0.39688 h -0.355421 l -0.630755,0.85314 -0.630754,0.85314 0.03539,0.46977 0.03539,0.46978 h -0.512723 -0.512723 v 0.52917 0.52916 l -0.330729,0.002 -0.33073,0.002 -0.661268,1.12244 c -0.363698,0.61752 -0.748462,1.59265 -0.855032,2.16713 l -0.193764,1.04452 -0.720357,0.57439 -0.720357,0.57439 0.847785,0.43841 0.847785,0.43841 v 0.39008 c 0,0.21454 -0.119062,0.39008 -0.264583,0.39008 -0.145521,0 -0.264584,-0.0999 -0.264584,-0.22212 0,-0.23028 -1.325658,-0.92167 -1.477006,-0.77032 -0.04714,0.0471 -2.604653,4.06996 -5.683365,8.93959 -6.931438,10.96355 -8.703304,13.6841 -8.709657,13.37293 -0.0053,-0.26159 1.505824,-2.97092 8.552928,-15.33429 l 4.505743,-7.90483 -0.512551,-0.38151 c -0.281902,-0.20984 -0.690152,-0.4835 -0.907221,-0.60814 l -0.394671,-0.22662 0.213314,-0.21332 0.213314,-0.21331 0.77667,0.44575 0.776669,0.44574 0.0036,-0.7153 c 0.002,-0.39341 0.07779,-0.99232 0.168459,-1.33091 l 0.164849,-0.61561 0.610788,-0.23222 0.610788,-0.23222 0.177266,-1.56682 0.177266,-1.56683 0.459641,0.1202 0.459641,0.1202 0.558834,-0.88054 0.558835,-0.88054 -0.264093,-0.0912 c -0.145251,-0.0501 -0.438683,0.0537 -0.652072,0.23083 l -0.387979,0.32199 v -0.44129 -0.4413 l 0.673225,-0.67323 0.673224,-0.67322 0.385109,0.15608 c 0.21181,0.0859 0.563703,0.22836 0.781984,0.31669 l 0.396875,0.1606 v -0.41488 c 0,-0.22818 0.250788,-0.64852 0.557306,-0.93408 l 0.557305,-0.51921 -0.176045,-0.28485 c -0.09683,-0.15667 -0.35135,-0.28485 -0.56561,-0.28485 h -0.389564 l -0.157034,0.40923 -0.157034,0.40922 -1.723341,0.7814 -1.723342,0.7814 H 60.87782 c -0.466067,0 -1.431865,-0.1773 -2.146216,-0.39401 -0.714352,-0.21671 -1.788222,-0.3953 -2.386379,-0.39688 l -1.087557,-0.003 -0.962964,0.65349 c -0.52963,0.35942 -0.962963,0.59163 -0.962963,0.51603 0,-0.45986 0.910256,-1.74236 1.819959,-2.56423 l 1.060467,-0.95806 1.048326,-0.28229 1.048325,-0.28228 2.22846,0.17129 2.22846,0.17129 0.978265,-0.32285 c 0.538045,-0.17754 1.332427,-0.62083 1.765293,-0.98506 l 0.787028,-0.66225 v -0.47424 -0.47424 l 0.859896,-0.65479 c 0.472943,-0.36014 1.112084,-0.7345 1.420314,-0.83191 0.30823,-0.0974 0.773168,-0.4122 1.033195,-0.69953 l 0.472776,-0.52241 h 1.017326 1.017326 v -2.0578 -2.05779 l 0.453518,-0.65419 c 0.249434,-0.3598 0.732352,-0.87643 1.073149,-1.14806 l 0.619632,-0.49388 -0.56172,-0.39344 -0.56172,-0.39345 -0.842159,0.17051 c -0.463187,0.0938 -1.057758,0.19116 -1.321268,0.21641 -0.263511,0.0252 -1.096949,0.57449 -1.852084,1.22054 -1.579461,1.35128 -3.146077,2.1374 -4.276115,2.14575 l -0.786476,0.006 0.60285,-0.42225 c 0.331568,-0.23224 1.236406,-1.40434 2.010753,-2.60468 l 1.407902,-2.18242 0.874018,-0.62236 0.874019,-0.62236 -0.221206,0.35792 -0.221207,0.35792 0.867964,-0.17359 c 0.477379,-0.0955 1.157763,-0.17359 1.511963,-0.17359 h 0.644001 l -0.163522,-0.26459 c -0.08994,-0.14552 -0.483917,-0.28079 -0.875511,-0.30061 l -0.711989,-0.036 0.599904,-0.11527 0.599904,-0.11526 0.947408,0.31267 0.947409,0.31268 0.497397,1.09539 c 0.273569,0.60247 0.500013,1.36328 0.503209,1.69071 l 0.0058,0.59531 h 0.483046 0.483046 l 0.542224,0.59531 c 0.765759,0.84073 1.137517,1.64 1.137517,2.44562 v 0.69446 l -0.264583,-0.16352 c -0.145521,-0.0899 -0.264584,-0.39936 -0.264584,-0.68761 0,-0.68471 -0.990823,-2.61968 -1.341433,-2.61968 -0.454521,0 -1.833567,0.79074 -1.833567,1.05137 v 0.24402 l 0.813796,-0.28369 0.813796,-0.28369 0.221345,0.23131 c 0.12174,0.12722 0.261548,0.70756 0.310684,1.28964 l 0.08934,1.05833 -1.190625,0.13229 -1.190625,0.1323 0.48466,0.19843 c 0.266563,0.10914 1.145105,0.19844 1.952316,0.19844 h 1.467655 l -0.170778,1.28739 -0.170778,1.28739 1.024053,1.02771 c 1.164278,1.16844 1.751354,2.20225 2.010998,3.54126 0.144206,0.74368 0.475713,1.66738 0.835005,2.32662 0.107567,0.19737 2.171272,-2.15212 2.840206,-3.23352 0.411585,-0.66537 0.862259,-1.20977 1.001496,-1.20977 h 0.25316 l -0.273893,0.51178 c -0.15064,0.28147 -0.271443,0.66843 -0.26845,0.85989 l 0.0054,0.34813 1.175017,-1.32292 c 0.64626,-0.7276 1.179592,-1.41924 1.185183,-1.53697 l 0.01017,-0.21405 -0.264583,0.16352 c -0.145521,0.0899 -0.264584,0.0999 -0.264584,0.0222 0,-0.24777 2.199293,-1.13423 3.662256,-1.47613 l 1.413298,-0.3303 1.067796,-1.15842 c 0.587287,-0.63713 1.187877,-1.15842 1.334644,-1.15842 h 0.26685 l -0.161063,1.17508 -0.161062,1.17508 0.528722,0.16781 0.528722,0.16781 1.351027,-0.97062 1.351026,-0.97062 -0.179628,0.75221 c -0.0988,0.41371 -0.412138,1.07481 -0.696317,1.4691 -0.669543,0.92897 -0.66216,0.98727 0.291828,2.30421 l 0.808515,1.11612 0.08009,1.3876 0.08009,1.38761 0.990337,2.30574 0.990337,2.30575 -0.16826,0.72033 c -0.09254,0.39618 -0.298295,1.04927 -0.457226,1.4513 l -0.288966,0.73097 -0.561819,0.11368 c -0.309001,0.0625 -0.997763,0.18349 -1.530583,0.26882 l -0.968763,0.15513 -0.5992,-0.86749 c -0.329561,-0.47712 -0.641049,-0.9204 -0.692197,-0.98505 -0.05115,-0.0647 -0.448245,0.31342 -0.882439,0.84017 -0.434194,0.52676 -1.188224,1.20419 -1.675622,1.50542 l -0.886178,0.54769 -0.148372,1.63627 -0.148372,1.63628 -0.997073,1.96439 -0.997073,1.96439 -0.392357,0.15056 -0.392356,0.15056 -1.343326,-0.47241 c -1.702264,-0.59863 -4.30713,-2.31978 -6.44805,-4.2605 -0.915827,-0.83018 -1.730953,-1.44362 -1.81139,-1.36318 -0.08044,0.0804 0.239949,0.87083 0.711968,1.75643 l 0.858218,1.61018 2.715039,2.61505 c 2.721568,2.62135 5.365271,4.78521 5.846321,4.78521 0.141311,0 0.52101,-0.35718 0.843774,-0.79375 0.625617,-0.84619 0.575669,-0.95646 -0.23638,-0.52187 l -0.508011,0.27188 -0.995949,-0.51436 c -0.547772,-0.2829 -1.650792,-1.08144 -2.451157,-1.77453 l -1.455208,-1.26016 0.529166,0.22377 c 0.291042,0.12307 1.464767,0.46381 2.608277,0.75721 l 2.07911,0.53344 0.30214,-0.48378 c 0.166177,-0.26607 0.674017,-1.12971 1.128533,-1.91918 l 0.826393,-1.4354 0.336076,1.78114 0.336077,1.78114 -0.162633,2.84243 -0.162632,2.84244 0.587663,0.38444 c 0.323215,0.21145 1.339679,0.65843 2.258809,0.99329 0.91913,0.33487 1.960927,0.83679 2.315104,1.11539 l 0.643958,0.50654 v 0.73438 c 0,0.40391 -0.236259,1.85379 -0.525021,3.22194 l -0.525021,2.48756 -0.0041,1.82002 -0.0041,1.82001 -0.926042,1.02502 c -0.509322,0.56376 -0.926041,1.17798 -0.926041,1.36493 0,0.18695 -0.586789,0.91788 -1.303975,1.62428 l -1.303975,1.28437 -0.547119,-0.89744 -0.54712,-0.89744 -9.89e-4,-1.23787 -9.89e-4,-1.23787 0.430325,-0.43033 0.430326,-0.43032 0.561862,0.0725 c 0.309024,0.0399 0.705452,-0.0169 0.88095,-0.12616 l 0.319089,-0.1987 -0.225281,-0.58689 -0.22528,-0.58689 0.684671,-0.72904 0.684671,-0.72903 0.112304,-2.34893 0.112304,-2.34893 -0.57282,-0.57282 -0.57282,-0.57282 -2.302338,0.18269 c -1.266286,0.10049 -2.535364,0.26681 -2.820173,0.36962 l -0.517836,0.18691 1.113148,0.73665 c 0.612232,0.40515 1.113148,0.82696 1.113148,0.93734 0,0.30127 -1.84103,0.97815 -3.224919,1.18567 l -1.220736,0.18306 -0.555098,-0.17618 -0.555098,-0.17618 0.233119,-0.44525 0.233119,-0.44526 -0.224792,-0.59531 -0.224793,-0.59531 h -0.533235 -0.533236 l -0.648688,1.28012 c -0.356778,0.70407 -0.894565,2.01 -1.195082,2.90207 l -0.546394,1.62195 v 1.20776 1.20777 l -0.715205,1.38027 -0.715204,1.38026 -0.06048,3.17436 -0.06048,3.17436 0.77569,1.35577 c 0.426629,0.74567 0.775689,1.53689 0.775689,1.75827 v 0.4025 l -0.418515,0.1606 c -0.654332,0.25109 -2.574902,0.17322 -3.087214,-0.12517 z M 63.847955,150.18424 c 1.514479,-2.31408 4.358268,-9.01084 3.826468,-9.01084 -0.329242,0 -2.249012,3.32037 -4.589275,7.93746 -1.21703,2.40106 -2.249242,4.48466 -2.293804,4.6302 -0.159954,0.52244 2.133518,-2.14635 3.056611,-3.55682 z m 8.697238,1.20558 -0.164682,-0.65615 -0.594698,-0.19927 c -0.327083,-0.1096 -0.862896,-0.16851 -1.190694,-0.1309 l -0.595997,0.0684 0.265268,-0.69771 c 0.321105,-0.84457 0.325539,-0.92784 0.04941,-0.92784 -0.255349,0 -1.371638,1.92101 -1.371638,2.36043 v 0.30402 l 0.511773,-0.27389 c 0.281475,-0.15064 0.938871,-0.2739 1.460881,-0.2739 h 0.949108 l 0.30189,0.66258 c 0.368822,0.80948 0.604899,0.66278 0.379384,-0.23575 z m -3.108927,-2.67579 c 0.585368,-0.99212 0.552169,-1.07981 -0.246919,-0.65215 l -0.511773,0.27389 v 0.65215 c 0,0.86498 0.110221,0.82519 0.758692,-0.27389 z m 12.538544,-2.32633 0.297244,-1.7353 -0.308324,-1.65793 c -0.169578,-0.91186 -0.279386,-1.68686 -0.244017,-1.72223 0.03537,-0.0354 0.897238,0.90749 1.915265,2.09525 1.633461,1.9058 2.950663,3.00479 3.24665,2.7088 0.242471,-0.24247 -8.601584,-12.5758 -9.017928,-12.5758 h -0.222716 l 0.173753,1.25677 c 0.257231,1.86057 0.825766,4.04914 1.985758,7.64415 l 1.036529,3.21239 0.176146,1.49872 0.176145,1.49873 0.244126,-0.24413 c 0.134268,-0.13427 0.377885,-1.02501 0.541369,-1.97942 z m -12.43836,-1.97179 0.143005,-2.59522 0.435192,-1.04157 c 0.239355,-0.57285 0.617001,-1.24245 0.839212,-1.48799 l 0.40402,-0.44644 -0.325155,-0.20096 -0.325155,-0.20095 -0.605806,0.70429 c -0.333194,0.38736 -0.729747,1.15058 -0.881231,1.69604 l -0.275423,0.99175 -0.0015,2.7276 -0.0015,2.72759 0.225644,-0.13945 0.225644,-0.13946 z m 3.734121,-2.40027 0.416056,-1.40673 -0.452858,0.0872 -0.452858,0.0872 -0.306478,1.31951 c -0.168562,0.72574 -0.31314,1.61717 -0.321283,1.98098 l -0.01481,0.66145 0.358086,-0.66145 c 0.196947,-0.36381 0.545311,-1.29449 0.774141,-2.06819 z m 0.978186,-3.02505 c 0.273146,-0.32742 0.50059,-0.79664 0.505431,-1.04272 0.0048,-0.24607 0.127865,-0.52099 0.273386,-0.61092 0.145521,-0.0899 0.264583,-0.44096 0.264583,-0.78006 v -0.61653 l -0.502288,-0.6203 -0.502288,-0.6203 -0.95292,0.45442 c -0.524106,0.24993 -0.95292,0.56426 -0.95292,0.69851 v 0.24409 l 0.556249,-0.14546 0.556248,-0.14546 0.237032,0.36867 0.237032,0.36867 -0.131822,0.7276 c -0.0725,0.40018 -0.200814,1.08479 -0.285137,1.52135 l -0.153314,0.79375 h 0.177049 c 0.09738,0 0.400533,-0.26789 0.673679,-0.59531 z m 0.08317,-5.73448 c 1.226083,-1.13282 2.547728,-2.87478 2.547728,-3.35795 v -0.34794 l -2.427147,1.84021 c -1.334931,1.01211 -2.649711,2.16881 -2.921732,2.57044 -0.467197,0.68981 -1.265704,2.3596 -1.265704,2.64678 0,0.15161 2.548205,-1.94839 4.066855,-3.35154 z m -2.331414,-0.66559 c 0.91993,-0.81267 1.925929,-1.83336 2.235554,-2.26819 l 0.562955,-0.79059 h -0.252671 c -0.339378,0 -5.339612,4.74586 -5.339612,5.06797 v 0.2537 l 0.560588,-0.39265 c 0.308323,-0.21596 1.313257,-1.05757 2.233186,-1.87024 z m -10.711927,-1.89147 c 0.382616,-0.46102 0.163299,-0.76485 -0.396925,-0.54987 l -0.400402,0.15365 -0.16871,0.6722 -0.168711,0.67219 0.193433,0.46361 0.193433,0.46362 0.213619,-0.74452 c 0.11749,-0.40949 0.357908,-0.91838 0.534263,-1.13088 z m 26.968155,1.00989 c 0,-0.11222 -0.691437,-0.33545 -1.536526,-0.49605 l -1.536527,-0.29201 -1.563229,-0.76072 -1.563229,-0.76071 -1.530453,-1.49382 -1.530453,-1.49382 v 0.32398 c 0,0.17818 0.358102,0.86461 0.795781,1.52539 l 0.795782,1.20141 1.069488,0.74115 c 0.588218,0.40764 1.688632,0.95509 2.445364,1.21656 l 1.375877,0.47541 1.389062,0.009 1.389063,0.009 z m 5.820833,-5.21165 v -0.35171 l -1.066481,-0.55588 c -0.586564,-0.30573 -1.164406,-0.55588 -1.284092,-0.55588 h -0.217612 l -0.170026,2.0114 -0.170026,2.01141 0.176525,0.28562 0.176525,0.28562 1.277593,-1.38944 c 0.702677,-0.76419 1.277594,-1.5477 1.277594,-1.74114 z m -4.62861,-5.93191 c 0.230786,-0.92967 0.601509,-2.04206 0.823828,-2.47198 l 0.404218,-0.78167 -0.169897,-0.1699 -0.169897,-0.16989 -0.511609,0.6575 c -0.281385,0.36163 -0.804904,1.25282 -1.163374,1.98042 l -0.651765,1.32292 -0.273359,1.75178 -0.273359,1.75178 0.146156,1.29093 c 0.08039,0.71001 0.217835,1.70764 0.305442,2.21697 l 0.159286,0.92604 0.47736,-3.30729 c 0.262548,-1.81901 0.666185,-4.06794 0.89697,-4.99761 z m 9.474398,6.70842 c 0.245233,-0.51426 0.445879,-1.15172 0.445879,-1.41657 v -0.48156 l -0.637955,-0.68836 -0.637955,-0.68836 -0.808636,0.23191 c -0.966905,0.2773 -1.355038,0.49865 -1.355038,0.77275 v 0.20315 l 0.770236,-0.11305 0.770235,-0.11305 0.454177,0.69316 0.454177,0.69317 -0.149445,0.92091 -0.149444,0.92092 h 0.198945 c 0.109419,0 0.39959,-0.42076 0.644824,-0.93502 z m -20.722527,-0.98321 c 0.168681,-0.76398 0.371331,-2.52015 0.450333,-3.9026 l 0.143639,-2.51354 -0.314716,-1.15569 -0.314717,-1.15568 -0.832873,0.85188 -0.832872,0.85188 -0.03818,3.74339 c -0.021,2.05886 -0.126823,3.95174 -0.235168,4.2064 l -0.196992,0.46302 h 0.932424 0.932425 z m 3.153756,-2.46771 c 0.594724,-1.10258 1.081316,-2.05927 1.081316,-2.12598 0,-0.36192 -1.086188,0.54207 -1.541637,1.28305 -0.50899,0.82809 -1.047805,2.84762 -0.75975,2.84762 0.07631,0 0.625347,-0.90211 1.220071,-2.00469 z m -5.857621,-1.57481 c -0.07253,-1.38664 -0.181892,-2.57119 -0.243027,-2.63232 -0.106342,-0.10635 -2.366005,0.37979 -2.577087,0.55442 -0.05597,0.0463 0.04777,0.44519 0.230537,0.88642 l 0.332296,0.80223 h 0.730792 0.730792 l 0.159538,0.59531 c 0.08775,0.32743 0.161163,0.98227 0.16315,1.45521 l 0.0036,0.8599 h 0.300635 0.300635 z m 22.257026,-0.14824 c -0.275782,-0.88609 -0.501422,-2.02981 -0.501422,-2.54161 v -0.93054 l -0.840829,-1.09641 c -0.462456,-0.60302 -0.93981,-1.21062 -1.060786,-1.35021 l -0.219957,-0.25381 -0.410484,0.58605 c -0.225766,0.32232 -0.771129,0.77254 -1.211917,1.00048 l -0.801435,0.41444 0.456945,0.50492 0.456945,0.50492 0.890892,0.16713 0.890893,0.16713 1.039995,2.21929 1.039995,2.21929 h 0.386294 0.386294 z M 93.85402,121.3958 c -0.288294,-0.40018 -0.951246,-1.13791 -1.473225,-1.6394 l -0.949054,-0.9118 v 0.32782 c 0,0.38906 2.344081,2.95098 2.700056,2.95098 h 0.246394 z m -26.234779,-0.84428 c 0,-0.13693 -0.119063,-0.32255 -0.264584,-0.41249 -0.14552,-0.0899 -0.264583,-0.28358 -0.264583,-0.43032 v -0.2668 l 0.569191,0.18066 0.56919,0.18065 -0.172929,-0.45065 -0.172929,-0.45064 0.55702,-0.45105 0.55702,-0.45105 -0.676212,-0.3081 -0.676213,-0.3081 -1.070819,1.21651 c -0.58895,0.66908 -1.070819,1.30159 -1.070819,1.40557 0,0.10399 0.386953,0.31319 0.859896,0.46491 1.140877,0.36598 1.256771,0.37344 1.256771,0.0809 z m 26.590625,-1.07395 c -0.08994,-0.14552 -0.275558,-0.26458 -0.41249,-0.26458 -0.136933,0 -0.248969,0.11906 -0.248969,0.26458 0,0.14552 0.185621,0.26458 0.41249,0.26458 h 0.41249 z m -18.109303,-1.33076 c 0.499533,-0.26734 1.308261,-1.55731 1.308261,-2.08676 v -0.2688 l -0.919938,0.54278 -0.919938,0.54277 -0.953907,-0.31481 c -0.524648,-0.17315 -1.450129,-0.59858 -2.056624,-0.94539 -1.063325,-0.60805 -2.310991,-0.84835 -2.276777,-0.43851 0.02263,0.27105 3.318061,1.86123 4.571859,2.20611 l 1.01655,0.27961 -0.487383,0.3693 -0.487384,0.3693 0.348124,0.008 c 0.191467,0.005 0.577188,-0.11418 0.857157,-0.26401 z m -3.983406,-0.22933 c 0,-0.13045 -0.420861,-0.6067 -0.935248,-1.05833 l -0.935248,-0.82116 -0.586106,0.004 c -0.867858,0.005 -1.776731,0.28998 -1.776731,0.55641 v 0.23372 l 0.595313,0.003 c 0.327421,0.002 1.190625,0.29014 1.918229,0.64059 1.494576,0.71987 1.719791,0.77772 1.719791,0.44175 z m 4.356116,-2.34251 c 0.09867,-0.25466 0.276308,-0.97803 0.394756,-1.60748 l 0.215359,-1.14446 -0.393152,-0.15087 -0.393151,-0.15086 -0.233829,0.36928 c -0.128606,0.20311 -0.235652,0.99436 -0.23788,1.75835 l -0.0041,1.38906 h 0.236276 c 0.129952,0 0.317005,-0.20836 0.415673,-0.46302 z"
       id="path9" /><path
       id="path10"
       style="fill:#000000"
       d="m 28.071605,202.25422 c -0.11173,0 -0.32338,0.43367 -0.46974,0.96376 l -0.26613,0.96377 0.26303,0.49144 c 0.29925,0.55916 0.34805,1.00225 0.91674,8.36538 l 0.413934,5.36091 -0.16175,0.26149 -0.161744,0.262 h -0.7922 -0.79169 l -0.27647,0.79375 c -0.15218,0.43656 -0.36371,0.79375 -0.46973,0.79375 -0.27116,0 -2.16088,-10.56556 -2.31718,-12.95529 l -0.12919,-1.97559 -0.5271,-0.74 -0.52658,-0.73949 -0.24443,0.15089 -0.24443,0.1509 v 0.94206 c 0,0.51802 0.23823,1.67195 0.52917,2.56418 0.29095,0.89222 1.07084,4.53575 1.73323,8.09667 l 1.20457,6.47402 -0.31057,0.66973 c -0.1707,0.36815 -0.47434,0.98524 -0.6749,1.37149 -0.20055,0.38625 -0.36483,1.0046 -0.36483,1.37408 v 0.67179 l 0.58808,0.41186 c 0.32342,0.22653 0.85144,0.41186 1.17305,0.41186 h 0.58446 l 0.13901,0.46302 c 0.0763,0.25467 0.27139,1.24726 0.43408,2.20607 l 0.29611,1.74356 -0.29869,1.43144 c -0.16432,0.78744 -0.4011,2.68211 -0.52607,4.21008 -0.12498,1.52797 -0.35392,3.31391 -0.50849,3.96875 -0.15457,0.65484 -0.28332,1.34257 -0.28732,1.52807 l -0.006,0.33693 0.66145,0.25167 c 0.76506,0.29087 0.75786,0.23351 0.3514,2.72696 l -0.31006,1.90324 -1.34255,1.23559 -1.34255,1.2361 0.17673,0.17622 c 0.0971,0.0971 0.59421,0.27074 1.10536,0.38602 l 0.92966,0.2098 0.78083,-0.4749 c 0.42954,-0.26122 1.06247,-0.51509 1.40663,-0.56379 l 0.625804,-0.0884 -0.0599,-0.79375 c -0.13103,-1.72873 -0.0952,-2.30434 0.20102,-3.20187 0.16961,-0.51393 0.35453,-0.88829 0.41083,-0.83199 0.0563,0.0563 0.28524,1.10596 0.50849,2.33267 0.22326,1.22672 0.46546,2.49825 0.53796,2.82567 l 0.13177,0.59531 0.59015,-0.004 c 0.32465,-0.002 0.76874,-0.11938 0.98702,-0.26045 l 0.39687,-0.25632 -0.31936,-0.004 -0.31988,-0.004 -0.51831,-1.78594 c -0.2852,-0.98226 -0.59848,-2.29196 -0.69608,-2.91042 l -0.17725,-1.12448 h 0.94929 0.9493 v 0.41031 c 0,0.22551 -0.18719,0.77193 -0.416,1.2144 l -0.41599,0.8046 0.14314,0.37311 0.14315,0.37258 h 0.67334 0.67334 l -0.13436,1.34514 c -0.0736,0.73985 -0.19753,1.44862 -0.27543,1.57458 l -0.14159,0.22893 0.5457,0.29197 0.5457,0.29197 1.24799,-0.0801 1.24747,-0.0806 -0.0672,-0.8599 -0.0672,-0.85989 h 0.5147 c 0.28301,0 0.58809,0.11906 0.67799,0.26458 l 0.16381,0.26458 h 0.89142 0.89142 l 0.38447,-0.38395 0.38396,-0.38396 1.88361,0.15761 1.8836,0.15813 v -0.40307 c 0,-0.22157 -0.17025,-0.54419 -0.37879,-0.71727 l -0.3793,-0.31471 0.5116,-0.5116 c 0.2813,-0.2813 0.69385,-0.51159 0.91725,-0.51159 h 0.40618 l -0.27389,0.51211 c -0.37552,0.70166 -0.36296,0.73146 0.38758,0.91984 0.3638,0.0913 0.66146,0.27383 0.66146,0.40618 0,0.32702 -0.93206,1.16622 -2.51355,2.26239 l -0.52916,0.36639 0.29197,0.47852 0.29145,0.47852 1.21595,0.0801 1.21595,0.0801 0.79426,-0.41083 c 0.43692,-0.22595 1.00449,-0.41082 1.26091,-0.41082 h 0.46612 l 0.59583,-0.72761 0.59531,-0.7276 0.0103,0.709 0.01,0.70848 0.41599,0.416 0.41548,0.41548 h 0.64285 0.64234 v 0.35088 c 0,0.19292 -0.29765,0.63025 -0.66146,0.97203 -0.3638,0.34177 -0.66145,0.78142 -0.66145,0.97669 v 0.35501 l 0.89813,0.4284 0.89814,0.42788 0.65577,-0.16433 0.65629,-0.16485 0.32195,-0.77721 0.32194,-0.77773 -0.16433,-0.51728 -0.16381,-0.51728 0.33848,-0.11834 c 0.18624,-0.065 0.84449,-0.14377 1.46296,-0.17467 l 1.12448,-0.0558 v 0.8046 0.80409 h 0.36431 c 0.20047,0 0.51286,0.17859 0.69402,0.39687 l 0.32969,0.39688 h 1.68724 1.68724 v -0.48783 -0.48834 l -0.46303,-0.41703 c -0.25467,-0.2295 -0.79164,-0.49922 -1.1932,-0.59944 -0.72373,-0.18062 -1.16071,-0.57045 -0.91519,-0.81597 0.0701,-0.0701 0.70752,-0.27198 1.41593,-0.44856 l 1.28778,-0.32091 -0.0243,-1.14101 -0.0243,-1.14153 0.55346,0.14882 c 0.30441,0.0817 0.70228,0.14993 0.88418,0.15193 l 0.33073,0.004 v 0.53433 c 0,0.63376 -1.14848,2.53387 -1.64021,2.71353 l -0.34417,0.12557 0.28164,0.30128 0.28112,0.30127 1.28623,0.0558 1.28622,0.0563 0.10904,-0.32711 c 0.06,-0.17994 0.33557,-0.44849 0.61185,-0.59635 l 0.50229,-0.26872 -0.26768,0.70384 -0.26768,0.70331 0.14624,0.46096 0.14624,0.46043 -0.93327,1.11725 c -0.51326,0.61433 -0.93328,1.22191 -0.93328,1.3503 0,0.36029 1.11477,0.99037 1.85209,1.04697 1.14036,0.0875 1.25572,0.019 1.83503,-1.09244 l 0.56534,-1.08469 -0.15968,-0.50281 c -0.0878,-0.27671 -0.20817,-0.98856 -0.26717,-1.58182 l -0.10697,-1.07848 0.48731,0.60151 0.48731,0.60203 1.09295,-0.32711 1.09296,-0.32763 v -0.36432 c 0,-0.20032 -0.14883,-0.42424 -0.33073,-0.49764 l -0.33073,-0.13333 0.59531,-0.0207 0.59532,-0.0212 0.0222,0.26459 c 0.0835,1.0022 0.0293,2.11101 -0.14005,2.86494 l -0.19792,0.88108 1.22112,1.16944 1.22059,1.16995 h 0.73639 0.73588 l 0.31781,-0.31729 c 0.46889,-0.46889 0.40932,-0.63761 -0.63046,-1.78852 l -0.94774,-1.04903 0.17725,-0.28732 0.17725,-0.28681 0.91777,0.54157 c 0.50484,0.29786 1.09254,0.54157 1.30586,0.54157 h 0.38809 l -0.42581,0.65009 -0.42581,0.64957 0.17053,0.27647 0.17105,0.27595 h 1.07849 1.07848 l 0.68678,-0.7276 0.6873,-0.72761 -0.0837,-1.22731 -0.0837,-1.22732 0.27543,-0.17053 0.27544,-0.17001 0.4594,0.86816 0.4594,0.86868 -0.0703,0.59635 -0.0703,0.59634 0.39016,0.14935 c 0.21443,0.0823 0.44998,0.37996 0.52348,0.66094 l 0.13333,0.51056 h 1.06143 c 2.00118,0 2.39252,-0.50208 1.23714,-1.5875 -0.75443,-0.70874 -0.84281,-1.19664 -0.25787,-1.4211 l 0.40308,-0.15451 -0.16743,-0.66766 -0.16744,-0.66714 h 0.41083 0.41135 l -0.0517,1.51618 -0.0517,1.51567 1.42731,0.46251 c 0.78502,0.25444 1.47805,0.51326 1.53995,0.57516 0.0619,0.0619 -0.49112,0.70042 -1.22886,1.41903 -0.73774,0.7186 -1.34152,1.4447 -1.34152,1.61334 v 0.30644 l 0.59531,0.0398 c 0.32742,0.022 0.94759,0.011 1.37821,-0.0243 l 0.7829,-0.0641 0.64182,-0.50487 c 0.35298,-0.27765 0.79699,-0.50488 0.9865,-0.50488 h 0.34469 l -0.15297,-0.94103 -0.15296,-0.94103 1.42627,0.0811 1.42627,0.0811 -0.0847,0.78394 -0.0853,0.78341 0.34984,0.28112 c 0.19224,0.15448 0.48053,0.51588 0.64079,0.80357 l 0.29146,0.52296 0.95394,0.0816 0.95447,0.0816 0.54002,-0.28939 0.54053,-0.28938 v -0.38138 -0.38137 l -0.67489,-0.44235 c -0.37124,-0.24325 -0.85047,-0.78187 -1.06505,-1.19682 l -0.39016,-0.75448 h 0.64647 c 0.35564,0 0.83487,-0.0719 1.06505,-0.1602 l 0.41858,-0.16071 v -0.89762 c 0,-0.49375 0.0683,-0.89814 0.15141,-0.89814 0.24573,0 0.79093,0.62571 0.97979,1.12448 l 0.17518,0.46302 0.47129,0.0114 c 0.25923,0.006 0.87418,0.22585 1.36684,0.48834 l 0.896071,0.47749 -1.027331,0.76843 c -1.02591,0.76747 -1.92953,1.68765 -1.94613,1.98231 -0.0178,0.31497 1.3667,0.76971 2.31872,0.76171 l 0.979791,-0.008 1.05833,-0.65164 c 0.58208,-0.35852 1.24386,-0.65244 1.47071,-0.65319 0.22684,-7.4e-4 0.63364,-0.16313 0.90382,-0.3607 l 0.49145,-0.35915 -0.38499,-1.02991 -0.38448,-1.02991 0.14211,-1.18805 0.14263,-1.18855 0.44855,-0.0853 0.44804,-0.0847 0.26458,1.00872 c 0.14552,0.55482 0.34714,1.36592 0.44803,1.80248 0.10088,0.43656 0.2748,0.91281 0.38603,1.05833 0.11123,0.14552 0.33745,0.7706 0.50281,1.38906 l 0.30076,1.12448 h 0.47439 c 0.76754,0 0.79651,-0.20911 0.26716,-1.93373 -0.2766,-0.90113 -0.67033,-2.19131 -0.87488,-2.86752 l -0.37155,-1.22939 0.68626,0.35605 c 0.37745,0.19578 0.78373,0.2956 0.9033,0.2217 l 0.21756,-0.13436 -0.008,0.34623 c -0.005,0.19049 -0.18321,0.57743 -0.39687,0.8599 -0.21365,0.28248 -0.38861,0.60989 -0.38861,0.7276 v 0.21342 h 1.1622 1.16272 l 0.16123,0.42065 c 0.0885,0.23141 0.0858,0.54334 -0.007,0.69298 -0.0925,0.14964 -0.21148,0.89687 -0.26458,1.66088 l -0.0966,1.38906 1.08623,0.14573 c 1.28581,0.17247 2.94173,-0.0487 3.18844,-0.42581 l 0.17518,-0.26769 -0.25166,-0.66146 -0.25167,-0.66145 0.34107,-0.21653 c 0.18754,-0.11898 0.54942,-0.21814 0.80408,-0.22014 l 0.46303,-0.004 v 0.26458 0.26458 h 1.05833 1.05833 l 0.55604,-0.55655 0.55656,-0.55604 2.127,-0.0987 c 1.16979,-0.0541 2.17217,-0.14387 2.22777,-0.19947 0.23498,-0.23498 -0.26714,-0.96377 -0.77515,-1.125 l -0.55035,-0.17467 0.64079,-0.35501 c 0.35259,-0.19534 0.84596,-0.35984 1.09605,-0.36484 l 0.45476,-0.009 -0.14832,0.3855 -0.14779,0.38603 0.67024,0.16794 0.67076,0.16847 0.30799,-0.19017 0.308,-0.19069 -0.18397,0.62891 c -0.101,0.34565 -0.38781,0.80697 -0.63717,1.02526 -0.24936,0.21828 -0.97601,0.84408 -1.61489,1.39113 l -1.16169,0.99477 0.28732,0.28732 0.28733,0.28732 1.84898,0.0114 1.84898,0.0119 0.61908,-0.43356 c 0.34045,-0.23846 0.83438,-0.43357 1.09761,-0.43357 h 0.47853 l 0.17001,-0.44286 c 0.23023,-0.59997 1.05553,-1.4017 1.24644,-1.21078 0.0849,0.0849 0.15451,0.53819 0.15451,1.00769 v 0.85369 l 0.41858,0.16072 c 0.23018,0.0883 0.76596,0.16071 1.19062,0.16071 0.42466,0 0.77094,0.0893 0.76998,0.19844 -0.003,0.36839 -0.91914,1.57159 -1.70945,2.24586 l -0.78497,0.67024 0.34158,0.41134 0.34158,0.41135 0.70797,0.0822 v -5.1e-4 c 0.38953,0.045 1.02521,0.0402 1.41283,-0.0109 l 0.70487,-0.093 0.7798,-0.97049 0.77979,-0.96996 -0.12557,-0.85525 -0.12557,-0.85524 h 1.65261 1.65261 l -0.14211,1.05833 -0.14211,1.05833 h 0.46819 c 0.25757,0 0.77102,0.23812 1.14102,0.52917 l 0.67282,0.52917 h 1.61179 1.61231 v -0.29766 c 0,-0.16379 -0.74037,-0.97888 -1.64538,-1.81126 l -1.6459,-1.5136 1.77509,-0.59066 c 0.97619,-0.32486 1.82834,-0.67729 1.89394,-0.78342 0.0656,-0.10614 0.027,-0.87603 -0.0863,-1.711 l -0.20619,-1.51826 0.37569,0.14418 c 0.20672,0.0793 0.66406,0.14418 1.01596,0.14418 h 0.63975 v 0.67902 c 0,0.86124 -0.44211,1.6899 -1.233,2.31201 l -0.61908,0.48731 v 0.47955 0.48008 l 0.85989,0.13074 c 0.47294,0.0714 1.24686,0.0691 1.7198,-0.005 l 0.85989,-0.13539 v -0.30334 c 0,-0.1669 0.22592,-0.49717 0.5023,-0.73381 l 0.50281,-0.42994 -0.262,-1.22784 c -0.14404,-0.67516 -0.19499,-1.40088 -0.11369,-1.61282 l 0.1478,-0.3855 h 0.79013 0.78961 l 0.17364,0.92449 0.17311,0.92449 -0.1695,0.67541 -0.16949,0.67541 0.78186,0.78135 0.78135,0.78135 h 1.29914 c 0.71455,0 1.37416,-0.075 1.46606,-0.16692 l 0.16744,-0.16691 -0.29869,-0.56069 c -0.16417,-0.30829 -0.48742,-0.70537 -0.71831,-0.88264 l -0.41961,-0.32246 0.95963,-0.008 0.95963,-0.008 0.30593,-0.36845 c 0.16811,-0.20256 0.54714,-0.4313 0.84232,-0.5085 l 0.5364,-0.14004 0.14573,0.37879 0.14521,0.37879 -1.08779,1.05523 c -1.57772,1.53113 -1.39738,2.1146 0.65268,2.1146 h 0.90278 l 1.22009,-1.20303 1.22059,-1.20302 -0.16795,-0.8475 c -0.14769,-0.74568 -0.23908,-2.60635 -0.17518,-3.55947 l 0.0222,-0.33073 h 2.15439 2.15439 l -0.15916,2.18281 -0.15968,2.18282 0.58446,1.12447 0.58394,1.12448 h 0.73639 c 0.40511,0 1.14952,-0.17259 1.65417,-0.38344 l 0.91777,-0.38343 v -0.46509 -0.46561 l -0.89504,-0.93689 -0.89503,-0.93741 -0.17622,-1.65365 -0.17673,-1.65364 h 0.52348 c 0.28787,0 0.71089,-0.18742 0.93999,-0.41652 l 0.41652,-0.41651 0.15968,0.41651 c 0.0879,0.2291 0.32593,0.41652 0.52865,0.41652 0.46419,0 0.46088,-0.0674 -0.0574,-1.26504 l -0.42582,-0.98392 -0.0661,-1.76475 -0.0661,-1.76475 0.49196,-0.12868 0.49196,-0.12867 v -0.81856 -0.81855 h 0.36225 c 0.20046,0 0.5116,0.17709 0.69143,0.39377 l 0.3266,0.3943 0.27285,-0.16899 0.27285,-0.16846 -0.17983,-3.99562 c -0.0989,-2.19761 -0.32259,-4.76954 -0.49713,-5.71542 l -0.3173,-1.71979 0.0765,-4.29534 0.0765,-4.29535 -0.4005,-0.86403 c -0.2201,-0.47518 -0.53639,-1.69746 -0.70331,-2.71611 -0.36778,-2.24431 -0.67272,-2.76944 -2.00091,-3.4463 -1.24767,-0.63583 -1.69923,-1.1474 -1.62833,-1.84537 0.0782,-0.76959 -0.60273,-3.09887 -1.06246,-3.6344 -0.21701,-0.25278 -0.76438,-0.59369 -1.21647,-0.75706 l -0.82217,-0.29662 0.076,-3.60909 0.076,-3.60908 0.40256,-1.10691 0.40204,-1.10742 -0.17673,-0.9431 c -0.19791,-1.05497 -0.49397,-1.19577 -0.90382,-0.42995 l -0.27441,0.51367 -0.11523,5.05344 -0.11473,5.05343 -0.74414,0.74621 c -0.4092,0.41039 -0.94298,1.03057 -1.18597,1.37821 l -0.44183,0.63201 -0.46457,-0.45321 -0.46509,-0.4532 0.31109,-0.68368 c 0.17133,-0.37603 0.31161,-0.95975 0.31161,-1.29708 v -0.6134 l -0.54829,-0.69711 -0.54829,-0.69712 h -0.75654 -0.75654 l -0.51832,0.72761 -0.51779,0.7276 0.22789,1.44074 c 0.12528,0.79248 0.19256,1.47607 0.14986,1.51877 -0.0427,0.0427 -0.44803,0.15186 -0.90072,0.24236 l -0.8232,0.16433 -0.14677,-0.88935 c -0.0808,-0.4892 -0.33493,-2.59954 -0.56482,-4.68963 l -0.41806,-3.80029 0.16536,-0.97875 0.16537,-0.97927 -0.51987,-1.30638 -0.52038,-1.30586 -0.14159,0.39687 c -0.0781,0.21828 -0.25244,0.82258 -0.38706,1.34256 l -0.24443,0.94516 0.35605,0.68006 0.35657,0.68006 0.38085,3.26957 c 0.20953,1.79811 0.45176,3.95367 0.53796,4.79041 l 0.15658,1.52135 h -0.36329 c -0.19993,0 -0.67375,0.24405 -1.05265,0.54209 l -0.68885,0.54156 -0.15451,-0.6165 -0.15503,-0.61649 0.4098,-0.78497 c 0.22521,-0.43188 0.40993,-1.0351 0.41082,-1.33997 l 0.002,-0.55397 -0.46302,-0.41755 c -0.25466,-0.2295 -0.79145,-0.4993 -1.19269,-0.59944 l -0.72916,-0.1819 -0.6599,0.43201 -0.65939,0.43253 v 1.84588 1.84589 h 0.41237 0.41238 l -0.1633,0.26458 c -0.0899,0.14552 -0.33497,0.26458 -0.54467,0.26458 h -0.38137 v -0.39894 c 0,-0.53615 -1.51074,-2.59824 -2.06861,-2.8236 -0.73045,-0.29508 -1.76793,-0.2395 -2.26084,0.12092 l -0.46199,0.33745 -0.23719,1.0511 -0.2372,1.0511 0.21239,0.21239 0.21239,0.21239 -0.12764,0.66766 -0.12764,0.66766 -0.69246,-0.17364 c -0.36892,-0.0926 -0.674,-0.18779 -0.69453,-0.216 l -5.2e-4,-5.2e-4 -5.2e-4,-5.2e-4 v -5.1e-4 -5.2e-4 -5.2e-4 c -0.002,-0.0246 -0.21356,-0.29506 -0.47025,-0.60151 l -0.46664,-0.55707 0.5457,-2.35335 c 0.71454,-3.0814 1.06189,-4.08899 1.63815,-4.75164 l 0.4749,-0.54622 -0.0264,-0.7767 c -0.0145,-0.42719 -0.10773,-1.06821 -0.20723,-1.42472 l -0.18086,-0.64854 -0.65268,1.04541 -0.65267,1.0449 v 0.79375 c 0,0.43656 -0.35719,2.25098 -0.79375,4.0318 l -0.79375,3.23753 -0.62322,0.003 -0.6227,0.003 0.10129,-4.16719 0.1018,-4.16719 0.31678,-0.56637 0.31677,-0.56638 -0.41548,-1.21956 c -0.22856,-0.67077 -0.50822,-1.21956 -0.62115,-1.21956 -0.11293,0 -0.34438,0.50602 -0.51469,1.12448 l -0.30955,1.12447 0.27492,1.42524 0.27544,1.42524 -0.004,3.46955 -0.004,3.46956 -0.22221,0.35088 -0.22272,0.3514 -0.15968,-0.98444 -0.15968,-0.98443 -0.58601,-0.62322 -0.5855,-0.62373 h -0.67179 -0.67128 l -0.62063,0.7276 -0.62012,0.7276 0.1664,-1.27434 0.16588,-1.27434 -0.42168,-0.64389 -0.42168,-0.64388 h -0.91106 -0.91053 l -0.29559,0.55242 -0.29559,0.5519 -0.0444,1.495 -0.0445,1.495 -0.41961,0.0806 -0.41961,0.0806 -0.58653,-5.53506 c -0.32252,-3.04419 -0.55917,-6.05781 -0.52607,-6.69675 l 0.0599,-1.16169 -0.47181,-0.72037 c -0.54614,-0.83352 -0.82429,-0.76319 -1.01957,0.25839 l -0.1385,0.72708 0.34417,0.66611 c 0.18942,0.36641 0.38542,0.97707 0.43512,1.35703 l 0.0899,0.69091 -0.37155,0.44752 c -0.38094,0.459 -0.71674,1.99487 -0.90847,4.15168 -0.0596,0.67015 -0.18926,1.47382 -0.28836,1.78594 l -0.18035,0.56741 h -1.264 -1.26401 l -0.39791,0.46302 c -0.21871,0.25466 -0.55124,1.03214 -0.73897,1.72754 -0.18772,0.6954 -0.3833,1.22219 -0.4346,1.17099 -0.12643,-0.12643 0.69915,-8.15426 0.88987,-8.65322 0.0834,-0.21828 0.12683,-0.59865 0.0966,-0.84543 -0.0302,-0.24678 0.1343,-0.8146 0.36536,-1.26142 l 0.42013,-0.81235 -0.28371,-1.05368 c -0.1561,-0.57971 -0.37641,-1.0542 -0.48937,-1.0542 -0.11296,0 -0.40869,0.42685 -0.65733,0.94826 l -0.45217,0.94774 0.16072,1.23507 0.16071,1.23455 -0.55139,4.66018 c -0.30335,2.56304 -0.55944,4.76569 -0.56844,4.89479 -0.009,0.12909 -0.13642,-0.063 -0.28318,-0.42684 l -0.26717,-0.66146 0.0641,-5.15938 0.0636,-5.15937 -0.3514,-1.12448 c -0.19318,-0.61846 -0.42827,-1.12448 -0.52297,-1.12448 -0.0947,0 -0.36863,0.61295 -0.60823,1.36219 l -0.43563,1.36219 0.30541,0.55604 c 0.37623,0.68477 0.47088,1.52245 0.64027,5.66994 l 0.13332,3.2613 -0.68419,-0.44804 -0.68472,-0.44855 -1.20922,0.39791 -1.20923,0.39843 -0.15658,-0.43357 c -0.0861,-0.23828 -0.52381,-0.81897 -0.97255,-1.29036 l -0.81597,-0.8568 -0.87333,-0.003 -0.87282,-0.003 -0.7922,0.4098 -0.79168,0.40927 -0.25373,0.66715 -0.25322,0.66662 0.10904,0.84181 c 0.0599,0.46305 0.23409,1.16508 0.38706,1.56011 l 0.27801,0.71831 -0.25528,0.15761 -0.25476,0.15761 -0.28267,-0.7431 c -0.42095,-1.10718 -1.00786,-1.64144 -2.13941,-1.94614 l -1.01647,-0.27337 v -3.41374 -3.41375 l 0.26872,-0.1664 0.26923,-0.16588 -0.15555,-0.25166 -0.15554,-0.25167 0.28732,-0.86971 0.2868,-0.87023 -0.3607,-1.04283 c -0.1986,-0.57366 -0.45634,-1.04335 -0.57257,-1.04335 -0.11624,0 -0.35184,0.41672 -0.52349,0.92604 l -0.31212,0.92604 0.0739,1.32292 c 0.0405,0.7276 0.0858,1.38241 0.10077,1.45521 0.0149,0.0728 0.0147,1.67731 -5.2e-4,3.56516 l -0.0274,3.43235 -0.31729,0.20153 c -0.17435,0.11087 -0.44299,0.20316 -0.59738,0.20516 l -0.28112,0.004 -0.34055,-1.32963 -0.34106,-1.32964 -0.71262,-0.36845 -0.71262,-0.36845 -0.33073,-2.651 -0.33073,-2.65049 0.17002,-1.28002 0.1695,-1.28003 -0.58136,-0.98598 c -0.31982,-0.54206 -0.678511,-0.98547 -0.796861,-0.98547 -0.11836,0 -0.30514,0.50602 -0.41547,1.12448 l -0.20103,1.12447 -0.25734,-0.85989 c -0.31467,-1.04959 -0.48871,-1.07525 -0.89556,-0.13229 l -0.31367,0.7276 0.007,1.27744 c 0.007,1.34909 -0.58504,10.04841 -0.69247,10.17199 -0.0346,0.0398 -0.22943,0.008 -0.43305,-0.0698 l -0.37,-0.14211 0.0951,-1.19889 0.0956,-1.19941 -0.70539,-1.01751 -0.70486,-1.01751 -0.15348,-1.48363 -0.15297,-1.48415 h -0.26199 -0.26252 l 0.15606,-0.96067 0.15606,-0.96014 -0.84904,-1.22267 -0.84904,-1.22215 -0.0827,1.30897 -0.0827,1.30896 0.44494,1.07229 c 0.24484,0.58973 0.54435,1.31041 0.66559,1.60145 0.12124,0.29104 0.34237,1.00095 0.49144,1.57717 l 0.2713,1.04748 -0.55552,0.59118 -0.55552,0.59117 0.17208,1.27176 0.17157,1.27124 -0.51263,-0.59531 -0.51263,-0.59531 h -0.64441 -0.64389 l -0.47955,0.5302 -0.48008,0.5302 -0.17673,0.99115 -0.17725,0.99115 -0.21136,-2.8732 -0.21187,-2.87321 0.20722,-1.757 c 0.26058,-2.2133 0.23243,-2.90179 -0.15658,-3.88245 l -0.31109,-0.78497 -0.40101,1.16582 -0.40153,1.16634 0.30076,1.30173 0.30024,1.30121 v 3.17448 3.17397 l -0.44648,-0.0858 -0.44649,-0.0863 -0.7369,-2.9099 c -0.40526,-1.60048 -0.71633,-3.21544 -0.69143,-3.58893 l 0.0455,-0.67903 -0.6413,-0.9002 -0.64131,-0.90072 -0.21911,1.10846 -0.2191,1.10846 0.54363,0.73535 0.54364,0.73587 0.68264,2.71353 0.68265,2.71302 -0.3421,0.77256 -0.34158,0.77205 -0.60616,0.11575 -0.60565,0.11576 -0.0253,-0.55863 c -0.0141,-0.30724 -0.007,-0.97768 0.0155,-1.48983 l 0.0413,-0.93121 -0.65319,-0.61391 -0.65371,-0.61444 -0.48679,0.0992 -0.48679,0.0987 -0.46871,-0.75189 -0.4687,-0.75241 -0.80564,-0.2806 -0.80615,-0.28112 0.17157,-1.09244 c 0.27172,-1.73148 0.6505,-3.04071 0.92966,-3.21324 l 0.25735,-0.15916 -0.0186,-0.8444 c -0.0102,-0.46435 -0.11103,-1.08141 -0.22427,-1.37149 l -0.20619,-0.52761 -0.47491,0.91829 -0.47491,0.91829 -0.0584,1.5937 c -0.0323,0.87641 -0.20369,2.21826 -0.38086,2.98224 l -0.32246,1.38907 h -0.65164 -0.65112 l -0.65887,0.65887 -0.65888,0.65888 -0.14056,-0.36639 c -0.0773,-0.20155 -0.006,-0.86721 0.15865,-1.47898 l 0.29972,-1.11208 -0.44907,-0.49661 -0.44906,-0.49609 0.17776,-1.34049 c 0.0978,-0.73713 0.30178,-1.61267 0.45372,-1.94613 l 0.27647,-0.60668 -0.30437,-1.12913 c -0.33663,-1.25015 -0.48362,-1.23352 -0.94517,0.10903 l -0.31316,0.91106 0.13333,1.86242 0.13333,1.8619 h -0.39688 c -0.21821,0 -0.72341,0.25727 -1.12293,0.57154 l -0.72657,0.57154 0.11989,1.44539 0.11989,1.44539 -0.35398,-0.67593 -0.3545,-0.67592 -0.50178,-0.15917 -0.50126,-0.15916 -0.15762,-0.58653 c -0.0865,-0.3226 -0.15871,-1.3982 -0.16071,-2.39003 l -0.004,-1.80299 0.25631,-0.47904 0.25632,-0.47853 -0.4284,-1.0914 c -0.23578,-0.60022 -0.51092,-1.09141 -0.61133,-1.09141 -0.10041,0 -0.32506,0.47556 -0.4992,1.05678 l -0.31678,1.05679 0.31833,0.59427 0.31781,0.59428 0.12247,2.5461 0.12299,2.54558 -0.29869,0.18449 c -0.16401,0.10136 -0.30144,0.38541 -0.30644,0.63148 l -0.008,0.44752 -0.63562,0.46199 -0.63562,0.4625 -0.16381,-0.51624 -0.16382,-0.51625 0.42995,-0.65629 0.42995,-0.65681 -0.0853,-0.74466 -0.0853,-0.74466 -0.87178,-0.39687 -0.87127,-0.39688 0.0729,-1.4552 0.0734,-1.45521 -0.35812,-0.8599 c -0.46953,-1.1271 -0.7384,-1.08683 -0.88315,0.13229 l -0.11783,0.99219 0.35347,0.85163 c 0.1944,0.46827 0.35347,1.09334 0.35347,1.38906 v 0.53744 l -0.52917,0.52916 -0.52916,0.52917 v 1.45521 1.45521 h 0.28008 0.28009 l -0.1447,0.23409 c -0.0796,0.12874 -0.5,0.28657 -0.93482,0.35037 l -0.79065,0.11575 0.24546,-0.2961 0.24598,-0.29611 -0.0739,-0.69505 c -0.0408,-0.38213 -0.24347,-0.94604 -0.45062,-1.25315 l -0.37672,-0.55811 -0.93224,-0.14882 -0.93224,-0.14832 -0.60048,0.48783 -0.60048,0.48782 -0.10491,1.41697 c -0.0576,0.77931 -0.14673,1.45932 -0.19843,1.51102 -0.0517,0.0516 -0.34189,0.0292 -0.64492,-0.0501 l -0.55088,-0.14418 -0.33021,-0.6165 -0.32969,-0.61702 0.555,-1.82728 0.55501,-1.82779 0.53588,-0.48473 0.53589,-0.48524 v -1.14928 -1.1498 h -0.23307 c -0.12825,0 -0.54448,0.40804 -0.925,0.90692 l -0.69195,0.90744 0.13281,0.34933 0.13332,0.34985 -0.60668,2.11511 -0.6072,2.1146 -0.48937,0.0946 -0.48886,0.094 0.19172,-2.70577 0.19172,-2.70578 0.34623,-0.98186 0.34675,-0.98185 -0.28215,-1.23351 c -0.15525,-0.67845 -0.35155,-1.23303 -0.43615,-1.23249 -0.0846,5.5e-4 -0.36715,0.51849 -0.62736,1.15135 l -0.47284,1.15084 0.2496,1.11156 0.2496,1.11156 -0.24391,2.81275 c -0.13431,1.54683 -0.28992,2.85823 -0.34572,2.91403 -0.0558,0.0558 -0.18552,-0.39431 -0.28784,-0.99994 l -0.18603,-1.10122 -0.88367,-0.36897 -0.88367,-0.36949 -0.478,0.1726 c -0.2628,0.095 -0.8052,0.40005 -1.20561,0.67748 l -0.72813,0.50436 0.26511,-0.69711 c 0.14575,-0.38335 0.2651,-0.98435 0.2651,-1.33532 v -0.63769 l -0.64389,-0.4222 -0.64389,-0.42168 -0.54054,0.28939 c -0.75536,0.40425 -1.0821,1.12193 -1.0821,2.3766 v 1.0759 h -0.36484 -0.36535 l -0.19017,-3.54965 -0.18965,-3.54966 0.16691,-0.76171 0.16744,-0.76171 -0.44907,-1.04644 -0.44959,-1.04645 -0.33796,1.12913 -0.33797,1.12913 0.36794,0.88056 0.36794,0.88057 0.0419,3.50366 0.0424,3.50315 -0.74052,0.38447 -0.74104,0.38447 0.48834,-0.54001 c 0.2682,-0.29684 0.38693,-0.53951 0.26251,-0.53951 h -0.22634 l 0.3173,-0.31729 c 0.17462,-0.17462 0.31781,-0.6119 0.31781,-0.97152 v -0.6537 l -0.43822,-0.48421 -0.4377,-0.48369 h -0.99581 c -0.54763,0 -1.17773,0.07 -1.40043,0.15554 l -0.40514,0.15503 -0.4222,1.27228 -0.42271,1.27227 -0.51728,0.13487 -0.51676,0.1354 0.002,-3.21634 c 8.4e-4,-1.76901 0.11763,-3.92505 0.25942,-4.79093 l 0.25735,-1.57406 -0.30076,-1.00562 c -0.16567,-0.55295 -0.38242,-1.00511 -0.48162,-1.00511 -0.2359,0 -0.95302,2.17039 -0.83044,2.51354 0.052,0.14552 0.12182,0.57253 0.15502,0.94878 0.0332,0.37625 0.12426,0.79296 0.20206,0.92604 0.0778,0.13308 0.10689,0.5395 0.0646,0.90331 -0.0422,0.3638 -0.0871,1.85208 -0.0997,3.30729 l -0.0227,2.64583 -0.96635,0.0217 -0.96583,0.0212 -0.48834,0.60307 c -0.26859,0.33169 -0.48834,0.82837 -0.48834,1.10329 0,0.55219 -0.0356,0.57084 -0.63976,0.339 l -0.41858,-0.16072 v -0.40514 c 0,-0.22305 0.1898,-0.54462 0.42168,-0.71417 l 0.42168,-0.30799 0.0284,-1.01131 0.0289,-1.01131 -0.61185,-0.49557 -0.61185,-0.49558 h -0.74724 c -0.41097,0 -1.04931,0.11491 -1.41852,0.25528 l -0.67127,0.25528 -0.16743,0.66715 c -0.17592,0.70106 -0.1902,1.34478 -0.0589,2.65875 l 0.0791,0.79375 0.47594,-0.0388 0.47594,-0.0393 -0.10077,0.30282 -0.10077,0.30231 -0.95601,0.15554 -0.95653,0.15555 0.25063,-0.46767 c 0.1377,-0.2573 0.25011,-0.75271 0.25011,-1.10071 v -0.63304 l -0.59531,-0.54622 c -0.32742,-0.30069 -0.9525,-0.62065 -1.38906,-0.71055 l -0.79375,-0.16329 -0.8599,0.52761 -0.85989,0.52814 -0.0248,0.46663 c -0.0134,0.2568 -0.0232,0.97882 -0.0222,1.60404 l 0.002,1.13688 0.41392,0.632 0.41445,0.63252 -0.5333,-0.0403 -0.53382,-0.0403 -0.10438,-0.53795 c -0.0576,-0.29607 -0.29269,-3.2366 -0.52245,-6.53397 l -0.418074,-5.99498 0.262004,-0.68833 0.26149,-0.68782 -0.440294,-0.92346 c -0.24219,-0.50786 -0.53164,-0.92345 -0.64337,-0.92345 z m 70.686134,3.49281 c 0.36581,-0.008 0.80531,0.76324 0.93069,1.89394 0.0507,0.45767 0.21558,1.60589 0.366901,2.55178 0.15131,0.94588 0.2776,2.03318 0.2806,2.41639 l 0.005,0.6966 -0.544151,0.14263 -0.54467,0.14211 -0.29352,0.77876 c -0.16166,0.42828 -0.50652,0.91157 -0.76636,1.07384 l -0.47233,0.29507 -0.1204,-0.19482 c -0.14785,-0.23924 0.53777,-8.62748 0.76326,-9.33793 0.0992,-0.31262 0.24035,-0.455 0.39481,-0.45837 z m 27.577121,3.51968 0.23307,1.5875 c 0.12839,0.87312 0.33005,2.38659 0.44803,3.36362 l 0.21446,1.77663 -0.29249,0.11266 c -0.44162,0.16947 -1.14151,-0.44196 -1.45779,-1.27383 l -0.28164,-0.74052 0.30696,-1.55959 c 0.16875,-0.85773 0.40999,-1.62339 0.53588,-1.70119 0.12589,-0.0778 0.24327,-0.46158 0.26097,-0.85318 z m -98.523705,16.74678 0.17364,0.92656 c 0.0956,0.50966 0.13029,1.14725 0.077,1.41645 l -0.0966,0.48938 -0.18139,-0.28733 c -0.2455,-0.38968 -0.35136,-2.16631 -0.14159,-2.37608 z m 49.998504,28.23239 0.0207,0.41237 c 0.0115,0.22684 -0.13843,0.6306 -0.33331,0.89711 l -0.3545,0.48472 -0.17467,-0.45579 c -0.24114,-0.62844 -0.22679,-0.67696 0.19999,-0.67696 0.20615,0 0.4351,-0.14883 0.5085,-0.33073 z m 22.266861,0.13229 h 0.66146 0.66146 v 0.92604 c 0,0.50932 -0.0595,0.92604 -0.1323,0.92604 -0.30069,0 -1.19062,-1.08771 -1.19062,-1.45521 z m 50.2822,3.69951 0.62787,0.41135 0.62787,0.41134 -0.13539,0.51677 c -0.20329,0.77739 -0.36018,0.66037 -0.8537,-0.63769 z" /></g></svg>
