<?xml version="1.0" encoding="UTF-8" standalone="no"?>
<!-- Created with Inkscape (http://www.inkscape.org/) -->

<svg
   version="1.1"
   id="svg1"
   width="601"
   height="597"
   viewBox="0 0 601 597"
   sodipodi:docname="wheat.svg"
   inkscape:version="1.4.2 (f4327f4, 2025-05-13)"
   xml:space="preserve"
   xmlns:inkscape="http://www.inkscape.org/namespaces/inkscape"
   xmlns:sodipodi="http://sodipodi.sourceforge.net/DTD/sodipodi-0.dtd"
   xmlns="http://www.w3.org/2000/svg"
   xmlns:svg="http://www.w3.org/2000/svg"><defs
     id="defs1" /><sodipodi:namedview
     id="namedview1"
     pagecolor="#ffffff"
     bordercolor="#000000"
     borderopacity="0.25"
     inkscape:showpageshadow="2"
     inkscape:pageopacity="0.0"
     inkscape:pagecheckerboard="0"
     inkscape:deskcolor="#d1d1d1"
     inkscape:zoom="0.69111694"
     inkscape:cx="361.00982"
     inkscape:cy="347.98742"
     inkscape:window-width="2560"
     inkscape:window-height="1369"
     inkscape:window-x="-8"
     inkscape:window-y="-8"
     inkscape:window-maximized="1"
     inkscape:current-layer="g1" /><g
     inkscape:groupmode="layer"
     inkscape:label="Image"
     id="g1"><path
       style="fill:#000000;stroke-width:1.09843"
       d="m 202.21243,672.15476 -2.01372,-0.74049 -1.40932,-2.42922 -1.40933,-2.42922 0.4314,-6.84126 0.43138,-6.84126 0.16517,-7.08028 0.16516,-7.08029 0.70912,-15.01526 0.70911,-15.01528 0.21653,-4.57027 0.2165,-4.57026 0.27877,-14.76561 0.27879,-14.76561 1.67285,-24.97674 1.67283,-24.97671 1.12271,-10.06656 1.12272,-10.06655 -0.24229,-1.50958 -0.24228,-1.50957 -11.94771,-8.15796 -11.94769,-8.15794 -8.55142,-7.10293 -8.55141,-7.10291 -7.12628,-11.18801 -7.12626,-11.18798 -2.59484,-9.20526 -2.59483,-9.20525 -1.10516,-6.34329 -1.10517,-6.3433 -0.26913,-8.73316 -0.26912,-8.7332 0.18671,-13.40964 0.18671,-13.40966 -0.56484,-9.22921 -0.56484,-9.22922 -2.11595,-9.37729 -2.11594,-9.37729 -5.61079,-7.3909 -5.6108,-7.39089 -10.24699,-8.99644 -10.24702,-8.99645 -1.24145,-2.10778 -1.24154,-2.10772 1.39288,-2.77595 1.39286,-2.77594 2.90449,-0.47576 2.90449,-0.47577 10.23328,8.69106 10.23329,8.69105 6.01058,7.05996 6.01058,7.05994 2.15745,3.09521 2.15744,3.09521 1.13943,-0.24235 1.13943,-0.24236 -1.37313,-7.48849 -1.37312,-7.48849 0.51162,-10.1112 0.51161,-10.1112 1.34207,-7.76307 1.34207,-7.76306 3.50243,-14.32124 3.50241,-14.32126 -0.61966,-5.76477 -0.61965,-5.76479 -5.20306,-9.04549 -5.20304,-9.0455 -7.56951,-8.15205 -7.56949,-8.15208 0.16922,-3.11091 0.16921,-3.11093 2.17177,-1.25996 2.1718,-1.25998 2.19436,0.31432 2.19434,0.31432 5.11205,5.28858 5.11203,5.28858 6.04575,7.88866 6.04575,7.88865 3.71234,9.15864 3.71234,9.15863 5.22873,1.38926 5.22871,1.38927 -1.14508,-5.51352 -1.14509,-5.51355 0.44601,-9.78301 0.44603,-9.78303 1.33759,-7.12552 1.33759,-7.12553 4.90466,-20.80499 4.90463,-20.80497 2.85547,-5.5582 2.85548,-5.55819 0.53119,-6.00122 0.5312,-6.00126 -1.07991,-5.47171 -1.07994,-5.47172 -11.40156,-18.903989 -11.40158,-18.90397 0.3917,-2.32896 0.39173,-2.32897 2.61766,-1.51863 2.61765,-1.51866 2.01671,0.74158 2.01672,0.74159 9.13626,14.01912 9.13626,14.019129 3.89111,8.65259 3.8911,8.6526 0.59778,5.45094 0.59778,5.45095 6.06853,3.93934 6.06855,3.93935 -0.56625,-1.00393 -0.56627,-1.00394 0.65151,-11.10958 0.6515,-11.1096 0.96301,-6.27326 0.96302,-6.27325 3.32969,-16.535619 3.32969,-16.5356 3.4355,-12.15236 3.43553,-12.15235 -0.4148,-4.204 -0.4148,-4.20402 -8.39103,-14.68521 -8.39106,-14.6851703 1.01189,-2.30462 1.01181,-2.30456 1.53703,-0.89171 1.53704,-0.89172998 2.38389,0.25286 2.38394,0.25286 5.35879,7.00174998 5.35883,7.0017703 3.08268,6.46593 3.08266,6.46592 1.5786,7.00163 1.57859,7.00163 4.9721,4.12163 4.97209,4.12162 0.48209,-4.4092 0.48211,-4.4092 3.03461,-8.81526 3.03461,-8.81528 4.62337,-10.19241 4.62336,-10.1923903 4.77471,-12.333352 4.77469,-12.3333597 0.58909,-1.611656 0.58908,-1.611661 -0.62992,-5.72607 -0.6299,-5.726088 -2.33237,-6.524261 -2.33235,-6.524271 -7.03661,-10.681059 -7.03663,-10.681039 0.64796,-2.43875 0.64799,-2.438745 2.16015,-1.253226 2.16016,-1.253227 2.42082,0.817876 2.42085,0.817864 3.36155,4.25354 3.36157,4.253533 5.22938,9.183959 5.22949,9.183919 2.15557,8.256661 2.15556,8.256664 0.32493,6.804976 0.32494,6.804985 0.63567,2.523842 0.63568,2.523821 2.9493,-10.953188 2.94929,-10.953194 6.10247,-9.628357 6.10243,-9.62836 5.53728,-6.348535 5.53728,-6.348545 6.59671,-6.216978 6.5967,-6.216981 3.89185,-3.141747 3.89187,-3.141751 5.30606,-5.081907 5.30606,-5.081916 4.32322,-16.626077 4.32322,-16.62607 7.96089,-25.20797 7.96089,-25.20799 2.274,-1.31926 2.27399,-1.31927 2.35922,0.62684 2.35923,0.62685 1.28342,2.21219 1.28341,2.21221 -2.68614,9.05056 -2.68616,9.05057 -3.07041,10.0299 -3.07041,10.0299 -4.47477,13.96797 -4.47475,13.96798 -1.76886,9.39365 -1.76882,9.393647 3.76799,7.860102 3.76801,7.860112 2.11623,8.931483 2.1162,8.93148 1.41629,13.514181 1.41627,13.514197 0.12513,7.919973 0.12512,7.919987 -1.00537,10.3693557 -1.00536,10.369353 1.73427,-4.09036998 1.73427,-4.09036802 4.07157,-6.192479 4.07158,-6.1924597 5.52251,-5.726131 5.52252,-5.726136 8.13437,-6.773521 8.13437,-6.773522 5.10284,-3.755336 5.10284,-3.755351 2.13399,0.359775 2.13401,0.359794 1.54678,2.666137 1.54677,2.666135 -0.54974,2.069008 -0.54973,2.069018 -10.27491,8.275724 -10.27493,8.27573 -6.24358,6.124728 -6.2436,6.1247287 -4.88095,7.533664 -4.88094,7.533652 -0.87437,8.3429403 -0.87436,8.34293 -1.46202,13.62445 -1.462,13.62446 -2.31126,13.67958 -2.31124,13.67957 -2.98638,11.12705 -2.98641,11.12702 10.04063,-6.50893 10.04065,-6.50891 6.44895,-6.39528 6.44896,-6.39528 8.84,-11.0295 8.84001,-11.02951 3.76511,-2.78422 3.76511,-2.78424 2.37204,1.92516 2.37204,1.92514 0.44052,2.69119 0.44053,2.6912 -7.28021,8.99654 -7.28023,8.99654 -2.37503,3.21602 -2.37506,3.21604 -7.75918,7.77151 -7.7592,7.77153 -13.67867,8.612569 -13.67869,8.61259 -0.30008,5.40042 -0.30008,5.40042 -1.78041,9.168 -1.78039,9.16802 -4.15236,12.54277 -4.15237,12.54276 -4.43699,9.61183 -4.43701,9.61182 2.77348,-0.44024 2.7735,-0.44023 7.82851,-5.27178 7.82852,-5.27181 5.76907,-5.21832 5.76905,-5.21832 4.16513,-4.85963 4.16511,-4.85964 7.2996,-10.8904 7.2996,-10.89039 2.78706,-0.80083 2.78709,-0.80082 2.30864,1.6397 2.30865,1.63972 0.0941,2.74325 0.0941,2.74325 -7.26794,10.54589 -7.26795,10.54593 -3.54285,4.47524 -3.54285,4.47523 -6.69662,6.62123 -6.69662,6.6212 -12.64238,7.75881 -12.64238,7.75878 -3.887,14.09463 -3.88698,14.09463 -6.01518,16.43227 -6.01516,16.43226 -5.07776,10.41404 -5.07774,10.41404 -2.34631,3.61688 -2.3463,3.61687 -0.16993,0.5069 -0.16991,0.5069 4.09044,0.77857 4.09044,0.77857 4.77207,-1.94435 4.77205,-1.94434 8.64371,-6.49677 8.64372,-6.49676 11.76616,-13.6879 11.76616,-13.68793 3.02975,0.16481 3.0297,0.16484 1.62822,2.80652 1.62822,2.80653 -1.32721,2.63735 -1.32721,2.63734 -8.66525,10.23626 -8.66525,10.23624 -7.48444,6.79937 -7.48444,6.79936 -8.99239,5.29456 -8.99245,5.29449 -1.11128,10.12347 -1.11126,10.12349 -3.88432,13.00479 -3.88432,13.00479 -4.26323,10.06538 -4.26323,10.06535 -5.19613,9.10473 -5.19613,9.10472 0.64785,1.21153 0.64802,1.21143 3.21257,0.85357 3.21256,0.85358 8.12283,-5.51625 8.12284,-5.51624 6.22482,-6.11104 6.22485,-6.11103 7.91651,-10.4324 7.91652,-10.43238 2.71374,-3.54411 2.71373,-3.54412 3.27022,0.17789 3.27021,0.17787 1.25997,2.17177 1.25997,2.17179 -0.31348,2.19581 -0.31345,2.1958 -7.62381,10.27263 -7.62379,10.27262 -6.74137,7.65005 -6.74135,7.65005 -7.93184,6.02816 -7.93185,6.02817 -6.02928,3.10715 -6.0293,3.10717 -4.50936,15.93892 -4.50934,15.93892 -3.68106,7.43539 -3.68105,7.43541 -5.19678,6.81223 -5.19679,6.81225 -6.45013,5.75377 -6.45014,5.75374 -10.26239,5.9339 -10.26246,5.93382 -9.60104,3.151 -9.60106,3.15097 -7.72188,1.3799 -7.7219,1.37989 -9.08175,-0.16174 -9.08176,-0.16175 -0.32655,2.5872 -0.32655,2.5872 -1.88196,19.55333 -1.88196,19.5533 -1.06377,18.64846 -1.06376,18.64844 -0.18655,8.43409 -0.18653,8.43407 -0.68854,17.80602 -0.68855,17.80602 -0.58213,18.11637 -0.58212,18.11634 -0.45411,2.48579 -0.4541,2.48578 -2.58675,1.50072 -2.58675,1.50072 z m 87.76503,-212.08454 6.38371,-5.41329 4.63882,-6.00278 4.63882,-6.00277 3.06179,-5.89625 3.06177,-5.89623 4.07238,-14.32228 4.0724,-14.32229 -1.1587,-1.99325 -1.1587,-1.99323 -6.2494,-0.37891 -6.2494,-0.37891 -2.57493,0.15852 -2.57492,0.15853 -8.10866,2.11691 -8.10865,2.11692 -10.863,4.93029 -10.86301,4.93028 -8.17268,6.14043 -8.17268,6.14044 -2.74181,2.93517 -2.74181,2.93516 -5.96466,8.3245 -5.96469,8.32447 -1.26443,1.37043 -1.26442,1.37043 -2.1357,15.20507 -2.13557,15.20502 0.52364,0.90257 0.52363,0.90258 5.61028,0.36749 5.61028,0.3675 5.45936,-0.46903 5.45933,-0.469 4.33765,-0.91066 4.33767,-0.91065 7.98331,-2.99525 7.98334,-2.99522 7.16313,-4.06983 7.16313,-4.06984 z m -78.23731,0.20179 2.64389,-18.67752 1.4966,-9.45049 1.4966,-9.45048 -0.6224,-7.56542 -0.6224,-7.56541 -1.88467,-6.70932 -1.8847,-6.70931 -3.14815,-5.42638 -3.14815,-5.4264 -4.64107,-4.69849 -4.64108,-4.69851 -14.7335,-10.91249 -14.73349,-10.91247 -4.51904,-4.76902 -4.51904,-4.76901 -2.82472,-1.76463 -2.82471,-1.76464 0.42515,2.29316 0.42514,2.29316 1.06183,7.70728 1.06181,7.70728 -0.12165,22.85989 -0.12166,22.85986 0.64502,6.61026 0.64502,6.61025 1.25896,5.61898 1.25896,5.61898 2.33654,6.63451 2.33654,6.63452 5.02846,7.50621 5.02849,7.50622 7.54348,6.41777 7.54351,6.41777 9.61056,6.36791 9.61056,6.36793 0.44435,-2.04212 0.44434,-2.04212 z m 102.38313,-83.59904 5.43059,-8.30299 2.91271,-6.27019 2.91273,-6.2702 4.6832,-12.1067 4.68318,-12.1067 1.93799,-8.98726 1.93797,-8.98727 0.43888,-5.4193 0.43888,-5.41929 -1.21379,-0.62093 -1.21376,-0.62094 -3.67385,0.23417 -3.67385,0.23418 -13.3729,2.47131 -13.37289,2.47131 -8.45626,2.38876 -8.45626,2.38875 -7.21088,4.18459 -7.2109,4.18459 -8.54655,8.1784 -8.54656,8.17839 -5.20672,8.61005 -5.20674,8.61005 -2.48836,10.09376 -2.48836,10.09373 -2.39924,12.1861 -2.39925,12.18612 -1.48799,8.31978 -1.48799,8.31978 -0.62084,4.02037 -0.62084,4.0204 1.72732,-2.11318 1.72731,-2.11318 8.40989,-7.12713 8.40987,-7.12715 11.35493,-5.86604 11.35498,-5.86603 7.49037,-2.41133 7.49038,-2.41131 6.42446,-1.24574 6.42445,-1.24574 3.58615,-0.10487 3.58615,-0.10489 0.28066,-0.11204 0.28063,-0.11204 z m -85.89363,-12.13626 0.50979,-4.92491 1.97248,-5.80981 1.97248,-5.8098 1.02973,-6.9676 1.02975,-6.9676 -0.84488,-9.06949 -0.8449,-9.0695 -2.75516,-8.2649 -2.75515,-8.26491 -4.17178,-5.8531 -4.17179,-5.8531 -9.09337,-9.3283 -9.09336,-9.32832 -4.65196,-4.2856 -4.65197,-4.28559 -4.75839,-3.82918 -4.75836,-3.82918 -5.26976,-1.78206 -5.26975,-1.78207 -3.16636,11.36124 -3.16636,11.36126 -1.89193,12.52672 -1.89194,12.52673 -0.0171,7.70129 -0.0171,7.70127 1.37832,7.07036 1.37833,7.07032 3.20503,5.52445 3.20504,5.52446 4.28205,4.04081 4.28206,4.04083 8.5543,6.03125 8.55431,6.03126 8.9544,7.78801 8.9544,7.78805 4.57884,7.89243 4.57884,7.89245 2.15569,-9.82162 2.15569,-9.82162 z m 98.33667,-83.27257 4.79065,-7.06475 4.92438,-10.11761 4.92439,-10.11763 3.74586,-9.91117 3.74584,-9.91117 5.45966,-17.614 5.45965,-17.61401 -1.1783,-0.22759 -1.17827,-0.22758 -21.88975,9.79242 -21.88976,9.79244 -9.48446,6.17336 -9.48449,6.17336 -8.53906,9.50213 -8.53906,9.50212 -2.55721,5.29941 -2.55723,5.29943 -1.57383,0.93617 -1.57382,0.93619 -3.64661,11.95447 -3.64661,11.95449 -4.86328,17.32769 -4.86326,17.32768 0.38338,0.10186 0.38336,0.10188 5.39987,-4.89931 5.39989,-4.89932 8.81919,-5.16101 8.81915,-5.16111 7.20694,-2.23748 7.20695,-2.23751 11.37941,-2.27459 11.3794,-2.27461 1.6232,-1.57989 1.62323,-1.57991 z m -74.47011,-5.78397 3.38245,-11.68096 4.64637,-13.34187 4.64639,-13.34187 -3.20262,-4.4915 -3.20261,-4.4915 -9.95923,-15.81043 -9.95924,-15.81042 -4.73833,-11.85491 -4.73837,-11.85489 -6.13028,-11.6823 -6.13028,-11.68231 -3.04346,-2.27137 -3.04345,-2.27138 -2.98888,6.14432 -2.98889,6.14434 -4.96089,20.91839 -4.96087,20.91841 -1.17526,7.6663 -1.17526,7.66629 -0.14102,6.93242 -0.14104,6.93243 0.47033,2.87161 0.47034,2.87164 2.71088,6.68953 2.71089,6.68952 4.04501,4.79391 4.04499,4.79391 11.19529,11.28364 11.19527,11.28363 7.29072,12.48693 7.29073,12.48694 2.5989,-8.65375 2.59889,-8.65375 z m 102.46154,-94.81305 4.49797,-7.56926 5.37546,-13.94148 5.37545,-13.9415 2.40323,-10.67541 2.40323,-10.67541 0.43056,-5.55821 0.43059,-5.55823 -0.54021,-0.93116 -0.54023,-0.93116 -8.72379,4.11588 -8.72379,4.11588 -11.41866,6.58472 -11.41867,6.58471 -5.65802,5.56973 -5.65801,5.56971 -8.33943,10.59013 -8.33942,10.59014 -6.92032,16.73506 -6.92031,16.73506 -3.2855,8.56474 -3.28548,8.56474 -1.61475,4.87783 -1.61475,4.87786 2.43248,-2.37391 2.43248,-2.3739 19.11027,-10.83806 19.11029,-10.83806 9.81647,-3.87414 9.81646,-3.87413 2.4342,-1.2765 2.4342,-1.27648 z m -71.91848,8.4601 7.50896,-18.80022 3.84447,-8.85072 3.84448,-8.8507 -0.30633,-3.36118 -0.30632,-3.36119 -1.11914,-6.33521 -1.11904,-6.33523 -14.17197,-25.43046 -14.17193,-25.430479 -7.34627,-12.24675 -7.34627,-12.24675 -1.41747,-0.85281 -1.4175,-0.85281 -3.8703,15.98461 -3.87032,15.98464 -2.26088,13.375719 -2.26088,13.37573 -0.63269,10.52628 -0.63268,10.52628 0.44948,7.41556 0.44948,7.41555 1.90186,8.99892 1.90188,8.99893 6.00467,13.66003 6.00464,13.66005 6.61922,10.12875 6.61923,10.12874 2.28768,2.84224 2.28766,2.84223 2.50866,-7.05476 2.50865,-7.05475 z m 55.3119,-73.2013 7.12585,-4.1341 14.30454,-7.31265 14.30453,-7.312649 3.15577,-11.07141 3.15575,-11.07138 1.50067,-9.12812 1.50069,-9.12814 1.45774,-9.73189 1.45776,-9.73191 0.80921,-7.77142 0.80922,-7.77141 -1.40951,0.81774 -1.40951,0.81773 -12.46592,9.80974 -12.46593,9.80974 -5.95163,6.15808 -5.95162,6.15806 -5.03604,7.37807 -5.03605,7.37807 -5.52696,19.28718 -5.52696,19.287199 -2.0986,6.19281 -2.09861,6.1928 -1.13695,3.55244 -1.13693,3.55246 5.27182,-4.04647 5.27183,-4.04648 z m -28.77898,6.2059 1.74167,-5.75889 2.1365,-6.16205 2.13649,-6.16206 4.84056,-17.569199 4.84054,-17.56921 0.0226,-5.09269 0.0226,-5.0927 -2.2768,-7.56843 -2.27679,-7.56841 -4.44404,-10.54167 -4.44404,-10.54168 -6.34654,-7.9612 -6.34652,-7.9612303 -2.5805,-3.78411 -2.58049,-3.78413998 -7.16455,16.10635028 -7.16455,16.10633 -2.54189,9.21865 -2.54189,9.21866 -0.0249,5.6643 -0.0249,5.66428 1.18891,6.55074 1.18892,6.55074 8.1809,14.9373 8.18091,14.937279 6.76398,12.26709 6.76396,12.2671 0.50405,-0.30618 0.50404,-0.30619 z m 39.11618,-84.699519 7.70419,-7.51504 7.91224,-5.99667 7.91228,-5.9967 1.275,-3.20542 1.27502,-3.20544 1.7194,-8.8807103 1.7194,-8.880708 0.47074,-8.5274567 0.47075,-8.527481 -0.5391,-9.020861 -0.53912,-9.020826 -1.44615,-10.080698 -1.44617,-10.08072 -2.44726,-8.64996 -2.44728,-8.649963 -1.51542,-1.94657 -1.51542,-1.946557 -11.45907,10.119042 -11.45907,10.119041 -5.23536,5.819435 -5.2354,5.819439 -4.39588,6.165302 -4.3959,6.165304 -3.3142,6.704334 -3.31418,6.704316 -1.52986,9.227471 -1.52985,9.2274737 -0.0254,5.218981 -0.0254,5.218962 6.69855,12.4978703 6.69855,12.49786 2.65265,8.23782 2.65264,8.2378 2.25581,1.39458 2.2558,1.39455 1.21911,-1.56138 1.21908,-1.5614 z"
       id="path2" /></g></svg>
